%TF.GenerationSoftware,KiCad,Pcbnew,7.0.7*%
%TF.CreationDate,2023-12-24T11:29:27-08:00*%
%TF.ProjectId,Micro_AGB_Dongle_Panel,4d696372-6f5f-4414-9742-5f446f6e676c,rev?*%
%TF.SameCoordinates,Original*%
%TF.FileFunction,Profile,NP*%
%FSLAX46Y46*%
G04 Gerber Fmt 4.6, Leading zero omitted, Abs format (unit mm)*
G04 Created by KiCad (PCBNEW 7.0.7) date 2023-12-24 11:29:27*
%MOMM*%
%LPD*%
G01*
G04 APERTURE LIST*
%TA.AperFunction,Profile*%
%ADD10C,0.100000*%
%TD*%
G04 APERTURE END LIST*
D10*
X122850000Y-74650000D02*
X120300000Y-74650000D01*
X185282620Y-95210315D02*
X185257006Y-95178902D01*
X171950000Y-81250000D02*
X171950000Y-85100000D01*
X127134515Y-42364833D02*
X127097684Y-42381756D01*
X156899798Y-107677844D02*
X156914833Y-107715484D01*
X155082620Y-95210315D02*
X155057006Y-95178902D01*
X127409480Y-94901026D02*
X127409480Y-94901026D01*
X142428857Y-55590774D02*
X142469065Y-55595895D01*
X140049477Y-20411758D02*
X140028915Y-20376828D01*
X141759225Y-73278857D02*
X141754104Y-73319065D01*
X154571142Y-108190774D02*
X154611038Y-108183623D01*
X184690519Y-108198973D02*
X184730934Y-108195895D01*
X185002315Y-108118243D02*
X185038241Y-108099477D01*
X139773171Y-108078915D02*
X139807014Y-108056610D01*
X155168243Y-85452315D02*
X155185166Y-85415484D01*
X139550522Y-85874461D02*
X139589490Y-85863311D01*
X111926828Y-95021084D02*
X111892985Y-95043389D01*
X142234515Y-42364833D02*
X142197684Y-42381756D01*
X170228915Y-42676828D02*
X170206610Y-42642985D01*
X172361758Y-95000522D02*
X172326828Y-95021084D01*
X154873171Y-55478915D02*
X154907014Y-55456610D01*
X127134515Y-85835166D02*
X127172155Y-85850201D01*
X185424461Y-107600522D02*
X185433623Y-107561038D01*
X157042993Y-95178902D02*
X157017379Y-95210315D01*
X172117379Y-42610315D02*
X172093389Y-42642985D01*
X156850000Y-107400000D02*
X156851026Y-107440519D01*
X125040774Y-20678857D02*
X125033623Y-20638961D01*
X139430934Y-42304104D02*
X139390519Y-42301026D01*
X127328857Y-55590774D02*
X127369065Y-55595895D01*
X157650000Y-72600000D02*
X157609480Y-72601026D01*
X126686688Y-55039490D02*
X126699798Y-55077844D01*
X157226828Y-72721084D02*
X157192985Y-72743389D01*
X165600000Y-85900000D02*
X169550000Y-85900000D01*
X127288961Y-42316376D02*
X127249477Y-42325538D01*
X111566376Y-42938961D02*
X111559225Y-42978857D01*
X112228857Y-85890774D02*
X112269065Y-85895895D01*
X184927844Y-20049798D02*
X184889490Y-20036688D01*
X125033623Y-107561038D02*
X125040774Y-107521142D01*
X124857006Y-85621097D02*
X124882620Y-85589684D01*
X112072155Y-42349798D02*
X112034515Y-42364833D01*
X126793389Y-32957014D02*
X126817379Y-32989684D01*
X111551026Y-107440519D02*
X111554104Y-107480934D01*
X157334515Y-94964833D02*
X157297684Y-94981756D01*
X156971084Y-107823171D02*
X156993389Y-107857014D01*
X142509480Y-72601026D02*
X142469065Y-72604104D01*
X137950000Y-22050000D02*
X128900000Y-22050000D01*
X169938241Y-72700522D02*
X169902315Y-72681756D01*
X156866376Y-54961038D02*
X156875538Y-55000522D01*
X174150000Y-55600000D02*
X174150000Y-53550000D01*
X180700000Y-37800000D02*
X180700000Y-33300000D01*
X156866376Y-85261038D02*
X156875538Y-85300522D01*
X125013311Y-73160509D02*
X125000201Y-73122155D01*
X154490519Y-55598973D02*
X154530934Y-55595895D01*
X140006610Y-107857014D02*
X140028915Y-107823171D01*
X154727844Y-94949798D02*
X154689490Y-94936688D01*
X170313311Y-107639490D02*
X170324461Y-107600522D01*
X155185166Y-95384515D02*
X155168243Y-95347684D01*
X170345895Y-85180934D02*
X170348973Y-85140519D01*
X170268243Y-55152315D02*
X170285166Y-55115484D01*
X170324461Y-32700522D02*
X170333623Y-32661038D01*
X140124461Y-32700522D02*
X140133623Y-32661038D01*
X169973171Y-85778915D02*
X170007014Y-85756610D01*
X155128915Y-20376828D02*
X155106610Y-20342985D01*
X185229834Y-42548826D02*
X185201173Y-42520165D01*
X155250000Y-32500000D02*
X155250000Y-28650000D01*
X174150000Y-106150000D02*
X183200000Y-106150000D01*
X126659225Y-54921142D02*
X126666376Y-54961038D01*
X184889490Y-72636688D02*
X184850522Y-72625538D01*
X156899798Y-55077844D02*
X156914833Y-55115484D01*
X184730934Y-20004104D02*
X184690519Y-20001026D01*
X154907014Y-72743389D02*
X154873171Y-72721084D01*
X157488961Y-72616376D02*
X157449477Y-72625538D01*
X169671142Y-42309225D02*
X169630934Y-42304104D01*
X139807014Y-42443389D02*
X139773171Y-42421084D01*
X157569065Y-20004104D02*
X157528857Y-20009225D01*
X142388961Y-108183623D02*
X142428857Y-108190774D01*
X185433623Y-32661038D02*
X185440774Y-32621142D01*
X139957006Y-42578902D02*
X139929834Y-42548826D01*
X172326828Y-55478915D02*
X172361758Y-55499477D01*
X157070165Y-33051173D02*
X157098826Y-33079834D01*
X174200000Y-74650000D02*
X174200000Y-72600000D01*
X111892985Y-72743389D02*
X111860315Y-72767379D01*
X141751026Y-32540519D02*
X141754104Y-32580934D01*
X171951026Y-43059480D02*
X171950000Y-43100000D01*
X126817379Y-72910315D02*
X126793389Y-72942985D01*
X142349477Y-85874461D02*
X142388961Y-85883623D01*
X154490519Y-33298973D02*
X154530934Y-33295895D01*
X131400000Y-37800000D02*
X131400000Y-42300000D01*
X124801173Y-20220165D02*
X124771097Y-20192993D01*
X140113311Y-20560509D02*
X140100201Y-20522155D01*
X124330934Y-20004104D02*
X124290519Y-20001026D01*
X184771142Y-55590774D02*
X184811038Y-55583623D01*
X109550000Y-99550000D02*
X109550000Y-81250000D01*
X111554104Y-54880934D02*
X111559225Y-54921142D01*
X111770165Y-42548826D02*
X111742993Y-42578902D01*
X139773171Y-20121084D02*
X139738241Y-20100522D01*
X126928902Y-72792993D02*
X126898826Y-72820165D01*
X124290519Y-72601026D02*
X124250000Y-72600000D01*
X127172155Y-108150201D02*
X127210509Y-108163311D01*
X155106610Y-55257014D02*
X155128915Y-55223171D01*
X185385166Y-73084515D02*
X185368243Y-73047684D01*
X156971084Y-85523171D02*
X156993389Y-85557014D01*
X111798826Y-42520165D02*
X111770165Y-42548826D01*
X185282620Y-32989684D02*
X185306610Y-32957014D01*
X112309480Y-33298973D02*
X112350000Y-33300000D01*
X156854104Y-32580934D02*
X156859225Y-32621142D01*
X139807014Y-72743389D02*
X139773171Y-72721084D01*
X155213311Y-32739490D02*
X155224461Y-32700522D01*
X157042993Y-107921097D02*
X157070165Y-107951173D01*
X126842993Y-72878902D02*
X126817379Y-72910315D01*
X126771084Y-85523171D02*
X126793389Y-85557014D01*
X125050000Y-50950000D02*
X125850000Y-50950000D01*
X142028902Y-20192993D02*
X141998826Y-20220165D01*
X139627844Y-55550201D02*
X139665484Y-55535166D01*
X140100201Y-55077844D02*
X140113311Y-55039490D01*
X137900000Y-55600000D02*
X139350000Y-55600000D01*
X170333623Y-42938961D02*
X170324461Y-42899477D01*
X170340774Y-95578857D02*
X170333623Y-95538961D01*
X155200201Y-85377844D02*
X155213311Y-85339490D01*
X109550000Y-46950000D02*
X109550000Y-28650000D01*
X111860315Y-20167379D02*
X111828902Y-20192993D01*
X124882620Y-85589684D02*
X124906610Y-85557014D01*
X111559225Y-42978857D02*
X111554104Y-43019065D01*
X155128915Y-72976828D02*
X155106610Y-72942985D01*
X111599798Y-73122155D02*
X111586688Y-73160509D01*
X125050000Y-43100000D02*
X125048973Y-43059480D01*
X124882620Y-72910315D02*
X124857006Y-72878902D01*
X111798826Y-55379834D02*
X111828902Y-55407006D01*
X154939684Y-33132620D02*
X154971097Y-33107006D01*
X169902315Y-108118243D02*
X169938241Y-108099477D01*
X185368243Y-73047684D02*
X185349477Y-73011758D01*
X156859225Y-54921142D02*
X156866376Y-54961038D01*
X140148973Y-32540519D02*
X140150000Y-32500000D01*
X172260315Y-95067379D02*
X172228902Y-95092993D01*
X185002315Y-94981756D02*
X184965484Y-94964833D01*
X171966376Y-32661038D02*
X171975538Y-32700522D01*
X124739684Y-55432620D02*
X124771097Y-55407006D01*
X154689490Y-94936688D02*
X154650522Y-94925538D01*
X112110509Y-20036688D02*
X112072155Y-20049798D01*
X125033623Y-42938961D02*
X125024461Y-42899477D01*
X124638241Y-108099477D02*
X124673171Y-108078915D01*
X157609480Y-72601026D02*
X157569065Y-72604104D01*
X169630934Y-94904104D02*
X169590519Y-94901026D01*
X169902315Y-85818243D02*
X169938241Y-85799477D01*
X139550522Y-55574461D02*
X139589490Y-55563311D01*
X171966376Y-54961038D02*
X171975538Y-55000522D01*
X139702315Y-20081756D02*
X139665484Y-20064833D01*
X156993389Y-20342985D02*
X156971084Y-20376828D01*
X156854104Y-95619065D02*
X156851026Y-95659480D01*
X172750000Y-72600000D02*
X172709480Y-72601026D01*
X127249477Y-72625538D02*
X127210509Y-72636688D01*
X122850000Y-72600000D02*
X122850000Y-74650000D01*
X185433623Y-42938961D02*
X185424461Y-42899477D01*
X111892985Y-95043389D02*
X111860315Y-95067379D01*
X155200201Y-73122155D02*
X155185166Y-73084515D01*
X185002315Y-33218243D02*
X185038241Y-33199477D01*
X184690519Y-94901026D02*
X184650000Y-94900000D01*
X170350000Y-20800000D02*
X170348973Y-20759480D01*
X157070165Y-107951173D02*
X157098826Y-107979834D01*
X169865484Y-85835166D02*
X169902315Y-85818243D01*
X155082620Y-107889684D02*
X155106610Y-107857014D01*
X141799798Y-55077844D02*
X141814833Y-55115484D01*
X171966376Y-42938961D02*
X171959225Y-42978857D01*
X126714833Y-32815484D02*
X126731756Y-32852315D01*
X170324461Y-73199477D02*
X170313311Y-73160509D01*
X111828902Y-42492993D02*
X111798826Y-42520165D01*
X142550000Y-55600000D02*
X143950000Y-55600000D01*
X172397684Y-108118243D02*
X172434515Y-108135166D01*
X126699798Y-20522155D02*
X126686688Y-20560509D01*
X126928902Y-85707006D02*
X126960315Y-85732620D01*
X176700000Y-85900000D02*
X176700000Y-90400000D01*
X126686688Y-85339490D02*
X126699798Y-85377844D01*
X139430934Y-55595895D02*
X139471142Y-55590774D01*
X185440774Y-54921142D02*
X185445895Y-54880934D01*
X185440774Y-20678857D02*
X185433623Y-20638961D01*
X124290519Y-108198973D02*
X124330934Y-108195895D01*
X124527844Y-108150201D02*
X124565484Y-108135166D01*
X112149477Y-85874461D02*
X112188961Y-85883623D01*
X170300201Y-20522155D02*
X170285166Y-20484515D01*
X127210509Y-72636688D02*
X127172155Y-72649798D01*
X156875538Y-42899477D02*
X156866376Y-42938961D01*
X184811038Y-55583623D02*
X184850522Y-55574461D01*
X185450000Y-81250000D02*
X187450000Y-81250000D01*
X111550000Y-46950000D02*
X109550000Y-46950000D01*
X157160315Y-20167379D02*
X157128902Y-20192993D01*
X126699798Y-73122155D02*
X126686688Y-73160509D01*
X122800000Y-106150000D02*
X122800000Y-108200000D01*
X157334515Y-20064833D02*
X157297684Y-20081756D01*
X112034515Y-85835166D02*
X112072155Y-85850201D01*
X172170165Y-55351173D02*
X172198826Y-55379834D01*
X185038241Y-72700522D02*
X185002315Y-72681756D01*
X157042993Y-33021097D02*
X157070165Y-33051173D01*
X143950000Y-55600000D02*
X143950000Y-53550000D01*
X139957006Y-95178902D02*
X139929834Y-95148826D01*
X172014833Y-107715484D02*
X172031756Y-107752315D01*
X154530934Y-85895895D02*
X154571142Y-85890774D01*
X142161758Y-33199477D02*
X142197684Y-33218243D01*
X126650000Y-95700000D02*
X126650000Y-99550000D01*
X127369065Y-94904104D02*
X127328857Y-94909225D01*
X172549477Y-20025538D02*
X172510509Y-20036688D01*
X124602315Y-108118243D02*
X124638241Y-108099477D01*
X172397684Y-72681756D02*
X172361758Y-72700522D01*
X127409480Y-20001026D02*
X127369065Y-20004104D01*
X155240774Y-85221142D02*
X155245895Y-85180934D01*
X185306610Y-32957014D02*
X185328915Y-32923171D01*
X156993389Y-55257014D02*
X157017379Y-55289684D01*
X139511038Y-72616376D02*
X139471142Y-72609225D01*
X185445895Y-95619065D02*
X185440774Y-95578857D01*
X126793389Y-20342985D02*
X126771084Y-20376828D01*
X131400000Y-90400000D02*
X131400000Y-94900000D01*
X135400000Y-33300000D02*
X139350000Y-33300000D01*
X142161758Y-72700522D02*
X142126828Y-72721084D01*
X140150000Y-54800000D02*
X140150000Y-50950000D01*
X139901173Y-55379834D02*
X139929834Y-55351173D01*
X156050000Y-103550000D02*
X156850000Y-103550000D01*
X156851026Y-43059480D02*
X156850000Y-43100000D01*
X165600000Y-33300000D02*
X169550000Y-33300000D01*
X185450000Y-73400000D02*
X185448973Y-73359480D01*
X124489490Y-94936688D02*
X124450522Y-94925538D01*
X126650000Y-28650000D02*
X126650000Y-32500000D01*
X172588961Y-85883623D02*
X172628857Y-85890774D01*
X172709480Y-55598973D02*
X172750000Y-55600000D01*
X185450000Y-103550000D02*
X187450000Y-103550000D01*
X155213311Y-107639490D02*
X155224461Y-107600522D01*
X176700000Y-37800000D02*
X176700000Y-42300000D01*
X126817379Y-32989684D02*
X126842993Y-33021097D01*
X141750000Y-32500000D02*
X141751026Y-32540519D01*
X142126828Y-55478915D02*
X142161758Y-55499477D01*
X187450000Y-28650000D02*
X187450000Y-46950000D01*
X111693389Y-42642985D02*
X111671084Y-42676828D01*
X155168243Y-32852315D02*
X155185166Y-32815484D01*
X127409480Y-85898973D02*
X127450000Y-85900000D01*
X184811038Y-72616376D02*
X184771142Y-72609225D01*
X165600000Y-74650000D02*
X159100000Y-74650000D01*
X154802315Y-55518243D02*
X154838241Y-55499477D01*
X185201173Y-33079834D02*
X185229834Y-33051173D01*
X172669065Y-55595895D02*
X172709480Y-55598973D01*
X171954104Y-20719065D02*
X171951026Y-20759480D01*
X183200000Y-106150000D02*
X183200000Y-108200000D01*
X170129834Y-95148826D02*
X170101173Y-95120165D01*
X155029834Y-72848826D02*
X155001173Y-72820165D01*
X170348973Y-32540519D02*
X170350000Y-32500000D01*
X157070165Y-85651173D02*
X157098826Y-85679834D01*
X185445895Y-54880934D02*
X185448973Y-54840519D01*
X112110509Y-55563311D02*
X112149477Y-55574461D01*
X156850000Y-46950000D02*
X156050000Y-46950000D01*
X155224461Y-73199477D02*
X155213311Y-73160509D01*
X156931756Y-55152315D02*
X156950522Y-55188241D01*
X185282620Y-85589684D02*
X185306610Y-85557014D01*
X154689490Y-42336688D02*
X154650522Y-42325538D01*
X125013311Y-55039490D02*
X125024461Y-55000522D01*
X141970165Y-85651173D02*
X141998826Y-85679834D01*
X172472155Y-94949798D02*
X172434515Y-94964833D01*
X139901173Y-20220165D02*
X139871097Y-20192993D01*
X124739684Y-42467379D02*
X124707014Y-42443389D01*
X172093389Y-95242985D02*
X172071084Y-95276828D01*
X155245895Y-32580934D02*
X155248973Y-32540519D01*
X112149477Y-20025538D02*
X112110509Y-20036688D01*
X124857006Y-72878902D02*
X124829834Y-72848826D01*
X127097684Y-72681756D02*
X127061758Y-72700522D01*
X170333623Y-54961038D02*
X170340774Y-54921142D01*
X124928915Y-107823171D02*
X124949477Y-107788241D01*
X170249477Y-55188241D02*
X170268243Y-55152315D01*
X141970165Y-33051173D02*
X141998826Y-33079834D01*
X111961758Y-33199477D02*
X111997684Y-33218243D01*
X126842993Y-42578902D02*
X126817379Y-42610315D01*
X139929834Y-55351173D02*
X139957006Y-55321097D01*
X169550000Y-33300000D02*
X169590519Y-33298973D01*
X113750000Y-106150000D02*
X122800000Y-106150000D01*
X112188961Y-20016376D02*
X112149477Y-20025538D01*
X156875538Y-73199477D02*
X156866376Y-73238961D01*
X156851026Y-95659480D02*
X156850000Y-95700000D01*
X140100201Y-95422155D02*
X140085166Y-95384515D01*
X126731756Y-107752315D02*
X126750522Y-107788241D01*
X157160315Y-42467379D02*
X157128902Y-42492993D01*
X154765484Y-55535166D02*
X154802315Y-55518243D01*
X111550000Y-103550000D02*
X111550000Y-107400000D01*
X172014833Y-32815484D02*
X172031756Y-32852315D01*
X157449477Y-72625538D02*
X157410509Y-72636688D01*
X124673171Y-55478915D02*
X124707014Y-55456610D01*
X156859225Y-20678857D02*
X156854104Y-20719065D01*
X155245895Y-43019065D02*
X155240774Y-42978857D01*
X111631756Y-55152315D02*
X111650522Y-55188241D01*
X142550000Y-108200000D02*
X143950000Y-108200000D01*
X172434515Y-55535166D02*
X172472155Y-55550201D01*
X157297684Y-108118243D02*
X157334515Y-108135166D01*
X139665484Y-108135166D02*
X139702315Y-108118243D01*
X171950000Y-99550000D02*
X171150000Y-99550000D01*
X112188961Y-108183623D02*
X112228857Y-108190774D01*
X141998826Y-95120165D02*
X141970165Y-95148826D01*
X122850000Y-22050000D02*
X113800000Y-22050000D01*
X140085166Y-32815484D02*
X140100201Y-32777844D01*
X172170165Y-95148826D02*
X172142993Y-95178902D01*
X157128902Y-55407006D02*
X157160315Y-55432620D01*
X185306610Y-20342985D02*
X185282620Y-20310315D01*
X140028915Y-85523171D02*
X140049477Y-85488241D01*
X141750000Y-28650000D02*
X141750000Y-32500000D01*
X169590519Y-108198973D02*
X169630934Y-108195895D01*
X146500000Y-42300000D02*
X142550000Y-42300000D01*
X155250000Y-99550000D02*
X155250000Y-95700000D01*
X111550000Y-81250000D02*
X111550000Y-81250000D01*
X157261758Y-55499477D02*
X157297684Y-55518243D01*
X154611038Y-33283623D02*
X154650522Y-33274461D01*
X111554104Y-107480934D02*
X111559225Y-107521142D01*
X184965484Y-55535166D02*
X185002315Y-55518243D01*
X142388961Y-85883623D02*
X142428857Y-85890774D01*
X142469065Y-33295895D02*
X142509480Y-33298973D01*
X139702315Y-33218243D02*
X139738241Y-33199477D01*
X112110509Y-42336688D02*
X112072155Y-42349798D01*
X124707014Y-33156610D02*
X124739684Y-33132620D01*
X126960315Y-72767379D02*
X126928902Y-72792993D01*
X124290519Y-55598973D02*
X124330934Y-55595895D01*
X154689490Y-85863311D02*
X154727844Y-85850201D01*
X142272155Y-85850201D02*
X142310509Y-85863311D01*
X111566376Y-20638961D02*
X111559225Y-20678857D01*
X172142993Y-42578902D02*
X172117379Y-42610315D01*
X156899798Y-95422155D02*
X156886688Y-95460509D01*
X156875538Y-95499477D02*
X156866376Y-95538961D01*
X126654104Y-54880934D02*
X126659225Y-54921142D01*
X141751026Y-43059480D02*
X141750000Y-43100000D01*
X126675538Y-107600522D02*
X126686688Y-107639490D01*
X157017379Y-95210315D02*
X156993389Y-95242985D01*
X154611038Y-94916376D02*
X154571142Y-94909225D01*
X141942993Y-72878902D02*
X141917379Y-72910315D01*
X111926828Y-108078915D02*
X111961758Y-108099477D01*
X142092985Y-20143389D02*
X142060315Y-20167379D01*
X155248973Y-85140519D02*
X155250000Y-85100000D01*
X124489490Y-20036688D02*
X124450522Y-20025538D01*
X156931756Y-20447684D02*
X156914833Y-20484515D01*
X126686688Y-32739490D02*
X126699798Y-32777844D01*
X155224461Y-107600522D02*
X155233623Y-107561038D01*
X156854104Y-43019065D02*
X156851026Y-43059480D01*
X126898826Y-107979834D02*
X126928902Y-108007006D01*
X111551026Y-32540519D02*
X111554104Y-32580934D01*
X141750000Y-46950000D02*
X140950000Y-46950000D01*
X141799798Y-20522155D02*
X141786688Y-20560509D01*
X171150000Y-50950000D02*
X171950000Y-50950000D01*
X185107014Y-72743389D02*
X185073171Y-72721084D01*
X111551026Y-20759480D02*
X111550000Y-20800000D01*
X156050000Y-50950000D02*
X156850000Y-50950000D01*
X155185166Y-20484515D02*
X155168243Y-20447684D01*
X171951026Y-107440519D02*
X171954104Y-107480934D01*
X113800000Y-22050000D02*
X113800000Y-20000000D01*
X154689490Y-108163311D02*
X154727844Y-108150201D01*
X122800000Y-53550000D02*
X122800000Y-55600000D01*
X172071084Y-72976828D02*
X172050522Y-73011758D01*
X157528857Y-42309225D02*
X157488961Y-42316376D01*
X137950000Y-20000000D02*
X137950000Y-22050000D01*
X124602315Y-42381756D02*
X124565484Y-42364833D01*
X141871084Y-55223171D02*
X141893389Y-55257014D01*
X124450522Y-108174461D02*
X124489490Y-108163311D01*
X171951026Y-85140519D02*
X171954104Y-85180934D01*
X139627844Y-72649798D02*
X139589490Y-72636688D01*
X124565484Y-42364833D02*
X124527844Y-42349798D01*
X139471142Y-108190774D02*
X139511038Y-108183623D01*
X111717379Y-107889684D02*
X111742993Y-107921097D01*
X126731756Y-42747684D02*
X126714833Y-42784515D01*
X172326828Y-85778915D02*
X172361758Y-85799477D01*
X185445895Y-32580934D02*
X185448973Y-32540519D01*
X142092985Y-108056610D02*
X142126828Y-108078915D01*
X185433623Y-95538961D02*
X185424461Y-95499477D01*
X111599798Y-85377844D02*
X111614833Y-85415484D01*
X159050000Y-53550000D02*
X165600000Y-53550000D01*
X124829834Y-95148826D02*
X124801173Y-95120165D01*
X142126828Y-33178915D02*
X142161758Y-33199477D01*
X170313311Y-32739490D02*
X170324461Y-32700522D01*
X124602315Y-55518243D02*
X124638241Y-55499477D01*
X124771097Y-33107006D02*
X124801173Y-33079834D01*
X170206610Y-42642985D02*
X170182620Y-42610315D01*
X184927844Y-85850201D02*
X184965484Y-85835166D01*
X142028902Y-85707006D02*
X142060315Y-85732620D01*
X184850522Y-20025538D02*
X184811038Y-20016376D01*
X171999798Y-32777844D02*
X172014833Y-32815484D01*
X142272155Y-108150201D02*
X142310509Y-108163311D01*
X155245895Y-20719065D02*
X155240774Y-20678857D01*
X139982620Y-42610315D02*
X139957006Y-42578902D01*
X187450000Y-77250000D02*
X185450000Y-77250000D01*
X124527844Y-33250201D02*
X124565484Y-33235166D01*
X185433623Y-73238961D02*
X185424461Y-73199477D01*
X169789490Y-108163311D02*
X169827844Y-108150201D01*
X139807014Y-20143389D02*
X139773171Y-20121084D01*
X172434515Y-33235166D02*
X172472155Y-33250201D01*
X172549477Y-72625538D02*
X172510509Y-72636688D01*
X139738241Y-33199477D02*
X139773171Y-33178915D01*
X135400000Y-85900000D02*
X139350000Y-85900000D01*
X169630934Y-33295895D02*
X169671142Y-33290774D01*
X155248973Y-107440519D02*
X155250000Y-107400000D01*
X126793389Y-42642985D02*
X126771084Y-42676828D01*
X142349477Y-72625538D02*
X142310509Y-72636688D01*
X140049477Y-32888241D02*
X140068243Y-32852315D01*
X112269065Y-42304104D02*
X112228857Y-42309225D01*
X141754104Y-95619065D02*
X141751026Y-95659480D01*
X169590519Y-94901026D02*
X169550000Y-94900000D01*
X171966376Y-107561038D02*
X171975538Y-107600522D01*
X126750522Y-95311758D02*
X126731756Y-95347684D01*
X155224461Y-20599477D02*
X155213311Y-20560509D01*
X140150000Y-20800000D02*
X140148973Y-20759480D01*
X156851026Y-54840519D02*
X156854104Y-54880934D01*
X155128915Y-95276828D02*
X155106610Y-95242985D01*
X180700000Y-90400000D02*
X180700000Y-85900000D01*
X156886688Y-20560509D02*
X156875538Y-20599477D01*
X185171097Y-95092993D02*
X185139684Y-95067379D01*
X127450000Y-55600000D02*
X128850000Y-55600000D01*
X153050000Y-74650000D02*
X150500000Y-74650000D01*
X156866376Y-32661038D02*
X156875538Y-32700522D01*
X156914833Y-73084515D02*
X156899798Y-73122155D01*
X170313311Y-73160509D02*
X170300201Y-73122155D01*
X141970165Y-95148826D02*
X141942993Y-95178902D01*
X126666376Y-20638961D02*
X126659225Y-20678857D01*
X111575538Y-32700522D02*
X111586688Y-32739490D01*
X172397684Y-85818243D02*
X172434515Y-85835166D01*
X157609480Y-94901026D02*
X157569065Y-94904104D01*
X124949477Y-95311758D02*
X124928915Y-95276828D01*
X183200000Y-55600000D02*
X184650000Y-55600000D01*
X185073171Y-20121084D02*
X185038241Y-20100522D01*
X185107014Y-20143389D02*
X185073171Y-20121084D01*
X111892985Y-33156610D02*
X111926828Y-33178915D01*
X126870165Y-33051173D02*
X126898826Y-33079834D01*
X184927844Y-33250201D02*
X184965484Y-33235166D01*
X124882620Y-95210315D02*
X124857006Y-95178902D01*
X140150000Y-73400000D02*
X140148973Y-73359480D01*
X141970165Y-20248826D02*
X141942993Y-20278902D01*
X141754104Y-20719065D02*
X141751026Y-20759480D01*
X141893389Y-107857014D02*
X141917379Y-107889684D01*
X111798826Y-20220165D02*
X111770165Y-20248826D01*
X124330934Y-33295895D02*
X124371142Y-33290774D01*
X124330934Y-72604104D02*
X124290519Y-72601026D01*
X141786688Y-107639490D02*
X141799798Y-107677844D01*
X125050000Y-73400000D02*
X125048973Y-73359480D01*
X143950000Y-108200000D02*
X143950000Y-106150000D01*
X192450000Y-108200000D02*
X192450000Y-20000000D01*
X170350000Y-73400000D02*
X170348973Y-73359480D01*
X185450000Y-28650000D02*
X187450000Y-28650000D01*
X142197684Y-20081756D02*
X142161758Y-20100522D01*
X172549477Y-42325538D02*
X172510509Y-42336688D01*
X142428857Y-20009225D02*
X142388961Y-20016376D01*
X169590519Y-33298973D02*
X169630934Y-33295895D01*
X120300000Y-42300000D02*
X120300000Y-37800000D01*
X185306610Y-42642985D02*
X185282620Y-42610315D01*
X126928902Y-55407006D02*
X126960315Y-55432620D01*
X142349477Y-42325538D02*
X142310509Y-42336688D01*
X172198826Y-107979834D02*
X172228902Y-108007006D01*
X112188961Y-55583623D02*
X112228857Y-55590774D01*
X170324461Y-85300522D02*
X170333623Y-85261038D01*
X111586688Y-73160509D02*
X111575538Y-73199477D01*
X155233623Y-107561038D02*
X155240774Y-107521142D01*
X124250000Y-33300000D02*
X124290519Y-33298973D01*
X185445895Y-43019065D02*
X185440774Y-42978857D01*
X126898826Y-55379834D02*
X126928902Y-55407006D01*
X150500000Y-33300000D02*
X154450000Y-33300000D01*
X111798826Y-33079834D02*
X111828902Y-33107006D01*
X155250000Y-43100000D02*
X155248973Y-43059480D01*
X126771084Y-95276828D02*
X126750522Y-95311758D01*
X154650522Y-108174461D02*
X154689490Y-108163311D01*
X155128915Y-85523171D02*
X155149477Y-85488241D01*
X185445895Y-73319065D02*
X185440774Y-73278857D01*
X111860315Y-95067379D02*
X111828902Y-95092993D01*
X157372155Y-94949798D02*
X157334515Y-94964833D01*
X124801173Y-42520165D02*
X124771097Y-42492993D01*
X184850522Y-94925538D02*
X184811038Y-94916376D01*
X112309480Y-94901026D02*
X112269065Y-94904104D01*
X154971097Y-72792993D02*
X154939684Y-72767379D01*
X156993389Y-72942985D02*
X156971084Y-72976828D01*
X157297684Y-94981756D02*
X157261758Y-95000522D01*
X155029834Y-55351173D02*
X155057006Y-55321097D01*
X185413311Y-42860509D02*
X185400201Y-42822155D01*
X154611038Y-55583623D02*
X154650522Y-55574461D01*
X139807014Y-108056610D02*
X139839684Y-108032620D01*
X172326828Y-20121084D02*
X172292985Y-20143389D01*
X154727844Y-20049798D02*
X154689490Y-20036688D01*
X170348973Y-54840519D02*
X170350000Y-54800000D01*
X126651026Y-107440519D02*
X126654104Y-107480934D01*
X125040774Y-107521142D02*
X125045895Y-107480934D01*
X185448973Y-73359480D02*
X185445895Y-73319065D01*
X141766376Y-32661038D02*
X141775538Y-32700522D01*
X127097684Y-42381756D02*
X127061758Y-42400522D01*
X142428857Y-85890774D02*
X142469065Y-85895895D01*
X157449477Y-94925538D02*
X157410509Y-94936688D01*
X111550000Y-50950000D02*
X111550000Y-50950000D01*
X157609480Y-33298973D02*
X157650000Y-33300000D01*
X184965484Y-94964833D02*
X184927844Y-94949798D01*
X155250000Y-46950000D02*
X155250000Y-43100000D01*
X153050000Y-72600000D02*
X153050000Y-74650000D01*
X170285166Y-42784515D02*
X170268243Y-42747684D01*
X125045895Y-32580934D02*
X125048973Y-32540519D01*
X172198826Y-42520165D02*
X172170165Y-42548826D01*
X154450000Y-72600000D02*
X153050000Y-72600000D01*
X135400000Y-42300000D02*
X135400000Y-37800000D01*
X125850000Y-81250000D02*
X126650000Y-81250000D01*
X111717379Y-72910315D02*
X111693389Y-72942985D01*
X140150000Y-95700000D02*
X140148973Y-95659480D01*
X154838241Y-72700522D02*
X154802315Y-72681756D01*
X140150000Y-99550000D02*
X140150000Y-95700000D01*
X157297684Y-33218243D02*
X157334515Y-33235166D01*
X126992985Y-33156610D02*
X127026828Y-33178915D01*
X111693389Y-20342985D02*
X111671084Y-20376828D01*
X165600000Y-37800000D02*
X165600000Y-33300000D01*
X139665484Y-33235166D02*
X139702315Y-33218243D01*
X172031756Y-85452315D02*
X172050522Y-85488241D01*
X142550000Y-42300000D02*
X142509480Y-42301026D01*
X171975538Y-95499477D02*
X171966376Y-95538961D01*
X140006610Y-42642985D02*
X139982620Y-42610315D01*
X154939684Y-55432620D02*
X154971097Y-55407006D01*
X171950000Y-20800000D02*
X171950000Y-24650000D01*
X157017379Y-85589684D02*
X157042993Y-85621097D01*
X185400201Y-55077844D02*
X185413311Y-55039490D01*
X125050000Y-81250000D02*
X125850000Y-81250000D01*
X126771084Y-55223171D02*
X126793389Y-55257014D01*
X111586688Y-20560509D02*
X111575538Y-20599477D01*
X140113311Y-55039490D02*
X140124461Y-55000522D01*
X154450000Y-108200000D02*
X154490519Y-108198973D01*
X170007014Y-108056610D02*
X170039684Y-108032620D01*
X156950522Y-107788241D02*
X156971084Y-107823171D01*
X172750000Y-94900000D02*
X172709480Y-94901026D01*
X140100201Y-107677844D02*
X140113311Y-107639490D01*
X156875538Y-20599477D02*
X156866376Y-20638961D01*
X125048973Y-32540519D02*
X125050000Y-32500000D01*
X140068243Y-85452315D02*
X140085166Y-85415484D01*
X172750000Y-33300000D02*
X176700000Y-33300000D01*
X125024461Y-32700522D02*
X125033623Y-32661038D01*
X170101173Y-95120165D02*
X170071097Y-95092993D01*
X171954104Y-54880934D02*
X171959225Y-54921142D01*
X184650000Y-55600000D02*
X184690519Y-55598973D01*
X185002315Y-20081756D02*
X184965484Y-20064833D01*
X170268243Y-107752315D02*
X170285166Y-107715484D01*
X125050000Y-46950000D02*
X125050000Y-43100000D01*
X141799798Y-32777844D02*
X141814833Y-32815484D01*
X111650522Y-85488241D02*
X111671084Y-85523171D01*
X131400000Y-42300000D02*
X127450000Y-42300000D01*
X184965484Y-20064833D02*
X184927844Y-20049798D01*
X187450000Y-24650000D02*
X185450000Y-24650000D01*
X142092985Y-85756610D02*
X142126828Y-85778915D01*
X156859225Y-42978857D02*
X156854104Y-43019065D01*
X139511038Y-108183623D02*
X139550522Y-108174461D01*
X157488961Y-55583623D02*
X157528857Y-55590774D01*
X169750522Y-72625538D02*
X169711038Y-72616376D01*
X141751026Y-20759480D02*
X141750000Y-20800000D01*
X122800000Y-108200000D02*
X124250000Y-108200000D01*
X124330934Y-94904104D02*
X124290519Y-94901026D01*
X171150000Y-28650000D02*
X171950000Y-28650000D01*
X141750000Y-50950000D02*
X141750000Y-54800000D01*
X170071097Y-72792993D02*
X170039684Y-72767379D01*
X172709480Y-72601026D02*
X172669065Y-72604104D01*
X142234515Y-72664833D02*
X142197684Y-72681756D01*
X124801173Y-85679834D02*
X124829834Y-85651173D01*
X140068243Y-55152315D02*
X140085166Y-55115484D01*
X112072155Y-85850201D02*
X112110509Y-85863311D01*
X170324461Y-42899477D02*
X170313311Y-42860509D01*
X111693389Y-32957014D02*
X111717379Y-32989684D01*
X171975538Y-107600522D02*
X171986688Y-107639490D01*
X141917379Y-42610315D02*
X141893389Y-42642985D01*
X139957006Y-33021097D02*
X139982620Y-32989684D01*
X155185166Y-55115484D02*
X155200201Y-55077844D01*
X124250000Y-20000000D02*
X122850000Y-20000000D01*
X185450000Y-95700000D02*
X185448973Y-95659480D01*
X184650000Y-108200000D02*
X184690519Y-108198973D01*
X170340774Y-73278857D02*
X170333623Y-73238961D01*
X140950000Y-46950000D02*
X140150000Y-46950000D01*
X111742993Y-107921097D02*
X111770165Y-107951173D01*
X184927844Y-72649798D02*
X184889490Y-72636688D01*
X172628857Y-72609225D02*
X172588961Y-72616376D01*
X139957006Y-107921097D02*
X139982620Y-107889684D01*
X155200201Y-55077844D02*
X155213311Y-55039490D01*
X124489490Y-33263311D02*
X124527844Y-33250201D01*
X126686688Y-95460509D02*
X126675538Y-95499477D01*
X185073171Y-55478915D02*
X185107014Y-55456610D01*
X170249477Y-73011758D02*
X170228915Y-72976828D01*
X141766376Y-95538961D02*
X141759225Y-95578857D01*
X140100201Y-20522155D02*
X140085166Y-20484515D01*
X141750000Y-73400000D02*
X141750000Y-77250000D01*
X111586688Y-95460509D02*
X111575538Y-95499477D01*
X155200201Y-20522155D02*
X155185166Y-20484515D01*
X126666376Y-107561038D02*
X126675538Y-107600522D01*
X111586688Y-42860509D02*
X111575538Y-42899477D01*
X184690519Y-33298973D02*
X184730934Y-33295895D01*
X185433623Y-54961038D02*
X185440774Y-54921142D01*
X124527844Y-72649798D02*
X124489490Y-72636688D01*
X139871097Y-72792993D02*
X139839684Y-72767379D01*
X140950000Y-99550000D02*
X140150000Y-99550000D01*
X109550000Y-24650000D02*
X109550000Y-20000000D01*
X157192985Y-108056610D02*
X157226828Y-108078915D01*
X185328915Y-95276828D02*
X185306610Y-95242985D01*
X139807014Y-95043389D02*
X139773171Y-95021084D01*
X141917379Y-85589684D02*
X141942993Y-85621097D01*
X169789490Y-85863311D02*
X169827844Y-85850201D01*
X127172155Y-85850201D02*
X127210509Y-85863311D01*
X161600000Y-90400000D02*
X161600000Y-94900000D01*
X112350000Y-42300000D02*
X112309480Y-42301026D01*
X169902315Y-33218243D02*
X169938241Y-33199477D01*
X111550000Y-77250000D02*
X109550000Y-77250000D01*
X184690519Y-42301026D02*
X184650000Y-42300000D01*
X125013311Y-107639490D02*
X125024461Y-107600522D01*
X172434515Y-72664833D02*
X172397684Y-72681756D01*
X157226828Y-108078915D02*
X157261758Y-108099477D01*
X171986688Y-107639490D02*
X171999798Y-107677844D01*
X171959225Y-95578857D02*
X171954104Y-95619065D01*
X140145895Y-107480934D02*
X140148973Y-107440519D01*
X185413311Y-32739490D02*
X185424461Y-32700522D01*
X127134515Y-72664833D02*
X127097684Y-72681756D01*
X156850000Y-103550000D02*
X156850000Y-107400000D01*
X139738241Y-95000522D02*
X139702315Y-94981756D01*
X170285166Y-95384515D02*
X170268243Y-95347684D01*
X141970165Y-72848826D02*
X141942993Y-72878902D01*
X111614833Y-73084515D02*
X111599798Y-73122155D01*
X155224461Y-85300522D02*
X155233623Y-85261038D01*
X169973171Y-55478915D02*
X170007014Y-55456610D01*
X111997684Y-20081756D02*
X111961758Y-20100522D01*
X157192985Y-55456610D02*
X157226828Y-55478915D01*
X126659225Y-73278857D02*
X126654104Y-73319065D01*
X111717379Y-20310315D02*
X111693389Y-20342985D01*
X172170165Y-107951173D02*
X172198826Y-107979834D01*
X185385166Y-20484515D02*
X185368243Y-20447684D01*
X156914833Y-42784515D02*
X156899798Y-42822155D01*
X141893389Y-20342985D02*
X141871084Y-20376828D01*
X172628857Y-108190774D02*
X172669065Y-108195895D01*
X171986688Y-73160509D02*
X171975538Y-73199477D01*
X139702315Y-94981756D02*
X139665484Y-94964833D01*
X126699798Y-32777844D02*
X126714833Y-32815484D01*
X111828902Y-95092993D02*
X111798826Y-95120165D01*
X187450000Y-108200000D02*
X192450000Y-108200000D01*
X172472155Y-85850201D02*
X172510509Y-85863311D01*
X170039684Y-55432620D02*
X170071097Y-55407006D01*
X185002315Y-55518243D02*
X185038241Y-55499477D01*
X155240774Y-73278857D02*
X155233623Y-73238961D01*
X142310509Y-72636688D02*
X142272155Y-72649798D01*
X185328915Y-72976828D02*
X185306610Y-72942985D01*
X170348973Y-107440519D02*
X170350000Y-107400000D01*
X161600000Y-37800000D02*
X161600000Y-42300000D01*
X124857006Y-20278902D02*
X124829834Y-20248826D01*
X170340774Y-107521142D02*
X170345895Y-107480934D01*
X139871097Y-55407006D02*
X139901173Y-55379834D01*
X156859225Y-85221142D02*
X156866376Y-85261038D01*
X141814833Y-95384515D02*
X141799798Y-95422155D01*
X112149477Y-108174461D02*
X112188961Y-108183623D01*
X155057006Y-95178902D02*
X155029834Y-95148826D01*
X154838241Y-33199477D02*
X154873171Y-33178915D01*
X184927844Y-94949798D02*
X184889490Y-94936688D01*
X142388961Y-72616376D02*
X142349477Y-72625538D01*
X126842993Y-20278902D02*
X126817379Y-20310315D01*
X157609480Y-42301026D02*
X157569065Y-42304104D01*
X124707014Y-42443389D02*
X124673171Y-42421084D01*
X140028915Y-55223171D02*
X140049477Y-55188241D01*
X165600000Y-94900000D02*
X165600000Y-90400000D01*
X112228857Y-33290774D02*
X112269065Y-33295895D01*
X139665484Y-72664833D02*
X139627844Y-72649798D01*
X111671084Y-32923171D02*
X111693389Y-32957014D01*
X157042993Y-42578902D02*
X157017379Y-42610315D01*
X171950000Y-32500000D02*
X171951026Y-32540519D01*
X169865484Y-94964833D02*
X169827844Y-94949798D01*
X172750000Y-108200000D02*
X174150000Y-108200000D01*
X141759225Y-20678857D02*
X141754104Y-20719065D01*
X171975538Y-55000522D02*
X171986688Y-55039490D01*
X172117379Y-55289684D02*
X172142993Y-55321097D01*
X124250000Y-55600000D02*
X124290519Y-55598973D01*
X111586688Y-107639490D02*
X111599798Y-107677844D01*
X170348973Y-43059480D02*
X170345895Y-43019065D01*
X154450000Y-20000000D02*
X153050000Y-20000000D01*
X124290519Y-20001026D02*
X124250000Y-20000000D01*
X157017379Y-20310315D02*
X156993389Y-20342985D01*
X172142993Y-85621097D02*
X172170165Y-85651173D01*
X126771084Y-107823171D02*
X126793389Y-107857014D01*
X187450000Y-99550000D02*
X185450000Y-99550000D01*
X109550000Y-77250000D02*
X109550000Y-50950000D01*
X172472155Y-55550201D02*
X172510509Y-55563311D01*
X142469065Y-42304104D02*
X142428857Y-42309225D01*
X155200201Y-107677844D02*
X155213311Y-107639490D01*
X185400201Y-85377844D02*
X185413311Y-85339490D01*
X155001173Y-107979834D02*
X155029834Y-107951173D01*
X135400000Y-94900000D02*
X135400000Y-90400000D01*
X126817379Y-107889684D02*
X126842993Y-107921097D01*
X142197684Y-55518243D02*
X142234515Y-55535166D01*
X154765484Y-20064833D02*
X154727844Y-20049798D01*
X170350000Y-107400000D02*
X170350000Y-103550000D01*
X124602315Y-85818243D02*
X124638241Y-85799477D01*
X124527844Y-55550201D02*
X124565484Y-55535166D01*
X141750000Y-24650000D02*
X140950000Y-24650000D01*
X157569065Y-85895895D02*
X157609480Y-85898973D01*
X124829834Y-55351173D02*
X124857006Y-55321097D01*
X157488961Y-85883623D02*
X157528857Y-85890774D01*
X125045895Y-54880934D02*
X125048973Y-54840519D01*
X139430934Y-94904104D02*
X139390519Y-94901026D01*
X185282620Y-55289684D02*
X185306610Y-55257014D01*
X185107014Y-33156610D02*
X185139684Y-33132620D01*
X142092985Y-33156610D02*
X142126828Y-33178915D01*
X157042993Y-85621097D02*
X157070165Y-85651173D01*
X171959225Y-85221142D02*
X171966376Y-85261038D01*
X124857006Y-42578902D02*
X124829834Y-42548826D01*
X127061758Y-55499477D02*
X127097684Y-55518243D01*
X184730934Y-42304104D02*
X184690519Y-42301026D01*
X122800000Y-55600000D02*
X124250000Y-55600000D01*
X155029834Y-95148826D02*
X155001173Y-95120165D01*
X111892985Y-108056610D02*
X111926828Y-108078915D01*
X172292985Y-42443389D02*
X172260315Y-42467379D01*
X111614833Y-95384515D02*
X111599798Y-95422155D01*
X126659225Y-85221142D02*
X126666376Y-85261038D01*
X171954104Y-73319065D02*
X171951026Y-73359480D01*
X124450522Y-42325538D02*
X124411038Y-42316376D01*
X125000201Y-55077844D02*
X125013311Y-55039490D01*
X156931756Y-32852315D02*
X156950522Y-32888241D01*
X184965484Y-85835166D02*
X185002315Y-85818243D01*
X112269065Y-20004104D02*
X112228857Y-20009225D01*
X185445895Y-85180934D02*
X185448973Y-85140519D01*
X170071097Y-85707006D02*
X170101173Y-85679834D01*
X171959225Y-20678857D02*
X171954104Y-20719065D01*
X185448973Y-54840519D02*
X185450000Y-54800000D01*
X170206610Y-72942985D02*
X170182620Y-72910315D01*
X185282620Y-107889684D02*
X185306610Y-107857014D01*
X185229834Y-85651173D02*
X185257006Y-85621097D01*
X170157006Y-85621097D02*
X170182620Y-85589684D01*
X169550000Y-42300000D02*
X165600000Y-42300000D01*
X124638241Y-20100522D02*
X124602315Y-20081756D01*
X126651026Y-20759480D02*
X126650000Y-20800000D01*
X157070165Y-95148826D02*
X157042993Y-95178902D01*
X155250000Y-24650000D02*
X155250000Y-20800000D01*
X170324461Y-20599477D02*
X170313311Y-20560509D01*
X139550522Y-72625538D02*
X139511038Y-72616376D01*
X169630934Y-33295895D02*
X169630934Y-33295895D01*
X154971097Y-42492993D02*
X154939684Y-42467379D01*
X184811038Y-94916376D02*
X184771142Y-94909225D01*
X170333623Y-32661038D02*
X170340774Y-32621142D01*
X112228857Y-42309225D02*
X112188961Y-42316376D01*
X172628857Y-55590774D02*
X172669065Y-55595895D01*
X112350000Y-33300000D02*
X116300000Y-33300000D01*
X139839684Y-85732620D02*
X139871097Y-85707006D01*
X185349477Y-73011758D02*
X185328915Y-72976828D01*
X111554104Y-73319065D02*
X111551026Y-73359480D01*
X172260315Y-42467379D02*
X172228902Y-42492993D01*
X139839684Y-33132620D02*
X139871097Y-33107006D01*
X127210509Y-108163311D02*
X127249477Y-108174461D01*
X141998826Y-72820165D02*
X141970165Y-72848826D01*
X168100000Y-106150000D02*
X168100000Y-108200000D01*
X141942993Y-107921097D02*
X141970165Y-107951173D01*
X131400000Y-85900000D02*
X131400000Y-90400000D01*
X109550000Y-20000000D02*
X104550000Y-20000000D01*
X184850522Y-108174461D02*
X184889490Y-108163311D01*
X111798826Y-72820165D02*
X111770165Y-72848826D01*
X111828902Y-108007006D02*
X111860315Y-108032620D01*
X185385166Y-107715484D02*
X185400201Y-107677844D01*
X111961758Y-108099477D02*
X111997684Y-108118243D01*
X111631756Y-20447684D02*
X111614833Y-20484515D01*
X125013311Y-85339490D02*
X125024461Y-85300522D01*
X155240774Y-107521142D02*
X155245895Y-107480934D01*
X146500000Y-94900000D02*
X142550000Y-94900000D01*
X126714833Y-42784515D02*
X126699798Y-42822155D01*
X124450522Y-55574461D02*
X124489490Y-55563311D01*
X172292985Y-95043389D02*
X172260315Y-95067379D01*
X140133623Y-107561038D02*
X140140774Y-107521142D01*
X124829834Y-72848826D02*
X124801173Y-72820165D01*
X172397684Y-42381756D02*
X172361758Y-42400522D01*
X112188961Y-85883623D02*
X112228857Y-85890774D01*
X159050000Y-55600000D02*
X159050000Y-53550000D01*
X169938241Y-85799477D02*
X169973171Y-85778915D01*
X169973171Y-20121084D02*
X169938241Y-20100522D01*
X154838241Y-85799477D02*
X154873171Y-85778915D01*
X187450000Y-103550000D02*
X187450000Y-108200000D01*
X142469065Y-72604104D02*
X142428857Y-72609225D01*
X140124461Y-55000522D02*
X140133623Y-54961038D01*
X154450000Y-85900000D02*
X154490519Y-85898973D01*
X155168243Y-73047684D02*
X155149477Y-73011758D01*
X155057006Y-72878902D02*
X155029834Y-72848826D01*
X171999798Y-95422155D02*
X171986688Y-95460509D01*
X126650000Y-85100000D02*
X126651026Y-85140519D01*
X156850000Y-81250000D02*
X156850000Y-85100000D01*
X140100201Y-32777844D02*
X140113311Y-32739490D01*
X169973171Y-72721084D02*
X169938241Y-72700522D01*
X111997684Y-42381756D02*
X111961758Y-42400522D01*
X139773171Y-42421084D02*
X139738241Y-42400522D01*
X124411038Y-108183623D02*
X124450522Y-108174461D01*
X157261758Y-20100522D02*
X157226828Y-20121084D01*
X111559225Y-85221142D02*
X111566376Y-85261038D01*
X141831756Y-20447684D02*
X141814833Y-20484515D01*
X124968243Y-32852315D02*
X124985166Y-32815484D01*
X185038241Y-55499477D02*
X185073171Y-55478915D01*
X126793389Y-95242985D02*
X126771084Y-95276828D01*
X185002315Y-42381756D02*
X184965484Y-42364833D01*
X157042993Y-55321097D02*
X157070165Y-55351173D01*
X171150000Y-103550000D02*
X171950000Y-103550000D01*
X124968243Y-20447684D02*
X124949477Y-20411758D01*
X185368243Y-32852315D02*
X185385166Y-32815484D01*
X124290519Y-85898973D02*
X124330934Y-85895895D01*
X154530934Y-108195895D02*
X154571142Y-108190774D01*
X185257006Y-20278902D02*
X185229834Y-20248826D01*
X124673171Y-72721084D02*
X124638241Y-72700522D01*
X142428857Y-42309225D02*
X142388961Y-42316376D01*
X141850522Y-42711758D02*
X141831756Y-42747684D01*
X142310509Y-33263311D02*
X142349477Y-33274461D01*
X126731756Y-20447684D02*
X126714833Y-20484515D01*
X172093389Y-85557014D02*
X172117379Y-85589684D01*
X113750000Y-55600000D02*
X113750000Y-53550000D01*
X137900000Y-53550000D02*
X137900000Y-55600000D01*
X157226828Y-20121084D02*
X157192985Y-20143389D01*
X124906610Y-42642985D02*
X124882620Y-42610315D01*
X169902315Y-94981756D02*
X169865484Y-94964833D01*
X184889490Y-20036688D02*
X184850522Y-20025538D01*
X169550000Y-72600000D02*
X168150000Y-72600000D01*
X156931756Y-107752315D02*
X156950522Y-107788241D01*
X139390519Y-33298973D02*
X139430934Y-33295895D01*
X128850000Y-55600000D02*
X128850000Y-53550000D01*
X127409480Y-108198973D02*
X127450000Y-108200000D01*
X169902315Y-72681756D02*
X169865484Y-72664833D01*
X111551026Y-43059480D02*
X111550000Y-43100000D01*
X112350000Y-55600000D02*
X113750000Y-55600000D01*
X111693389Y-95242985D02*
X111671084Y-95276828D01*
X139471142Y-94909225D02*
X139430934Y-94904104D01*
X165600000Y-53550000D02*
X168100000Y-53550000D01*
X126928902Y-20192993D02*
X126898826Y-20220165D01*
X156886688Y-85339490D02*
X156899798Y-85377844D01*
X172228902Y-42492993D02*
X172198826Y-42520165D01*
X140148973Y-54840519D02*
X140150000Y-54800000D01*
X112350000Y-94900000D02*
X112309480Y-94901026D01*
X111892985Y-55456610D02*
X111926828Y-55478915D01*
X144000000Y-22050000D02*
X144000000Y-20000000D01*
X139665484Y-55535166D02*
X139702315Y-55518243D01*
X126928902Y-42492993D02*
X126898826Y-42520165D01*
X154571142Y-72609225D02*
X154530934Y-72604104D01*
X172472155Y-42349798D02*
X172434515Y-42364833D01*
X126651026Y-95659480D02*
X126650000Y-95700000D01*
X185229834Y-33051173D02*
X185257006Y-33021097D01*
X156859225Y-32621142D02*
X156866376Y-32661038D01*
X172014833Y-42784515D02*
X171999798Y-42822155D01*
X157410509Y-20036688D02*
X157372155Y-20049798D01*
X139738241Y-72700522D02*
X139702315Y-72681756D01*
X140049477Y-95311758D02*
X140028915Y-95276828D01*
X185424461Y-32700522D02*
X185433623Y-32661038D01*
X124707014Y-55456610D02*
X124739684Y-55432620D01*
X157650000Y-33300000D02*
X161600000Y-33300000D01*
X124707014Y-20143389D02*
X124673171Y-20121084D01*
X169827844Y-85850201D02*
X169865484Y-85835166D01*
X155250000Y-20800000D02*
X155248973Y-20759480D01*
X185073171Y-42421084D02*
X185038241Y-42400522D01*
X157488961Y-33283623D02*
X157528857Y-33290774D01*
X171950000Y-107400000D02*
X171951026Y-107440519D01*
X156950522Y-73011758D02*
X156931756Y-73047684D01*
X155250000Y-54800000D02*
X155250000Y-50950000D01*
X170285166Y-20484515D02*
X170268243Y-20447684D01*
X111997684Y-55518243D02*
X112034515Y-55535166D01*
X172142993Y-55321097D02*
X172170165Y-55351173D01*
X139702315Y-55518243D02*
X139738241Y-55499477D01*
X157261758Y-95000522D02*
X157226828Y-95021084D01*
X169865484Y-55535166D02*
X169902315Y-55518243D01*
X153050000Y-22050000D02*
X144000000Y-22050000D01*
X127172155Y-94949798D02*
X127134515Y-94964833D01*
X154765484Y-85835166D02*
X154802315Y-85818243D01*
X154873171Y-72721084D02*
X154838241Y-72700522D01*
X126750522Y-32888241D02*
X126771084Y-32923171D01*
X184650000Y-33300000D02*
X184690519Y-33298973D01*
X155240774Y-95578857D02*
X155233623Y-95538961D01*
X141751026Y-85140519D02*
X141754104Y-85180934D01*
X157192985Y-33156610D02*
X157226828Y-33178915D01*
X128900000Y-72600000D02*
X127450000Y-72600000D01*
X146500000Y-85900000D02*
X146500000Y-90400000D01*
X125024461Y-107600522D02*
X125033623Y-107561038D01*
X172292985Y-108056610D02*
X172326828Y-108078915D01*
X112072155Y-72649798D02*
X112034515Y-72664833D01*
X157128902Y-108007006D02*
X157160315Y-108032620D01*
X184730934Y-94904104D02*
X184690519Y-94901026D01*
X111550000Y-43100000D02*
X111550000Y-46950000D01*
X111614833Y-85415484D02*
X111631756Y-85452315D01*
X142509480Y-85898973D02*
X142550000Y-85900000D01*
X184771142Y-20009225D02*
X184730934Y-20004104D01*
X154727844Y-33250201D02*
X154765484Y-33235166D01*
X111631756Y-95347684D02*
X111614833Y-95384515D01*
X170324461Y-95499477D02*
X170313311Y-95460509D01*
X124739684Y-20167379D02*
X124707014Y-20143389D01*
X155213311Y-20560509D02*
X155200201Y-20522155D01*
X139390519Y-72601026D02*
X139350000Y-72600000D01*
X140950000Y-28650000D02*
X141750000Y-28650000D01*
X141970165Y-55351173D02*
X141998826Y-55379834D01*
X157449477Y-20025538D02*
X157410509Y-20036688D01*
X170007014Y-95043389D02*
X169973171Y-95021084D01*
X125050000Y-107400000D02*
X125050000Y-103550000D01*
X141775538Y-107600522D02*
X141786688Y-107639490D01*
X155233623Y-42938961D02*
X155224461Y-42899477D01*
X111997684Y-33218243D02*
X112034515Y-33235166D01*
X109550000Y-103550000D02*
X111550000Y-103550000D01*
X112269065Y-85895895D02*
X112309480Y-85898973D01*
X185328915Y-55223171D02*
X185349477Y-55188241D01*
X126750522Y-73011758D02*
X126731756Y-73047684D01*
X184690519Y-85898973D02*
X184730934Y-85895895D01*
X142310509Y-85863311D02*
X142349477Y-85874461D01*
X111828902Y-55407006D02*
X111860315Y-55432620D01*
X140148973Y-107440519D02*
X140150000Y-107400000D01*
X171975538Y-20599477D02*
X171966376Y-20638961D01*
X141750000Y-43100000D02*
X141750000Y-46950000D01*
X157410509Y-85863311D02*
X157449477Y-85874461D01*
X111770165Y-55351173D02*
X111798826Y-55379834D01*
X185349477Y-42711758D02*
X185328915Y-42676828D01*
X124638241Y-85799477D02*
X124673171Y-85778915D01*
X112034515Y-94964833D02*
X111997684Y-94981756D01*
X126731756Y-55152315D02*
X126750522Y-55188241D01*
X111798826Y-107979834D02*
X111828902Y-108007006D01*
X142550000Y-72600000D02*
X142509480Y-72601026D01*
X124801173Y-33079834D02*
X124829834Y-33051173D01*
X140085166Y-55115484D02*
X140100201Y-55077844D01*
X141942993Y-85621097D02*
X141970165Y-85651173D01*
X154650522Y-72625538D02*
X154611038Y-72616376D01*
X124801173Y-95120165D02*
X124771097Y-95092993D01*
X139871097Y-33107006D02*
X139901173Y-33079834D01*
X171999798Y-107677844D02*
X172014833Y-107715484D01*
X155185166Y-42784515D02*
X155168243Y-42747684D01*
X157569065Y-55595895D02*
X157609480Y-55598973D01*
X157017379Y-107889684D02*
X157042993Y-107921097D01*
X156931756Y-73047684D02*
X156914833Y-73084515D01*
X171986688Y-20560509D02*
X171975538Y-20599477D01*
X124565484Y-20064833D02*
X124527844Y-20049798D01*
X170348973Y-85140519D02*
X170350000Y-85100000D01*
X172228902Y-20192993D02*
X172198826Y-20220165D01*
X139982620Y-95210315D02*
X139957006Y-95178902D01*
X169711038Y-108183623D02*
X169750522Y-108174461D01*
X172669065Y-108195895D02*
X172709480Y-108198973D01*
X157569065Y-33295895D02*
X157609480Y-33298973D01*
X154530934Y-72604104D02*
X154490519Y-72601026D01*
X156866376Y-107561038D02*
X156875538Y-107600522D01*
X141814833Y-42784515D02*
X141799798Y-42822155D01*
X124527844Y-94949798D02*
X124489490Y-94936688D01*
X146500000Y-90400000D02*
X146500000Y-94900000D01*
X184730934Y-55595895D02*
X184771142Y-55590774D01*
X172170165Y-33051173D02*
X172198826Y-33079834D01*
X185139684Y-42467379D02*
X185107014Y-42443389D01*
X172434515Y-108135166D02*
X172472155Y-108150201D01*
X127450000Y-33300000D02*
X131400000Y-33300000D01*
X157192985Y-20143389D02*
X157160315Y-20167379D01*
X154611038Y-108183623D02*
X154650522Y-108174461D01*
X157334515Y-42364833D02*
X157297684Y-42381756D01*
X154530934Y-33295895D02*
X154571142Y-33290774D01*
X127026828Y-42421084D02*
X126992985Y-42443389D01*
X169590519Y-42301026D02*
X169550000Y-42300000D01*
X127026828Y-108078915D02*
X127061758Y-108099477D01*
X124565484Y-33235166D02*
X124602315Y-33218243D01*
X172260315Y-85732620D02*
X172292985Y-85756610D01*
X125024461Y-55000522D02*
X125033623Y-54961038D01*
X127172155Y-20049798D02*
X127134515Y-20064833D01*
X111550000Y-50950000D02*
X111550000Y-54800000D01*
X170300201Y-42822155D02*
X170285166Y-42784515D01*
X112188961Y-94916376D02*
X112149477Y-94925538D01*
X171150000Y-99550000D02*
X170350000Y-99550000D01*
X172093389Y-72942985D02*
X172071084Y-72976828D01*
X125033623Y-42938961D02*
X125033623Y-42938961D01*
X157261758Y-42400522D02*
X157226828Y-42421084D01*
X125850000Y-50950000D02*
X126650000Y-50950000D01*
X172510509Y-33263311D02*
X172549477Y-33274461D01*
X124707014Y-108056610D02*
X124739684Y-108032620D01*
X124371142Y-108190774D02*
X124411038Y-108183623D01*
X172669065Y-20004104D02*
X172628857Y-20009225D01*
X111650522Y-73011758D02*
X111631756Y-73047684D01*
X170129834Y-107951173D02*
X170157006Y-107921097D01*
X111860315Y-108032620D02*
X111892985Y-108056610D01*
X124527844Y-85850201D02*
X124565484Y-85835166D01*
X155185166Y-73084515D02*
X155168243Y-73047684D01*
X157098826Y-20220165D02*
X157070165Y-20248826D01*
X140133623Y-54961038D02*
X140140774Y-54921142D01*
X154939684Y-42467379D02*
X154907014Y-42443389D01*
X171954104Y-43019065D02*
X171951026Y-43059480D01*
X142060315Y-20167379D02*
X142028902Y-20192993D01*
X124771097Y-85707006D02*
X124801173Y-85679834D01*
X185257006Y-42578902D02*
X185229834Y-42548826D01*
X172434515Y-94964833D02*
X172397684Y-94981756D01*
X157226828Y-42421084D02*
X157192985Y-42443389D01*
X111554104Y-95619065D02*
X111551026Y-95659480D01*
X185385166Y-32815484D02*
X185400201Y-32777844D01*
X171950000Y-85100000D02*
X171951026Y-85140519D01*
X124829834Y-107951173D02*
X124857006Y-107921097D01*
X135400000Y-74650000D02*
X128900000Y-74650000D01*
X170071097Y-20192993D02*
X170039684Y-20167379D01*
X112110509Y-72636688D02*
X112072155Y-72649798D01*
X112072155Y-55550201D02*
X112110509Y-55563311D01*
X154802315Y-108118243D02*
X154838241Y-108099477D01*
X140124461Y-95499477D02*
X140113311Y-95460509D01*
X124857006Y-55321097D02*
X124882620Y-55289684D01*
X128900000Y-22050000D02*
X128900000Y-20000000D01*
X172510509Y-42336688D02*
X172472155Y-42349798D01*
X185450000Y-50950000D02*
X187450000Y-50950000D01*
X170206610Y-20342985D02*
X170182620Y-20310315D01*
X185349477Y-85488241D02*
X185368243Y-85452315D01*
X156850000Y-24650000D02*
X156050000Y-24650000D01*
X169671142Y-55590774D02*
X169711038Y-55583623D01*
X111717379Y-95210315D02*
X111693389Y-95242985D01*
X127134515Y-55535166D02*
X127172155Y-55550201D01*
X169671142Y-94909225D02*
X169630934Y-94904104D01*
X169938241Y-42400522D02*
X169902315Y-42381756D01*
X153050000Y-20000000D02*
X153050000Y-22050000D01*
X185349477Y-107788241D02*
X185368243Y-107752315D01*
X111892985Y-85756610D02*
X111926828Y-85778915D01*
X140150000Y-77250000D02*
X140150000Y-73400000D01*
X109550000Y-50950000D02*
X111550000Y-50950000D01*
X170268243Y-20447684D02*
X170249477Y-20411758D01*
X141775538Y-42899477D02*
X141766376Y-42938961D01*
X126654104Y-32580934D02*
X126659225Y-32621142D01*
X170101173Y-55379834D02*
X170129834Y-55351173D01*
X127288961Y-33283623D02*
X127328857Y-33290774D01*
X156886688Y-107639490D02*
X156899798Y-107677844D01*
X156971084Y-55223171D02*
X156993389Y-55257014D01*
X141998826Y-55379834D02*
X142028902Y-55407006D01*
X156914833Y-55115484D02*
X156931756Y-55152315D01*
X172628857Y-85890774D02*
X172669065Y-85895895D01*
X111693389Y-55257014D02*
X111717379Y-55289684D01*
X140145895Y-32580934D02*
X140148973Y-32540519D01*
X170285166Y-32815484D02*
X170300201Y-32777844D01*
X185445895Y-107480934D02*
X185448973Y-107440519D01*
X170333623Y-85261038D02*
X170340774Y-85221142D01*
X127210509Y-20036688D02*
X127172155Y-20049798D01*
X140150000Y-50950000D02*
X140950000Y-50950000D01*
X169630934Y-55595895D02*
X169671142Y-55590774D01*
X140113311Y-95460509D02*
X140100201Y-95422155D01*
X169938241Y-33199477D02*
X169973171Y-33178915D01*
X140150000Y-85100000D02*
X140150000Y-81250000D01*
X155106610Y-32957014D02*
X155128915Y-32923171D01*
X185328915Y-107823171D02*
X185349477Y-107788241D01*
X139390519Y-20001026D02*
X139350000Y-20000000D01*
X140028915Y-42676828D02*
X140006610Y-42642985D01*
X172198826Y-20220165D02*
X172170165Y-20248826D01*
X157334515Y-85835166D02*
X157372155Y-85850201D01*
X154971097Y-108007006D02*
X155001173Y-107979834D01*
X157261758Y-108099477D02*
X157297684Y-108118243D01*
X111575538Y-42899477D02*
X111566376Y-42938961D01*
X172326828Y-108078915D02*
X172361758Y-108099477D01*
X172170165Y-72848826D02*
X172142993Y-72878902D01*
X155224461Y-95499477D02*
X155213311Y-95460509D01*
X174150000Y-108200000D02*
X174150000Y-106150000D01*
X142272155Y-33250201D02*
X142310509Y-33263311D01*
X124968243Y-73047684D02*
X124949477Y-73011758D01*
X183250000Y-20000000D02*
X183250000Y-22050000D01*
X142550000Y-94900000D02*
X142509480Y-94901026D01*
X126651026Y-43059480D02*
X126650000Y-43100000D01*
X124968243Y-107752315D02*
X124985166Y-107715484D01*
X139871097Y-95092993D02*
X139839684Y-95067379D01*
X169711038Y-42316376D02*
X169671142Y-42309225D01*
X185424461Y-85300522D02*
X185433623Y-85261038D01*
X125045895Y-85180934D02*
X125048973Y-85140519D01*
X159100000Y-22050000D02*
X159100000Y-20000000D01*
X185448973Y-43059480D02*
X185445895Y-43019065D01*
X112269065Y-33295895D02*
X112309480Y-33298973D01*
X157098826Y-42520165D02*
X157070165Y-42548826D01*
X170007014Y-33156610D02*
X170039684Y-33132620D01*
X141850522Y-20411758D02*
X141831756Y-20447684D01*
X112188961Y-72616376D02*
X112149477Y-72625538D01*
X157410509Y-108163311D02*
X157449477Y-108174461D01*
X185328915Y-42676828D02*
X185306610Y-42642985D01*
X170350000Y-46950000D02*
X170350000Y-43100000D01*
X155001173Y-55379834D02*
X155029834Y-55351173D01*
X127369065Y-72604104D02*
X127328857Y-72609225D01*
X170007014Y-55456610D02*
X170039684Y-55432620D01*
X142388961Y-33283623D02*
X142428857Y-33290774D01*
X156993389Y-95242985D02*
X156971084Y-95276828D01*
X170039684Y-42467379D02*
X170007014Y-42443389D01*
X128850000Y-53550000D02*
X135400000Y-53550000D01*
X171966376Y-20638961D02*
X171959225Y-20678857D01*
X141831756Y-107752315D02*
X141850522Y-107788241D01*
X139390519Y-42301026D02*
X139350000Y-42300000D01*
X154450000Y-55600000D02*
X154490519Y-55598973D01*
X125033623Y-20638961D02*
X125024461Y-20599477D01*
X170249477Y-42711758D02*
X170228915Y-42676828D01*
X111575538Y-20599477D02*
X111566376Y-20638961D01*
X124411038Y-20016376D02*
X124371142Y-20009225D01*
X172669065Y-42304104D02*
X172628857Y-42309225D01*
X126898826Y-20220165D02*
X126870165Y-20248826D01*
X170268243Y-32852315D02*
X170285166Y-32815484D01*
X140140774Y-42978857D02*
X140133623Y-42938961D01*
X137900000Y-108200000D02*
X139350000Y-108200000D01*
X156971084Y-32923171D02*
X156993389Y-32957014D01*
X157650000Y-42300000D02*
X157609480Y-42301026D01*
X109550000Y-28650000D02*
X111550000Y-28650000D01*
X111671084Y-107823171D02*
X111693389Y-107857014D01*
X159050000Y-108200000D02*
X159050000Y-106150000D01*
X125850000Y-77250000D02*
X125050000Y-77250000D01*
X139702315Y-42381756D02*
X139665484Y-42364833D01*
X154765484Y-94964833D02*
X154727844Y-94949798D01*
X120300000Y-85900000D02*
X124250000Y-85900000D01*
X169938241Y-108099477D02*
X169973171Y-108078915D01*
X141831756Y-73047684D02*
X141814833Y-73084515D01*
X154650522Y-94925538D02*
X154611038Y-94916376D01*
X156993389Y-42642985D02*
X156971084Y-42676828D01*
X125050000Y-54800000D02*
X125050000Y-50950000D01*
X170348973Y-95659480D02*
X170345895Y-95619065D01*
X124565484Y-94964833D02*
X124527844Y-94949798D01*
X154838241Y-55499477D02*
X154873171Y-55478915D01*
X126898826Y-42520165D02*
X126870165Y-42548826D01*
X111575538Y-95499477D02*
X111566376Y-95538961D01*
X111550000Y-54800000D02*
X111551026Y-54840519D01*
X156854104Y-85180934D02*
X156859225Y-85221142D01*
X157528857Y-33290774D02*
X157569065Y-33295895D01*
X172228902Y-95092993D02*
X172198826Y-95120165D01*
X156850000Y-20800000D02*
X156850000Y-24650000D01*
X156886688Y-42860509D02*
X156875538Y-42899477D01*
X139738241Y-42400522D02*
X139702315Y-42381756D01*
X142161758Y-20100522D02*
X142126828Y-20121084D01*
X170182620Y-20310315D02*
X170157006Y-20278902D01*
X155149477Y-20411758D02*
X155128915Y-20376828D01*
X185433623Y-85261038D02*
X185440774Y-85221142D01*
X171975538Y-42899477D02*
X171966376Y-42938961D01*
X135400000Y-53550000D02*
X137900000Y-53550000D01*
X185413311Y-95460509D02*
X185400201Y-95422155D01*
X140145895Y-73319065D02*
X140145895Y-73319065D01*
X185201173Y-85679834D02*
X185229834Y-85651173D01*
X125048973Y-54840519D02*
X125050000Y-54800000D01*
X124371142Y-20009225D02*
X124330934Y-20004104D01*
X140085166Y-73084515D02*
X140068243Y-73047684D01*
X185229834Y-72848826D02*
X185201173Y-72820165D01*
X157449477Y-33274461D02*
X157488961Y-33283623D01*
X157449477Y-85874461D02*
X157488961Y-85883623D01*
X172031756Y-55152315D02*
X172050522Y-55188241D01*
X156899798Y-73122155D02*
X156886688Y-73160509D01*
X172198826Y-33079834D02*
X172228902Y-33107006D01*
X169827844Y-94949798D02*
X169789490Y-94936688D01*
X140140774Y-54921142D02*
X140145895Y-54880934D01*
X153000000Y-55600000D02*
X153000000Y-55600000D01*
X157297684Y-55518243D02*
X157334515Y-55535166D01*
X168100000Y-55600000D02*
X168100000Y-55600000D01*
X185002315Y-85818243D02*
X185038241Y-85799477D01*
X157160315Y-108032620D02*
X157192985Y-108056610D01*
X185229834Y-20248826D02*
X185201173Y-20220165D01*
X185257006Y-72878902D02*
X185229834Y-72848826D01*
X111575538Y-73199477D02*
X111566376Y-73238961D01*
X154450000Y-33300000D02*
X154490519Y-33298973D01*
X112188961Y-33283623D02*
X112228857Y-33290774D01*
X171999798Y-42822155D02*
X171986688Y-42860509D01*
X170071097Y-95092993D02*
X170039684Y-95067379D01*
X157128902Y-33107006D02*
X157160315Y-33132620D01*
X112309480Y-85898973D02*
X112350000Y-85900000D01*
X124411038Y-72616376D02*
X124371142Y-72609225D01*
X157650000Y-108200000D02*
X159050000Y-108200000D01*
X125000201Y-42822155D02*
X124985166Y-42784515D01*
X172510509Y-72636688D02*
X172472155Y-72649798D01*
X170350000Y-32500000D02*
X170350000Y-28650000D01*
X184889490Y-33263311D02*
X184927844Y-33250201D01*
X141917379Y-32989684D02*
X141942993Y-33021097D01*
X124707014Y-95043389D02*
X124673171Y-95021084D01*
X111717379Y-85589684D02*
X111742993Y-85621097D01*
X141759225Y-42978857D02*
X141754104Y-43019065D01*
X169789490Y-42336688D02*
X169750522Y-42325538D01*
X111551026Y-54840519D02*
X111554104Y-54880934D01*
X157297684Y-85818243D02*
X157334515Y-85835166D01*
X169550000Y-108200000D02*
X169590519Y-108198973D01*
X169973171Y-108078915D02*
X170007014Y-108056610D01*
X111770165Y-107951173D02*
X111798826Y-107979834D01*
X139702315Y-72681756D02*
X139665484Y-72664833D01*
X126675538Y-85300522D02*
X126686688Y-85339490D01*
X169827844Y-33250201D02*
X169865484Y-33235166D01*
X156850000Y-54800000D02*
X156851026Y-54840519D01*
X141917379Y-55289684D02*
X141942993Y-55321097D01*
X142060315Y-85732620D02*
X142092985Y-85756610D01*
X170101173Y-72820165D02*
X170071097Y-72792993D01*
X112110509Y-33263311D02*
X112149477Y-33274461D01*
X155240774Y-54921142D02*
X155245895Y-54880934D01*
X111554104Y-20719065D02*
X111551026Y-20759480D01*
X154611038Y-20016376D02*
X154571142Y-20009225D01*
X172292985Y-85756610D02*
X172326828Y-85778915D01*
X124411038Y-42316376D02*
X124371142Y-42309225D01*
X172361758Y-20100522D02*
X172326828Y-20121084D01*
X111828902Y-33107006D02*
X111860315Y-33132620D01*
X109550000Y-108200000D02*
X109550000Y-103550000D01*
X142349477Y-55574461D02*
X142388961Y-55583623D01*
X140140774Y-95578857D02*
X140133623Y-95538961D01*
X159100000Y-20000000D02*
X157650000Y-20000000D01*
X139627844Y-108150201D02*
X139665484Y-108135166D01*
X127369065Y-33295895D02*
X127409480Y-33298973D01*
X156875538Y-107600522D02*
X156886688Y-107639490D01*
X172142993Y-72878902D02*
X172117379Y-72910315D01*
X126992985Y-55456610D02*
X127026828Y-55478915D01*
X172434515Y-42364833D02*
X172397684Y-42381756D01*
X172628857Y-42309225D02*
X172588961Y-42316376D01*
X140150000Y-24650000D02*
X140150000Y-20800000D01*
X126928902Y-95092993D02*
X126898826Y-95120165D01*
X126842993Y-107921097D02*
X126870165Y-107951173D01*
X141750000Y-103550000D02*
X141750000Y-107400000D01*
X146500000Y-33300000D02*
X146500000Y-37800000D01*
X139839684Y-55432620D02*
X139871097Y-55407006D01*
X111575538Y-55000522D02*
X111586688Y-55039490D01*
X124602315Y-20081756D02*
X124565484Y-20064833D01*
X170157006Y-107921097D02*
X170182620Y-107889684D01*
X172031756Y-95347684D02*
X172014833Y-95384515D01*
X141850522Y-85488241D02*
X141871084Y-85523171D01*
X125048973Y-43059480D02*
X125045895Y-43019065D01*
X141871084Y-32923171D02*
X141893389Y-32957014D01*
X112309480Y-42301026D02*
X112269065Y-42304104D01*
X172434515Y-20064833D02*
X172397684Y-20081756D01*
X170228915Y-95276828D02*
X170206610Y-95242985D01*
X161600000Y-33300000D02*
X161600000Y-37800000D01*
X141850522Y-107788241D02*
X141871084Y-107823171D01*
X155029834Y-20248826D02*
X155001173Y-20220165D01*
X124565484Y-55535166D02*
X124602315Y-55518243D01*
X142126828Y-72721084D02*
X142092985Y-72743389D01*
X111961758Y-85799477D02*
X111997684Y-85818243D01*
X141942993Y-42578902D02*
X141917379Y-42610315D01*
X125024461Y-73199477D02*
X125013311Y-73160509D01*
X156914833Y-95384515D02*
X156899798Y-95422155D01*
X154450000Y-42300000D02*
X150500000Y-42300000D01*
X139871097Y-20192993D02*
X139839684Y-20167379D01*
X169550000Y-94900000D02*
X165600000Y-94900000D01*
X137950000Y-72600000D02*
X137950000Y-74650000D01*
X170350000Y-99550000D02*
X170350000Y-95700000D01*
X141871084Y-72976828D02*
X141850522Y-73011758D01*
X111550000Y-73400000D02*
X111550000Y-77250000D01*
X155057006Y-33021097D02*
X155082620Y-32989684D01*
X126650000Y-107400000D02*
X126651026Y-107440519D01*
X180700000Y-94900000D02*
X180700000Y-90400000D01*
X141799798Y-85377844D02*
X141814833Y-85415484D01*
X154490519Y-94901026D02*
X154450000Y-94900000D01*
X171999798Y-20522155D02*
X171986688Y-20560509D01*
X111599798Y-20522155D02*
X111586688Y-20560509D01*
X140150000Y-46950000D02*
X140150000Y-43100000D01*
X156866376Y-42938961D02*
X156859225Y-42978857D01*
X126992985Y-20143389D02*
X126960315Y-20167379D01*
X140068243Y-107752315D02*
X140085166Y-107715484D01*
X127328857Y-108190774D02*
X127369065Y-108195895D01*
X169550000Y-20000000D02*
X168150000Y-20000000D01*
X154689490Y-20036688D02*
X154650522Y-20025538D01*
X157569065Y-108195895D02*
X157609480Y-108198973D01*
X141850522Y-95311758D02*
X141831756Y-95347684D01*
X141750000Y-85100000D02*
X141751026Y-85140519D01*
X126898826Y-95120165D02*
X126870165Y-95148826D01*
X155248973Y-20759480D02*
X155245895Y-20719065D01*
X139390519Y-85898973D02*
X139430934Y-85895895D01*
X169973171Y-33178915D02*
X170007014Y-33156610D01*
X111892985Y-42443389D02*
X111860315Y-42467379D01*
X126817379Y-85589684D02*
X126842993Y-85621097D01*
X155250000Y-50950000D02*
X156050000Y-50950000D01*
X154907014Y-108056610D02*
X154939684Y-108032620D01*
X154802315Y-85818243D02*
X154838241Y-85799477D01*
X111599798Y-107677844D02*
X111614833Y-107715484D01*
X170285166Y-107715484D02*
X170300201Y-107677844D01*
X127409480Y-72601026D02*
X127369065Y-72604104D01*
X172750000Y-55600000D02*
X174150000Y-55600000D01*
X144000000Y-20000000D02*
X142550000Y-20000000D01*
X124882620Y-32989684D02*
X124906610Y-32957014D01*
X142388961Y-42316376D02*
X142349477Y-42325538D01*
X168150000Y-22050000D02*
X159100000Y-22050000D01*
X116300000Y-85900000D02*
X116300000Y-90400000D01*
X185413311Y-107639490D02*
X185424461Y-107600522D01*
X141799798Y-95422155D02*
X141786688Y-95460509D01*
X111559225Y-32621142D02*
X111566376Y-32661038D01*
X170313311Y-95460509D02*
X170300201Y-95422155D01*
X126898826Y-33079834D02*
X126928902Y-33107006D01*
X154765484Y-42364833D02*
X154727844Y-42349798D01*
X141871084Y-107823171D02*
X141893389Y-107857014D01*
X172709480Y-33298973D02*
X172750000Y-33300000D01*
X184889490Y-108163311D02*
X184927844Y-108150201D01*
X104550000Y-108200000D02*
X109550000Y-108200000D01*
X183200000Y-108200000D02*
X184650000Y-108200000D01*
X127210509Y-85863311D02*
X127249477Y-85874461D01*
X171975538Y-73199477D02*
X171966376Y-73238961D01*
X124801173Y-72820165D02*
X124771097Y-72792993D01*
X139901173Y-107979834D02*
X139929834Y-107951173D01*
X169750522Y-94925538D02*
X169711038Y-94916376D01*
X185424461Y-55000522D02*
X185433623Y-54961038D01*
X155245895Y-85180934D02*
X155248973Y-85140519D01*
X126659225Y-42978857D02*
X126654104Y-43019065D01*
X111961758Y-72700522D02*
X111926828Y-72721084D01*
X155213311Y-55039490D02*
X155224461Y-55000522D01*
X142028902Y-95092993D02*
X141998826Y-95120165D01*
X124949477Y-55188241D02*
X124968243Y-55152315D01*
X142126828Y-42421084D02*
X142092985Y-42443389D01*
X155168243Y-20447684D02*
X155149477Y-20411758D01*
X120300000Y-90400000D02*
X120300000Y-85900000D01*
X142509480Y-94901026D02*
X142469065Y-94904104D01*
X127288961Y-20016376D02*
X127249477Y-20025538D01*
X172709480Y-108198973D02*
X172750000Y-108200000D01*
X140100201Y-85377844D02*
X140113311Y-85339490D01*
X111614833Y-32815484D02*
X111631756Y-32852315D01*
X111614833Y-20484515D02*
X111599798Y-20522155D01*
X140006610Y-55257014D02*
X140028915Y-55223171D01*
X112072155Y-94949798D02*
X112034515Y-94964833D01*
X141775538Y-85300522D02*
X141786688Y-85339490D01*
X125033623Y-32661038D02*
X125040774Y-32621142D01*
X185002315Y-72681756D02*
X184965484Y-72664833D01*
X139589490Y-72636688D02*
X139550522Y-72625538D01*
X126870165Y-72848826D02*
X126842993Y-72878902D01*
X170071097Y-55407006D02*
X170101173Y-55379834D01*
X112188961Y-42316376D02*
X112149477Y-42325538D01*
X170101173Y-20220165D02*
X170071097Y-20192993D01*
X126654104Y-73319065D02*
X126651026Y-73359480D01*
X124673171Y-33178915D02*
X124707014Y-33156610D01*
X139550522Y-33274461D02*
X139589490Y-33263311D01*
X172117379Y-72910315D02*
X172093389Y-72942985D01*
X155248973Y-73359480D02*
X155245895Y-73319065D01*
X156899798Y-42822155D02*
X156886688Y-42860509D01*
X157372155Y-33250201D02*
X157410509Y-33263311D01*
X157160315Y-55432620D02*
X157192985Y-55456610D01*
X170340774Y-54921142D02*
X170345895Y-54880934D01*
X139807014Y-55456610D02*
X139839684Y-55432620D01*
X184850522Y-33274461D02*
X184889490Y-33263311D01*
X157528857Y-108190774D02*
X157569065Y-108195895D01*
X169550000Y-55600000D02*
X169590519Y-55598973D01*
X111554104Y-85180934D02*
X111559225Y-85221142D01*
X156854104Y-107480934D02*
X156859225Y-107521142D01*
X139471142Y-42309225D02*
X139430934Y-42304104D01*
X174150000Y-53550000D02*
X180700000Y-53550000D01*
X139929834Y-85651173D02*
X139957006Y-85621097D01*
X140028915Y-107823171D02*
X140049477Y-107788241D01*
X155149477Y-95311758D02*
X155128915Y-95276828D01*
X141998826Y-20220165D02*
X141970165Y-20248826D01*
X126771084Y-20376828D02*
X126750522Y-20411758D01*
X126960315Y-20167379D02*
X126928902Y-20192993D01*
X156914833Y-20484515D02*
X156899798Y-20522155D01*
X139839684Y-20167379D02*
X139807014Y-20143389D01*
X139665484Y-42364833D02*
X139627844Y-42349798D01*
X154650522Y-85874461D02*
X154689490Y-85863311D01*
X142469065Y-20004104D02*
X142428857Y-20009225D01*
X156859225Y-107521142D02*
X156866376Y-107561038D01*
X124250000Y-72600000D02*
X122850000Y-72600000D01*
X150500000Y-90400000D02*
X150500000Y-85900000D01*
X142550000Y-33300000D02*
X146500000Y-33300000D01*
X176700000Y-94900000D02*
X172750000Y-94900000D01*
X141759225Y-85221142D02*
X141766376Y-85261038D01*
X124857006Y-107921097D02*
X124882620Y-107889684D01*
X122850000Y-20000000D02*
X122850000Y-22050000D01*
X139901173Y-85679834D02*
X139929834Y-85651173D01*
X157569065Y-94904104D02*
X157528857Y-94909225D01*
X140145895Y-85180934D02*
X140148973Y-85140519D01*
X141998826Y-107979834D02*
X142028902Y-108007006D01*
X127172155Y-42349798D02*
X127134515Y-42364833D01*
X156899798Y-32777844D02*
X156914833Y-32815484D01*
X111798826Y-95120165D02*
X111770165Y-95148826D01*
X155213311Y-42860509D02*
X155200201Y-42822155D01*
X155029834Y-42548826D02*
X155001173Y-42520165D01*
X112309480Y-55598973D02*
X112350000Y-55600000D01*
X172050522Y-32888241D02*
X172071084Y-32923171D01*
X172260315Y-55432620D02*
X172292985Y-55456610D01*
X139929834Y-107951173D02*
X139957006Y-107921097D01*
X142428857Y-108190774D02*
X142469065Y-108195895D01*
X184811038Y-85883623D02*
X184850522Y-85874461D01*
X140145895Y-73319065D02*
X140140774Y-73278857D01*
X140049477Y-85488241D02*
X140068243Y-85452315D01*
X172292985Y-20143389D02*
X172260315Y-20167379D01*
X156950522Y-20411758D02*
X156931756Y-20447684D01*
X184730934Y-72604104D02*
X184690519Y-72601026D01*
X124602315Y-72681756D02*
X124565484Y-72664833D01*
X142509480Y-20001026D02*
X142469065Y-20004104D01*
X112149477Y-33274461D02*
X112188961Y-33283623D01*
X142197684Y-85818243D02*
X142234515Y-85835166D01*
X139550522Y-42325538D02*
X139511038Y-42316376D01*
X126654104Y-43019065D02*
X126651026Y-43059480D01*
X140148973Y-85140519D02*
X140150000Y-85100000D01*
X112309480Y-108198973D02*
X112350000Y-108200000D01*
X156914833Y-107715484D02*
X156931756Y-107752315D01*
X141814833Y-32815484D02*
X141831756Y-32852315D01*
X154939684Y-20167379D02*
X154907014Y-20143389D01*
X168100000Y-108200000D02*
X169550000Y-108200000D01*
X154571142Y-55590774D02*
X154611038Y-55583623D01*
X124968243Y-85452315D02*
X124985166Y-85415484D01*
X140133623Y-20638961D02*
X140124461Y-20599477D01*
X185282620Y-20310315D02*
X185257006Y-20278902D01*
X126686688Y-20560509D02*
X126675538Y-20599477D01*
X124673171Y-42421084D02*
X124638241Y-42400522D01*
X126666376Y-73238961D02*
X126659225Y-73278857D01*
X142126828Y-85778915D02*
X142161758Y-85799477D01*
X111554104Y-43019065D02*
X111551026Y-43059480D01*
X124739684Y-108032620D02*
X124771097Y-108007006D01*
X112269065Y-94904104D02*
X112228857Y-94909225D01*
X141871084Y-20376828D02*
X141850522Y-20411758D01*
X155213311Y-95460509D02*
X155200201Y-95422155D01*
X124673171Y-95021084D02*
X124638241Y-95000522D01*
X142060315Y-55432620D02*
X142092985Y-55456610D01*
X172472155Y-33250201D02*
X172510509Y-33263311D01*
X172170165Y-20248826D02*
X172142993Y-20278902D01*
X157334515Y-55535166D02*
X157372155Y-55550201D01*
X126870165Y-55351173D02*
X126898826Y-55379834D01*
X170345895Y-107480934D02*
X170348973Y-107440519D01*
X155001173Y-20220165D02*
X154971097Y-20192993D01*
X169711038Y-72616376D02*
X169671142Y-72609225D01*
X127369065Y-42304104D02*
X127328857Y-42309225D01*
X154611038Y-85883623D02*
X154650522Y-85874461D01*
X125040774Y-95578857D02*
X125033623Y-95538961D01*
X155029834Y-33051173D02*
X155057006Y-33021097D01*
X170101173Y-33079834D02*
X170129834Y-33051173D01*
X172093389Y-32957014D02*
X172117379Y-32989684D01*
X139839684Y-42467379D02*
X139807014Y-42443389D01*
X155149477Y-42711758D02*
X155128915Y-42676828D01*
X139929834Y-95148826D02*
X139901173Y-95120165D01*
X153000000Y-55600000D02*
X154450000Y-55600000D01*
X183250000Y-72600000D02*
X183250000Y-74650000D01*
X172031756Y-107752315D02*
X172050522Y-107788241D01*
X126992985Y-95043389D02*
X126960315Y-95067379D01*
X127450000Y-20000000D02*
X127409480Y-20001026D01*
X111550000Y-32500000D02*
X111551026Y-32540519D01*
X142310509Y-55563311D02*
X142349477Y-55574461D01*
X185413311Y-20560509D02*
X185400201Y-20522155D01*
X171966376Y-85261038D02*
X171975538Y-85300522D01*
X154873171Y-95021084D02*
X154838241Y-95000522D01*
X139589490Y-94936688D02*
X139550522Y-94925538D01*
X155224461Y-32700522D02*
X155233623Y-32661038D01*
X169789490Y-33263311D02*
X169827844Y-33250201D01*
X125050000Y-99550000D02*
X125050000Y-95700000D01*
X185450000Y-85100000D02*
X185450000Y-81250000D01*
X157410509Y-42336688D02*
X157372155Y-42349798D01*
X154765484Y-33235166D02*
X154802315Y-33218243D01*
X141917379Y-95210315D02*
X141893389Y-95242985D01*
X184965484Y-72664833D02*
X184927844Y-72649798D01*
X142272155Y-72649798D02*
X142234515Y-72664833D01*
X184965484Y-33235166D02*
X185002315Y-33218243D01*
X128900000Y-20000000D02*
X127450000Y-20000000D01*
X184690519Y-20001026D02*
X184650000Y-20000000D01*
X185107014Y-42443389D02*
X185073171Y-42421084D01*
X141775538Y-73199477D02*
X141766376Y-73238961D01*
X126992985Y-108056610D02*
X127026828Y-108078915D01*
X126817379Y-95210315D02*
X126793389Y-95242985D01*
X185368243Y-107752315D02*
X185385166Y-107715484D01*
X170228915Y-32923171D02*
X170249477Y-32888241D01*
X142469065Y-108195895D02*
X142509480Y-108198973D01*
X156886688Y-73160509D02*
X156875538Y-73199477D01*
X185201173Y-20220165D02*
X185171097Y-20192993D01*
X125033623Y-54961038D02*
X125040774Y-54921142D01*
X185139684Y-95067379D02*
X185107014Y-95043389D01*
X112034515Y-108135166D02*
X112072155Y-108150201D01*
X111650522Y-107788241D02*
X111671084Y-107823171D01*
X170228915Y-72976828D02*
X170206610Y-72942985D01*
X172031756Y-42747684D02*
X172014833Y-42784515D01*
X170345895Y-95619065D02*
X170340774Y-95578857D01*
X125033623Y-85261038D02*
X125040774Y-85221142D01*
X150500000Y-42300000D02*
X150500000Y-37800000D01*
X142469065Y-55595895D02*
X142509480Y-55598973D01*
X126842993Y-33021097D02*
X126870165Y-33051173D01*
X141750000Y-77250000D02*
X140950000Y-77250000D01*
X141754104Y-32580934D02*
X141759225Y-32621142D01*
X111926828Y-72721084D02*
X111892985Y-72743389D01*
X170313311Y-20560509D02*
X170300201Y-20522155D01*
X111631756Y-73047684D02*
X111614833Y-73084515D01*
X125045895Y-43019065D02*
X125040774Y-42978857D01*
X116300000Y-90400000D02*
X116300000Y-94900000D01*
X124330934Y-55595895D02*
X124371142Y-55590774D01*
X170350000Y-85100000D02*
X170350000Y-81250000D01*
X184771142Y-42309225D02*
X184730934Y-42304104D01*
X157372155Y-42349798D02*
X157334515Y-42364833D01*
X157488961Y-94916376D02*
X157449477Y-94925538D01*
X155200201Y-42822155D02*
X155185166Y-42784515D01*
X111860315Y-42467379D02*
X111828902Y-42492993D01*
X139665484Y-85835166D02*
X139702315Y-85818243D01*
X169671142Y-72609225D02*
X169630934Y-72604104D01*
X124411038Y-55583623D02*
X124450522Y-55574461D01*
X124527844Y-42349798D02*
X124489490Y-42336688D01*
X127061758Y-85799477D02*
X127097684Y-85818243D01*
X140049477Y-73011758D02*
X140028915Y-72976828D01*
X161600000Y-42300000D02*
X157650000Y-42300000D01*
X154971097Y-20192993D02*
X154939684Y-20167379D01*
X184771142Y-108190774D02*
X184811038Y-108183623D01*
X156854104Y-73319065D02*
X156851026Y-73359480D01*
X185450000Y-46950000D02*
X185450000Y-46950000D01*
X125048973Y-85140519D02*
X125050000Y-85100000D01*
X111550000Y-99550000D02*
X109550000Y-99550000D01*
X111926828Y-42421084D02*
X111892985Y-42443389D01*
X139982620Y-72910315D02*
X139957006Y-72878902D01*
X172669065Y-72604104D02*
X172628857Y-72609225D01*
X139738241Y-55499477D02*
X139773171Y-55478915D01*
X142161758Y-55499477D02*
X142197684Y-55518243D01*
X170157006Y-95178902D02*
X170129834Y-95148826D01*
X111997684Y-94981756D02*
X111961758Y-95000522D01*
X139430934Y-72604104D02*
X139390519Y-72601026D01*
X185450000Y-43100000D02*
X185448973Y-43059480D01*
X111717379Y-55289684D02*
X111742993Y-55321097D01*
X126898826Y-85679834D02*
X126928902Y-85707006D01*
X170071097Y-42492993D02*
X170039684Y-42467379D01*
X140145895Y-20719065D02*
X140140774Y-20678857D01*
X127249477Y-42325538D02*
X127210509Y-42336688D01*
X185257006Y-107921097D02*
X185282620Y-107889684D01*
X180700000Y-42300000D02*
X180700000Y-37800000D01*
X155233623Y-32661038D02*
X155240774Y-32621142D01*
X142469065Y-94904104D02*
X142428857Y-94909225D01*
X157609480Y-20001026D02*
X157569065Y-20004104D01*
X112034515Y-55535166D02*
X112072155Y-55550201D01*
X111926828Y-85778915D02*
X111961758Y-85799477D01*
X124949477Y-20411758D02*
X124928915Y-20376828D01*
X111717379Y-32989684D02*
X111742993Y-33021097D01*
X142060315Y-108032620D02*
X142092985Y-108056610D01*
X125024461Y-85300522D02*
X125033623Y-85261038D01*
X124638241Y-33199477D02*
X124673171Y-33178915D01*
X126654104Y-95619065D02*
X126651026Y-95659480D01*
X157070165Y-42548826D02*
X157042993Y-42578902D01*
X157569065Y-72604104D02*
X157528857Y-72609225D01*
X140133623Y-85261038D02*
X140140774Y-85221142D01*
X124489490Y-55563311D02*
X124527844Y-55550201D01*
X169827844Y-72649798D02*
X169789490Y-72636688D01*
X169865484Y-108135166D02*
X169902315Y-108118243D01*
X157192985Y-85756610D02*
X157226828Y-85778915D01*
X157017379Y-72910315D02*
X156993389Y-72942985D01*
X170249477Y-20411758D02*
X170228915Y-20376828D01*
X111550000Y-28650000D02*
X111550000Y-32500000D01*
X183200000Y-53550000D02*
X183200000Y-55600000D01*
X125000201Y-95422155D02*
X124985166Y-95384515D01*
X157297684Y-72681756D02*
X157261758Y-72700522D01*
X127097684Y-94981756D02*
X127061758Y-95000522D01*
X124371142Y-72609225D02*
X124330934Y-72604104D01*
X157372155Y-20049798D02*
X157334515Y-20064833D01*
X170350000Y-24650000D02*
X170350000Y-20800000D01*
X157334515Y-72664833D02*
X157297684Y-72681756D01*
X142161758Y-108099477D02*
X142197684Y-108118243D01*
X126650000Y-32500000D02*
X126651026Y-32540519D01*
X185139684Y-33132620D02*
X185171097Y-33107006D01*
X171950000Y-46950000D02*
X171150000Y-46950000D01*
X126686688Y-73160509D02*
X126675538Y-73199477D01*
X185139684Y-108032620D02*
X185171097Y-108007006D01*
X176700000Y-90400000D02*
X176700000Y-94900000D01*
X124857006Y-95178902D02*
X124829834Y-95148826D01*
X171950000Y-95700000D02*
X171950000Y-99550000D01*
X185139684Y-55432620D02*
X185171097Y-55407006D01*
X127328857Y-20009225D02*
X127288961Y-20016376D01*
X154727844Y-42349798D02*
X154689490Y-42336688D01*
X155250000Y-73400000D02*
X155248973Y-73359480D01*
X185349477Y-32888241D02*
X185368243Y-32852315D01*
X172628857Y-20009225D02*
X172588961Y-20016376D01*
X126842993Y-95178902D02*
X126817379Y-95210315D01*
X155185166Y-85415484D02*
X155200201Y-85377844D01*
X170324461Y-107600522D02*
X170333623Y-107561038D01*
X141893389Y-32957014D02*
X141917379Y-32989684D01*
X124771097Y-55407006D02*
X124801173Y-55379834D01*
X127249477Y-94925538D02*
X127210509Y-94936688D01*
X126731756Y-73047684D02*
X126714833Y-73084515D01*
X156886688Y-95460509D02*
X156875538Y-95499477D01*
X170157006Y-20278902D02*
X170129834Y-20248826D01*
X157528857Y-85890774D02*
X157569065Y-85895895D01*
X165600000Y-90400000D02*
X165600000Y-85900000D01*
X124489490Y-108163311D02*
X124527844Y-108150201D01*
X155082620Y-55289684D02*
X155106610Y-55257014D01*
X157261758Y-33199477D02*
X157297684Y-33218243D01*
X142388961Y-55583623D02*
X142428857Y-55590774D01*
X172142993Y-20278902D02*
X172117379Y-20310315D01*
X139430934Y-85895895D02*
X139471142Y-85890774D01*
X124450522Y-33274461D02*
X124489490Y-33263311D01*
X142509480Y-108198973D02*
X142550000Y-108200000D01*
X126898826Y-72820165D02*
X126870165Y-72848826D01*
X141893389Y-85557014D02*
X141917379Y-85589684D01*
X170129834Y-85651173D02*
X170157006Y-85621097D01*
X111631756Y-42747684D02*
X111614833Y-42784515D01*
X126817379Y-55289684D02*
X126842993Y-55321097D01*
X185450000Y-77250000D02*
X185450000Y-73400000D01*
X127249477Y-33274461D02*
X127288961Y-33283623D01*
X157334515Y-33235166D02*
X157372155Y-33250201D01*
X169789490Y-55563311D02*
X169827844Y-55550201D01*
X155106610Y-85557014D02*
X155128915Y-85523171D01*
X141751026Y-54840519D02*
X141754104Y-54880934D01*
X139350000Y-42300000D02*
X135400000Y-42300000D01*
X124411038Y-33283623D02*
X124450522Y-33274461D01*
X126659225Y-20678857D02*
X126654104Y-20719065D01*
X124906610Y-55257014D02*
X124928915Y-55223171D01*
X172117379Y-20310315D02*
X172093389Y-20342985D01*
X172292985Y-33156610D02*
X172326828Y-33178915D01*
X140113311Y-85339490D02*
X140124461Y-85300522D01*
X127328857Y-72609225D02*
X127288961Y-72616376D01*
X125850000Y-103550000D02*
X126650000Y-103550000D01*
X127026828Y-55478915D02*
X127061758Y-55499477D01*
X169750522Y-55574461D02*
X169789490Y-55563311D01*
X155200201Y-32777844D02*
X155213311Y-32739490D01*
X170157006Y-33021097D02*
X170182620Y-32989684D01*
X135400000Y-90400000D02*
X135400000Y-85900000D01*
X141893389Y-55257014D02*
X141917379Y-55289684D01*
X139665484Y-94964833D02*
X139627844Y-94949798D01*
X170206610Y-55257014D02*
X170228915Y-55223171D01*
X184730934Y-33295895D02*
X184771142Y-33290774D01*
X140049477Y-107788241D02*
X140068243Y-107752315D01*
X172510509Y-108163311D02*
X172549477Y-108174461D01*
X126960315Y-33132620D02*
X126992985Y-33156610D01*
X185201173Y-95120165D02*
X185171097Y-95092993D01*
X172361758Y-108099477D02*
X172397684Y-108118243D01*
X169711038Y-33283623D02*
X169750522Y-33274461D01*
X126650000Y-77250000D02*
X125850000Y-77250000D01*
X156851026Y-107440519D02*
X156854104Y-107480934D01*
X140140774Y-20678857D02*
X140133623Y-20638961D01*
X157192985Y-42443389D02*
X157160315Y-42467379D01*
X126771084Y-32923171D02*
X126793389Y-32957014D01*
X170039684Y-108032620D02*
X170071097Y-108007006D01*
X127097684Y-108118243D02*
X127134515Y-108135166D01*
X185349477Y-95311758D02*
X185328915Y-95276828D01*
X172669065Y-85895895D02*
X172709480Y-85898973D01*
X126654104Y-20719065D02*
X126651026Y-20759480D01*
X126817379Y-42610315D02*
X126793389Y-42642985D01*
X137950000Y-74650000D02*
X135400000Y-74650000D01*
X139702315Y-108118243D02*
X139738241Y-108099477D01*
X111550000Y-95700000D02*
X111550000Y-99550000D01*
X170101173Y-107979834D02*
X170129834Y-107951173D01*
X185450000Y-54800000D02*
X185450000Y-50950000D01*
X170129834Y-42548826D02*
X170101173Y-42520165D01*
X170350000Y-103550000D02*
X171150000Y-103550000D01*
X155250000Y-81250000D02*
X156050000Y-81250000D01*
X169590519Y-20001026D02*
X169550000Y-20000000D01*
X171999798Y-73122155D02*
X171986688Y-73160509D01*
X124739684Y-33132620D02*
X124771097Y-33107006D01*
X155248973Y-43059480D02*
X155245895Y-43019065D01*
X185400201Y-32777844D02*
X185413311Y-32739490D01*
X127061758Y-95000522D02*
X127026828Y-95021084D01*
X142060315Y-95067379D02*
X142028902Y-95092993D01*
X140028915Y-72976828D02*
X140006610Y-72942985D01*
X139589490Y-85863311D02*
X139627844Y-85850201D01*
X126675538Y-20599477D02*
X126666376Y-20638961D01*
X140133623Y-73238961D02*
X140124461Y-73199477D01*
X172031756Y-32852315D02*
X172050522Y-32888241D01*
X168150000Y-20000000D02*
X168150000Y-22050000D01*
X185171097Y-42492993D02*
X185139684Y-42467379D01*
X126842993Y-55321097D02*
X126870165Y-55351173D01*
X187450000Y-46950000D02*
X185450000Y-46950000D01*
X172031756Y-73047684D02*
X172014833Y-73084515D01*
X141750000Y-54800000D02*
X141751026Y-54840519D01*
X153000000Y-53550000D02*
X153000000Y-55600000D01*
X153000000Y-106150000D02*
X153000000Y-108200000D01*
X155001173Y-85679834D02*
X155029834Y-85651173D01*
X185073171Y-72721084D02*
X185038241Y-72700522D01*
X156851026Y-32540519D02*
X156854104Y-32580934D01*
X127249477Y-108174461D02*
X127288961Y-108183623D01*
X113800000Y-20000000D02*
X112350000Y-20000000D01*
X111742993Y-95178902D02*
X111717379Y-95210315D01*
X171954104Y-85180934D02*
X171959225Y-85221142D01*
X111770165Y-72848826D02*
X111742993Y-72878902D01*
X171150000Y-46950000D02*
X170350000Y-46950000D01*
X139471142Y-55590774D02*
X139511038Y-55583623D01*
X127134515Y-108135166D02*
X127172155Y-108150201D01*
X127450000Y-72600000D02*
X127409480Y-72601026D01*
X185073171Y-95021084D02*
X185038241Y-95000522D01*
X141998826Y-42520165D02*
X141970165Y-42548826D01*
X172260315Y-33132620D02*
X172292985Y-33156610D01*
X185107014Y-85756610D02*
X185139684Y-85732620D01*
X155245895Y-73319065D02*
X155240774Y-73278857D01*
X142197684Y-33218243D02*
X142234515Y-33235166D01*
X124371142Y-94909225D02*
X124330934Y-94904104D01*
X170348973Y-20759480D02*
X170345895Y-20719065D01*
X155057006Y-20278902D02*
X155029834Y-20248826D01*
X157226828Y-95021084D02*
X157192985Y-95043389D01*
X126675538Y-42899477D02*
X126666376Y-42938961D01*
X124565484Y-108135166D02*
X124602315Y-108118243D01*
X154490519Y-20001026D02*
X154450000Y-20000000D01*
X140113311Y-32739490D02*
X140124461Y-32700522D01*
X184771142Y-72609225D02*
X184730934Y-72604104D01*
X111550000Y-24650000D02*
X109550000Y-24650000D01*
X126675538Y-95499477D02*
X126666376Y-95538961D01*
X142197684Y-42381756D02*
X142161758Y-42400522D01*
X139773171Y-95021084D02*
X139738241Y-95000522D01*
X125013311Y-95460509D02*
X125000201Y-95422155D01*
X139901173Y-33079834D02*
X139929834Y-33051173D01*
X185107014Y-55456610D02*
X185139684Y-55432620D01*
X127097684Y-55518243D02*
X127134515Y-55535166D01*
X168150000Y-74650000D02*
X165600000Y-74650000D01*
X126666376Y-54961038D02*
X126675538Y-55000522D01*
X171986688Y-55039490D02*
X171999798Y-55077844D01*
X140150000Y-28650000D02*
X140950000Y-28650000D01*
X126928902Y-33107006D02*
X126960315Y-33132620D01*
X185139684Y-20167379D02*
X185107014Y-20143389D01*
X126928902Y-108007006D02*
X126960315Y-108032620D01*
X185139684Y-85732620D02*
X185171097Y-85707006D01*
X125850000Y-46950000D02*
X125050000Y-46950000D01*
X125850000Y-28650000D02*
X126650000Y-28650000D01*
X169711038Y-55583623D02*
X169750522Y-55574461D01*
X170157006Y-42578902D02*
X170129834Y-42548826D01*
X172071084Y-95276828D02*
X172050522Y-95311758D01*
X141942993Y-95178902D02*
X141917379Y-95210315D01*
X157528857Y-55590774D02*
X157569065Y-55595895D01*
X156850000Y-43100000D02*
X156850000Y-46950000D01*
X139807014Y-85756610D02*
X139839684Y-85732620D01*
X185450000Y-46950000D02*
X185450000Y-43100000D01*
X111554104Y-32580934D02*
X111559225Y-32621142D01*
X156050000Y-81250000D02*
X156850000Y-81250000D01*
X154490519Y-72601026D02*
X154450000Y-72600000D01*
X126870165Y-107951173D02*
X126898826Y-107979834D01*
X127450000Y-85900000D02*
X131400000Y-85900000D01*
X142197684Y-108118243D02*
X142234515Y-108135166D01*
X125050000Y-28650000D02*
X125850000Y-28650000D01*
X157098826Y-72820165D02*
X157070165Y-72848826D01*
X142310509Y-20036688D02*
X142272155Y-20049798D01*
X154802315Y-20081756D02*
X154765484Y-20064833D01*
X124739684Y-85732620D02*
X124771097Y-85707006D01*
X128900000Y-74650000D02*
X128900000Y-72600000D01*
X124949477Y-32888241D02*
X124968243Y-32852315D01*
X155248973Y-95659480D02*
X155245895Y-95619065D01*
X127061758Y-33199477D02*
X127097684Y-33218243D01*
X172588961Y-20016376D02*
X172549477Y-20025538D01*
X126793389Y-55257014D02*
X126817379Y-55289684D01*
X127172155Y-55550201D02*
X127210509Y-55563311D01*
X140124461Y-107600522D02*
X140133623Y-107561038D01*
X155168243Y-107752315D02*
X155185166Y-107715484D01*
X125013311Y-20560509D02*
X125000201Y-20522155D01*
X185171097Y-85707006D02*
X185201173Y-85679834D01*
X139901173Y-72820165D02*
X139871097Y-72792993D01*
X169630934Y-72604104D02*
X169590519Y-72601026D01*
X169630934Y-108195895D02*
X169671142Y-108190774D01*
X184650000Y-42300000D02*
X180700000Y-42300000D01*
X155001173Y-33079834D02*
X155029834Y-33051173D01*
X111631756Y-32852315D02*
X111650522Y-32888241D01*
X139738241Y-85799477D02*
X139773171Y-85778915D01*
X125000201Y-20522155D02*
X124985166Y-20484515D01*
X185139684Y-72767379D02*
X185107014Y-72743389D01*
X141831756Y-42747684D02*
X141814833Y-42784515D01*
X184811038Y-42316376D02*
X184771142Y-42309225D01*
X155245895Y-107480934D02*
X155248973Y-107440519D01*
X139982620Y-55289684D02*
X140006610Y-55257014D01*
X169671142Y-33290774D02*
X169711038Y-33283623D01*
X155250000Y-95700000D02*
X155248973Y-95659480D01*
X140950000Y-81250000D02*
X141750000Y-81250000D01*
X171950000Y-43100000D02*
X171950000Y-46950000D01*
X154490519Y-42301026D02*
X154450000Y-42300000D01*
X155250000Y-28650000D02*
X156050000Y-28650000D01*
X185038241Y-33199477D02*
X185073171Y-33178915D01*
X141766376Y-54961038D02*
X141775538Y-55000522D01*
X150500000Y-37800000D02*
X150500000Y-33300000D01*
X169750522Y-108174461D02*
X169789490Y-108163311D01*
X111926828Y-55478915D02*
X111961758Y-55499477D01*
X184889490Y-55563311D02*
X184927844Y-55550201D01*
X154802315Y-33218243D02*
X154838241Y-33199477D01*
X171999798Y-55077844D02*
X172014833Y-55115484D01*
X156851026Y-20759480D02*
X156850000Y-20800000D01*
X112269065Y-108195895D02*
X112309480Y-108198973D01*
X172292985Y-55456610D02*
X172326828Y-55478915D01*
X141759225Y-107521142D02*
X141766376Y-107561038D01*
X172588961Y-72616376D02*
X172549477Y-72625538D01*
X141786688Y-85339490D02*
X141799798Y-85377844D01*
X111961758Y-20100522D02*
X111926828Y-20121084D01*
X124673171Y-85778915D02*
X124707014Y-85756610D01*
X139350000Y-94900000D02*
X135400000Y-94900000D01*
X155149477Y-73011758D02*
X155128915Y-72976828D01*
X157017379Y-32989684D02*
X157042993Y-33021097D01*
X125000201Y-85377844D02*
X125013311Y-85339490D01*
X140085166Y-107715484D02*
X140100201Y-107677844D01*
X172014833Y-55115484D02*
X172031756Y-55152315D01*
X111559225Y-73278857D02*
X111554104Y-73319065D01*
X125033623Y-73238961D02*
X125024461Y-73199477D01*
X184850522Y-85874461D02*
X184889490Y-85863311D01*
X124882620Y-42610315D02*
X124857006Y-42578902D01*
X124985166Y-95384515D02*
X124968243Y-95347684D01*
X185424461Y-20599477D02*
X185413311Y-20560509D01*
X127409480Y-33298973D02*
X127450000Y-33300000D01*
X184965484Y-108135166D02*
X185002315Y-108118243D01*
X185385166Y-42784515D02*
X185368243Y-42747684D01*
X172050522Y-20411758D02*
X172031756Y-20447684D01*
X156931756Y-85452315D02*
X156950522Y-85488241D01*
X125040774Y-73278857D02*
X125033623Y-73238961D01*
X126731756Y-32852315D02*
X126750522Y-32888241D01*
X171959225Y-107521142D02*
X171966376Y-107561038D01*
X184889490Y-85863311D02*
X184927844Y-85850201D01*
X185400201Y-73122155D02*
X185385166Y-73084515D01*
X157160315Y-95067379D02*
X157128902Y-95092993D01*
X126659225Y-107521142D02*
X126666376Y-107561038D01*
X185328915Y-85523171D02*
X185349477Y-85488241D01*
X170350000Y-77250000D02*
X170350000Y-73400000D01*
X124985166Y-73084515D02*
X124968243Y-73047684D01*
X141871084Y-95276828D02*
X141850522Y-95311758D01*
X140133623Y-32661038D02*
X140140774Y-32621142D01*
X142028902Y-33107006D02*
X142060315Y-33132620D01*
X140950000Y-24650000D02*
X140150000Y-24650000D01*
X185424461Y-42899477D02*
X185413311Y-42860509D01*
X111860315Y-55432620D02*
X111892985Y-55456610D01*
X169902315Y-20081756D02*
X169865484Y-20064833D01*
X112228857Y-72609225D02*
X112188961Y-72616376D01*
X172071084Y-85523171D02*
X172093389Y-85557014D01*
X142197684Y-72681756D02*
X142161758Y-72700522D01*
X172549477Y-85874461D02*
X172588961Y-85883623D01*
X139702315Y-85818243D02*
X139738241Y-85799477D01*
X126651026Y-32540519D02*
X126654104Y-32580934D01*
X124949477Y-42711758D02*
X124928915Y-42676828D01*
X161600000Y-94900000D02*
X157650000Y-94900000D01*
X150500000Y-85900000D02*
X154450000Y-85900000D01*
X141814833Y-55115484D02*
X141831756Y-55152315D01*
X142272155Y-42349798D02*
X142234515Y-42364833D01*
X184889490Y-42336688D02*
X184850522Y-42325538D01*
X170340774Y-20678857D02*
X170333623Y-20638961D01*
X185038241Y-85799477D02*
X185073171Y-85778915D01*
X170313311Y-42860509D02*
X170300201Y-42822155D01*
X141831756Y-85452315D02*
X141850522Y-85488241D01*
X125040774Y-85221142D02*
X125045895Y-85180934D01*
X185400201Y-95422155D02*
X185385166Y-95384515D01*
X124290519Y-42301026D02*
X124250000Y-42300000D01*
X184771142Y-85890774D02*
X184811038Y-85883623D01*
X171950000Y-73400000D02*
X171950000Y-77250000D01*
X128850000Y-106150000D02*
X137900000Y-106150000D01*
X185424461Y-95499477D02*
X185413311Y-95460509D01*
X172709480Y-42301026D02*
X172669065Y-42304104D01*
X171959225Y-73278857D02*
X171954104Y-73319065D01*
X140148973Y-95659480D02*
X140145895Y-95619065D01*
X111650522Y-95311758D02*
X111631756Y-95347684D01*
X155082620Y-72910315D02*
X155057006Y-72878902D01*
X157410509Y-33263311D02*
X157449477Y-33274461D01*
X157410509Y-55563311D02*
X157449477Y-55574461D01*
X111671084Y-20376828D02*
X111650522Y-20411758D01*
X125050000Y-24650000D02*
X125050000Y-20800000D01*
X126654104Y-85180934D02*
X126659225Y-85221142D01*
X111559225Y-20678857D02*
X111554104Y-20719065D01*
X154727844Y-108150201D02*
X154765484Y-108135166D01*
X124829834Y-33051173D02*
X124857006Y-33021097D01*
X112228857Y-55590774D02*
X112269065Y-55595895D01*
X124638241Y-42400522D02*
X124602315Y-42381756D01*
X142272155Y-55550201D02*
X142310509Y-55563311D01*
X157128902Y-42492993D02*
X157098826Y-42520165D01*
X156971084Y-95276828D02*
X156950522Y-95311758D01*
X127210509Y-42336688D02*
X127172155Y-42349798D01*
X112228857Y-20009225D02*
X112188961Y-20016376D01*
X170007014Y-72743389D02*
X169973171Y-72721084D01*
X141775538Y-20599477D02*
X141766376Y-20638961D01*
X142349477Y-20025538D02*
X142310509Y-20036688D01*
X140950000Y-103550000D02*
X141750000Y-103550000D01*
X139550522Y-20025538D02*
X139511038Y-20016376D01*
X142092985Y-95043389D02*
X142060315Y-95067379D01*
X141786688Y-73160509D02*
X141775538Y-73199477D01*
X124882620Y-107889684D02*
X124906610Y-107857014D01*
X127210509Y-55563311D02*
X127249477Y-55574461D01*
X111614833Y-55115484D02*
X111631756Y-55152315D01*
X155248973Y-54840519D02*
X155250000Y-54800000D01*
X172361758Y-85799477D02*
X172397684Y-85818243D01*
X172510509Y-85863311D02*
X172549477Y-85874461D01*
X170228915Y-85523171D02*
X170249477Y-85488241D01*
X140950000Y-50950000D02*
X141750000Y-50950000D01*
X185229834Y-107951173D02*
X185257006Y-107921097D01*
X154765484Y-72664833D02*
X154727844Y-72649798D01*
X154650522Y-20025538D02*
X154611038Y-20016376D01*
X157160315Y-72767379D02*
X157128902Y-72792993D01*
X171950000Y-28650000D02*
X171950000Y-32500000D01*
X171986688Y-85339490D02*
X171999798Y-85377844D01*
X139665484Y-20064833D02*
X139627844Y-20049798D01*
X155001173Y-95120165D02*
X154971097Y-95092993D01*
X112350000Y-20000000D02*
X112309480Y-20001026D01*
X116300000Y-33300000D02*
X116300000Y-37800000D01*
X124857006Y-33021097D02*
X124882620Y-32989684D01*
X172510509Y-94936688D02*
X172472155Y-94949798D01*
X140140774Y-107521142D02*
X140145895Y-107480934D01*
X172093389Y-42642985D02*
X172071084Y-42676828D01*
X155233623Y-20638961D02*
X155224461Y-20599477D01*
X141775538Y-95499477D02*
X141766376Y-95538961D01*
X155224461Y-42899477D02*
X155213311Y-42860509D01*
X170182620Y-42610315D02*
X170157006Y-42578902D01*
X172326828Y-72721084D02*
X172292985Y-72743389D01*
X172071084Y-107823171D02*
X172093389Y-107857014D01*
X144000000Y-72600000D02*
X142550000Y-72600000D01*
X111566376Y-32661038D02*
X111575538Y-32700522D01*
X124250000Y-42300000D02*
X120300000Y-42300000D01*
X125050000Y-77250000D02*
X125050000Y-73400000D01*
X155213311Y-73160509D02*
X155200201Y-73122155D01*
X170071097Y-108007006D02*
X170101173Y-107979834D01*
X124985166Y-107715484D02*
X125000201Y-107677844D01*
X124928915Y-55223171D02*
X124949477Y-55188241D01*
X171950000Y-103550000D02*
X171950000Y-107400000D01*
X156899798Y-85377844D02*
X156914833Y-85415484D01*
X157128902Y-85707006D02*
X157160315Y-85732620D01*
X172397684Y-94981756D02*
X172361758Y-95000522D01*
X140150000Y-81250000D02*
X140950000Y-81250000D01*
X126870165Y-42548826D02*
X126842993Y-42578902D01*
X141750000Y-95700000D02*
X141750000Y-99550000D01*
X171959225Y-54921142D02*
X171966376Y-54961038D01*
X157226828Y-33178915D02*
X157261758Y-33199477D01*
X170249477Y-32888241D02*
X170268243Y-32852315D01*
X154689490Y-72636688D02*
X154650522Y-72625538D01*
X170348973Y-73359480D02*
X170345895Y-73319065D01*
X154907014Y-20143389D02*
X154873171Y-20121084D01*
X131400000Y-94900000D02*
X127450000Y-94900000D01*
X157488961Y-108183623D02*
X157528857Y-108190774D01*
X142509480Y-55598973D02*
X142550000Y-55600000D01*
X170039684Y-95067379D02*
X170007014Y-95043389D01*
X157488961Y-42316376D02*
X157449477Y-42325538D01*
X124949477Y-85488241D02*
X124968243Y-85452315D01*
X180700000Y-74650000D02*
X174200000Y-74650000D01*
X139982620Y-107889684D02*
X140006610Y-107857014D01*
X155106610Y-95242985D02*
X155082620Y-95210315D01*
X183250000Y-74650000D02*
X180700000Y-74650000D01*
X111650522Y-20411758D02*
X111631756Y-20447684D01*
X185445895Y-20719065D02*
X185440774Y-20678857D01*
X185440774Y-85221142D02*
X185445895Y-85180934D01*
X156875538Y-55000522D02*
X156886688Y-55039490D01*
X140113311Y-107639490D02*
X140124461Y-107600522D01*
X185450000Y-20800000D02*
X185448973Y-20759480D01*
X124801173Y-107979834D02*
X124829834Y-107951173D01*
X157410509Y-94936688D02*
X157372155Y-94949798D01*
X156850000Y-99550000D02*
X156050000Y-99550000D01*
X127328857Y-42309225D02*
X127288961Y-42316376D01*
X111997684Y-85818243D02*
X112034515Y-85835166D01*
X140028915Y-95276828D02*
X140006610Y-95242985D01*
X184927844Y-42349798D02*
X184889490Y-42336688D01*
X140950000Y-77250000D02*
X140150000Y-77250000D01*
X155106610Y-107857014D02*
X155128915Y-107823171D01*
X150500000Y-74650000D02*
X144000000Y-74650000D01*
X124928915Y-72976828D02*
X124906610Y-72942985D01*
X127097684Y-20081756D02*
X127061758Y-20100522D01*
X125048973Y-20759480D02*
X125045895Y-20719065D01*
X140049477Y-42711758D02*
X140028915Y-42676828D01*
X124882620Y-55289684D02*
X124906610Y-55257014D01*
X140140774Y-42978857D02*
X140140774Y-42978857D01*
X141750000Y-107400000D02*
X141751026Y-107440519D01*
X157650000Y-85900000D02*
X161600000Y-85900000D01*
X139738241Y-108099477D02*
X139773171Y-108078915D01*
X127210509Y-33263311D02*
X127249477Y-33274461D01*
X125000201Y-32777844D02*
X125013311Y-32739490D01*
X127172155Y-72649798D02*
X127134515Y-72664833D01*
X124906610Y-32957014D02*
X124928915Y-32923171D01*
X172142993Y-33021097D02*
X172170165Y-33051173D01*
X127288961Y-94916376D02*
X127249477Y-94925538D01*
X155001173Y-72820165D02*
X154971097Y-72792993D01*
X169827844Y-55550201D02*
X169865484Y-55535166D01*
X155029834Y-85651173D02*
X155057006Y-85621097D01*
X142550000Y-85900000D02*
X146500000Y-85900000D01*
X170350000Y-50950000D02*
X171150000Y-50950000D01*
X155168243Y-95347684D02*
X155149477Y-95311758D01*
X142428857Y-33290774D02*
X142469065Y-33295895D01*
X126666376Y-42938961D02*
X126659225Y-42978857D01*
X126870165Y-95148826D02*
X126842993Y-95178902D01*
X154907014Y-42443389D02*
X154873171Y-42421084D01*
X170129834Y-20248826D02*
X170101173Y-20220165D01*
X127288961Y-108183623D02*
X127328857Y-108190774D01*
X169865484Y-33235166D02*
X169902315Y-33218243D01*
X184650000Y-94900000D02*
X180700000Y-94900000D01*
X155057006Y-55321097D02*
X155082620Y-55289684D01*
X170333623Y-107561038D02*
X170340774Y-107521142D01*
X140148973Y-43059480D02*
X140145895Y-43019065D01*
X159050000Y-106150000D02*
X168100000Y-106150000D01*
X127134515Y-20064833D02*
X127097684Y-20081756D01*
X141751026Y-73359480D02*
X141750000Y-73400000D01*
X124739684Y-95067379D02*
X124707014Y-95043389D01*
X139982620Y-32989684D02*
X140006610Y-32957014D01*
X126750522Y-85488241D02*
X126771084Y-85523171D01*
X172260315Y-20167379D02*
X172228902Y-20192993D01*
X155128915Y-55223171D02*
X155149477Y-55188241D01*
X156850000Y-50950000D02*
X156850000Y-54800000D01*
X170268243Y-85452315D02*
X170285166Y-85415484D01*
X156851026Y-85140519D02*
X156854104Y-85180934D01*
X139471142Y-20009225D02*
X139430934Y-20004104D01*
X124882620Y-20310315D02*
X124857006Y-20278902D01*
X154873171Y-108078915D02*
X154907014Y-108056610D01*
X140150000Y-43100000D02*
X140148973Y-43059480D01*
X172326828Y-95021084D02*
X172292985Y-95043389D01*
X172260315Y-72767379D02*
X172228902Y-72792993D01*
X154907014Y-95043389D02*
X154873171Y-95021084D01*
X140150000Y-32500000D02*
X140150000Y-28650000D01*
X126654104Y-107480934D02*
X126659225Y-107521142D01*
X124968243Y-55152315D02*
X124985166Y-55115484D01*
X139589490Y-20036688D02*
X139550522Y-20025538D01*
X112269065Y-55595895D02*
X112309480Y-55598973D01*
X126960315Y-85732620D02*
X126992985Y-85756610D01*
X171951026Y-73359480D02*
X171950000Y-73400000D01*
X156050000Y-46950000D02*
X155250000Y-46950000D01*
X104550000Y-20000000D02*
X104550000Y-108200000D01*
X169865484Y-20064833D02*
X169827844Y-20049798D01*
X156850000Y-28650000D02*
X156850000Y-32500000D01*
X170268243Y-73047684D02*
X170249477Y-73011758D01*
X111693389Y-107857014D02*
X111717379Y-107889684D01*
X111550000Y-85100000D02*
X111551026Y-85140519D01*
X185349477Y-55188241D02*
X185368243Y-55152315D01*
X170039684Y-72767379D02*
X170007014Y-72743389D01*
X172198826Y-85679834D02*
X172228902Y-85707006D01*
X157098826Y-85679834D02*
X157128902Y-85707006D01*
X111575538Y-107600522D02*
X111586688Y-107639490D01*
X141831756Y-32852315D02*
X141850522Y-32888241D01*
X170324461Y-55000522D02*
X170333623Y-54961038D01*
X140085166Y-42784515D02*
X140068243Y-42747684D01*
X139350000Y-108200000D02*
X139390519Y-108198973D01*
X124638241Y-55499477D02*
X124673171Y-55478915D01*
X124985166Y-85415484D02*
X125000201Y-85377844D01*
X128850000Y-108200000D02*
X128850000Y-106150000D01*
X156886688Y-32739490D02*
X156899798Y-32777844D01*
X127409480Y-94901026D02*
X127369065Y-94904104D01*
X124906610Y-20342985D02*
X124882620Y-20310315D01*
X124771097Y-95092993D02*
X124739684Y-95067379D01*
X112228857Y-94909225D02*
X112188961Y-94916376D01*
X154530934Y-94904104D02*
X154490519Y-94901026D01*
X170182620Y-107889684D02*
X170206610Y-107857014D01*
X170182620Y-85589684D02*
X170206610Y-85557014D01*
X139957006Y-55321097D02*
X139982620Y-55289684D01*
X155233623Y-95538961D02*
X155224461Y-95499477D01*
X140145895Y-95619065D02*
X140140774Y-95578857D01*
X185450000Y-107400000D02*
X185450000Y-103550000D01*
X141799798Y-73122155D02*
X141786688Y-73160509D01*
X154802315Y-72681756D02*
X154765484Y-72664833D01*
X172628857Y-33290774D02*
X172669065Y-33295895D01*
X170101173Y-85679834D02*
X170129834Y-85651173D01*
X126714833Y-85415484D02*
X126731756Y-85452315D01*
X156859225Y-95578857D02*
X156854104Y-95619065D01*
X172510509Y-20036688D02*
X172472155Y-20049798D01*
X172472155Y-20049798D02*
X172434515Y-20064833D01*
X139550522Y-94925538D02*
X139511038Y-94916376D01*
X140140774Y-85221142D02*
X140145895Y-85180934D01*
X143950000Y-106150000D02*
X153000000Y-106150000D01*
X141893389Y-72942985D02*
X141871084Y-72976828D01*
X124985166Y-20484515D02*
X124968243Y-20447684D01*
X154907014Y-55456610D02*
X154939684Y-55432620D01*
X170300201Y-95422155D02*
X170285166Y-95384515D01*
X155149477Y-107788241D02*
X155168243Y-107752315D01*
X157226828Y-85778915D02*
X157261758Y-85799477D01*
X126992985Y-72743389D02*
X126960315Y-72767379D01*
X180700000Y-53550000D02*
X183200000Y-53550000D01*
X111828902Y-20192993D02*
X111798826Y-20220165D01*
X170333623Y-73238961D02*
X170324461Y-73199477D01*
X155185166Y-107715484D02*
X155200201Y-107677844D01*
X141751026Y-107440519D02*
X141754104Y-107480934D01*
X172549477Y-94925538D02*
X172510509Y-94936688D01*
X111798826Y-85679834D02*
X111828902Y-85707006D01*
X111997684Y-72681756D02*
X111961758Y-72700522D01*
X124928915Y-20376828D02*
X124906610Y-20342985D01*
X155057006Y-85621097D02*
X155082620Y-85589684D01*
X125045895Y-107480934D02*
X125048973Y-107440519D01*
X124771097Y-42492993D02*
X124739684Y-42467379D01*
X139773171Y-33178915D02*
X139807014Y-33156610D01*
X155149477Y-32888241D02*
X155168243Y-32852315D01*
X142428857Y-72609225D02*
X142388961Y-72616376D01*
X111550000Y-28650000D02*
X111550000Y-28650000D01*
X143950000Y-53550000D02*
X150500000Y-53550000D01*
X157160315Y-85732620D02*
X157192985Y-85756610D01*
X124489490Y-85863311D02*
X124527844Y-85850201D01*
X169750522Y-33274461D02*
X169789490Y-33263311D01*
X170206610Y-32957014D02*
X170228915Y-32923171D01*
X170345895Y-73319065D02*
X170340774Y-73278857D01*
X155082620Y-20310315D02*
X155057006Y-20278902D01*
X139550522Y-108174461D02*
X139589490Y-108163311D01*
X124829834Y-85651173D02*
X124857006Y-85621097D01*
X192450000Y-20000000D02*
X187450000Y-20000000D01*
X176700000Y-42300000D02*
X172750000Y-42300000D01*
X140028915Y-32923171D02*
X140049477Y-32888241D01*
X131400000Y-33300000D02*
X131400000Y-37800000D01*
X169973171Y-42421084D02*
X169938241Y-42400522D01*
X113750000Y-53550000D02*
X122800000Y-53550000D01*
X172292985Y-72743389D02*
X172260315Y-72767379D01*
X141799798Y-107677844D02*
X141814833Y-107715484D01*
X185306610Y-55257014D02*
X185328915Y-55223171D01*
X171959225Y-32621142D02*
X171966376Y-32661038D01*
X139773171Y-55478915D02*
X139807014Y-55456610D01*
X126750522Y-55188241D02*
X126771084Y-55223171D01*
X139929834Y-33051173D02*
X139957006Y-33021097D01*
X127450000Y-108200000D02*
X128850000Y-108200000D01*
X172669065Y-94904104D02*
X172628857Y-94909225D01*
X142126828Y-20121084D02*
X142092985Y-20143389D01*
X172549477Y-55574461D02*
X172588961Y-55583623D01*
X156914833Y-32815484D02*
X156931756Y-32852315D01*
X185440774Y-107521142D02*
X185445895Y-107480934D01*
X142060315Y-33132620D02*
X142092985Y-33156610D01*
X155029834Y-107951173D02*
X155057006Y-107921097D01*
X142126828Y-95021084D02*
X142092985Y-95043389D01*
X157650000Y-20000000D02*
X157609480Y-20001026D01*
X126731756Y-85452315D02*
X126750522Y-85488241D01*
X184811038Y-108183623D02*
X184850522Y-108174461D01*
X111770165Y-85651173D02*
X111798826Y-85679834D01*
X154650522Y-33274461D02*
X154689490Y-33263311D01*
X153000000Y-108200000D02*
X154450000Y-108200000D01*
X155106610Y-20342985D02*
X155082620Y-20310315D01*
X154571142Y-94909225D02*
X154530934Y-94904104D01*
X139471142Y-72609225D02*
X139430934Y-72604104D01*
X125850000Y-24650000D02*
X125050000Y-24650000D01*
X169938241Y-95000522D02*
X169902315Y-94981756D01*
X141814833Y-20484515D02*
X141799798Y-20522155D01*
X124450522Y-20025538D02*
X124411038Y-20016376D01*
X187450000Y-20000000D02*
X187450000Y-24650000D01*
X126650000Y-24650000D02*
X125850000Y-24650000D01*
X154873171Y-85778915D02*
X154907014Y-85756610D01*
X169630934Y-42304104D02*
X169590519Y-42301026D01*
X126992985Y-42443389D02*
X126960315Y-42467379D01*
X127369065Y-20004104D02*
X127328857Y-20009225D01*
X157372155Y-72649798D02*
X157334515Y-72664833D01*
X170206610Y-95242985D02*
X170182620Y-95210315D01*
X172472155Y-72649798D02*
X172434515Y-72664833D01*
X185306610Y-85557014D02*
X185328915Y-85523171D01*
X155248973Y-95659480D02*
X155248973Y-95659480D01*
X154571142Y-33290774D02*
X154611038Y-33283623D01*
X155128915Y-42676828D02*
X155106610Y-42642985D01*
X140049477Y-55188241D02*
X140068243Y-55152315D01*
X185073171Y-85778915D02*
X185107014Y-85756610D01*
X185440774Y-32621142D02*
X185445895Y-32580934D01*
X172170165Y-85651173D02*
X172198826Y-85679834D01*
X141871084Y-85523171D02*
X141893389Y-85557014D01*
X141775538Y-55000522D02*
X141786688Y-55039490D01*
X172014833Y-20484515D02*
X171999798Y-20522155D01*
X139589490Y-33263311D02*
X139627844Y-33250201D01*
X142349477Y-94925538D02*
X142310509Y-94936688D01*
X184771142Y-94909225D02*
X184730934Y-94904104D01*
X157042993Y-72878902D02*
X157017379Y-72910315D01*
X157261758Y-85799477D02*
X157297684Y-85818243D01*
X156850000Y-73400000D02*
X156850000Y-77250000D01*
X139982620Y-20310315D02*
X139957006Y-20278902D01*
X126714833Y-55115484D02*
X126731756Y-55152315D01*
X172588961Y-33283623D02*
X172628857Y-33290774D01*
X126793389Y-72942985D02*
X126771084Y-72976828D01*
X185368243Y-42747684D02*
X185349477Y-42711758D01*
X157528857Y-72609225D02*
X157488961Y-72616376D01*
X140006610Y-72942985D02*
X139982620Y-72910315D01*
X185400201Y-42822155D02*
X185385166Y-42784515D01*
X126650000Y-43100000D02*
X126650000Y-46950000D01*
X111671084Y-95276828D02*
X111650522Y-95311758D01*
X141766376Y-73238961D02*
X141759225Y-73278857D01*
X139589490Y-55563311D02*
X139627844Y-55550201D01*
X125013311Y-42860509D02*
X125000201Y-42822155D01*
X142509480Y-42301026D02*
X142469065Y-42304104D01*
X185201173Y-72820165D02*
X185171097Y-72792993D01*
X125040774Y-54921142D02*
X125045895Y-54880934D01*
X157334515Y-108135166D02*
X157372155Y-108150201D01*
X112149477Y-42325538D02*
X112110509Y-42336688D01*
X127249477Y-20025538D02*
X127210509Y-20036688D01*
X170333623Y-95538961D02*
X170324461Y-95499477D01*
X156971084Y-42676828D02*
X156950522Y-42711758D01*
X112149477Y-72625538D02*
X112110509Y-72636688D01*
X126960315Y-42467379D02*
X126928902Y-42492993D01*
X127409480Y-42301026D02*
X127369065Y-42304104D01*
X140068243Y-73047684D02*
X140049477Y-73011758D01*
X112228857Y-108190774D02*
X112269065Y-108195895D01*
X155250000Y-107400000D02*
X155250000Y-103550000D01*
X154802315Y-42381756D02*
X154765484Y-42364833D01*
X142234515Y-85835166D02*
X142272155Y-85850201D01*
X113800000Y-72600000D02*
X112350000Y-72600000D01*
X127369065Y-85895895D02*
X127409480Y-85898973D01*
X172093389Y-55257014D02*
X172117379Y-55289684D01*
X126659225Y-95578857D02*
X126654104Y-95619065D01*
X172260315Y-108032620D02*
X172292985Y-108056610D01*
X154971097Y-85707006D02*
X155001173Y-85679834D01*
X111586688Y-32739490D02*
X111599798Y-32777844D01*
X185433623Y-20638961D02*
X185424461Y-20599477D01*
X124968243Y-42747684D02*
X124949477Y-42711758D01*
X111717379Y-42610315D02*
X111693389Y-42642985D01*
X127061758Y-20100522D02*
X127026828Y-20121084D01*
X185448973Y-20759480D02*
X185445895Y-20719065D01*
X155149477Y-85488241D02*
X155168243Y-85452315D01*
X170300201Y-55077844D02*
X170313311Y-55039490D01*
X157650000Y-55600000D02*
X159050000Y-55600000D01*
X126686688Y-42860509D02*
X126675538Y-42899477D01*
X140100201Y-42822155D02*
X140085166Y-42784515D01*
X170101173Y-42520165D02*
X170071097Y-42492993D01*
X125050000Y-20800000D02*
X125048973Y-20759480D01*
X170039684Y-33132620D02*
X170071097Y-33107006D01*
X185368243Y-20447684D02*
X185349477Y-20411758D01*
X139511038Y-94916376D02*
X139471142Y-94909225D01*
X157449477Y-55574461D02*
X157488961Y-55583623D01*
X126650000Y-54800000D02*
X126651026Y-54840519D01*
X111550000Y-107400000D02*
X111551026Y-107440519D01*
X111650522Y-42711758D02*
X111631756Y-42747684D01*
X172117379Y-85589684D02*
X172142993Y-85621097D01*
X170228915Y-107823171D02*
X170249477Y-107788241D01*
X126870165Y-20248826D02*
X126842993Y-20278902D01*
X171999798Y-85377844D02*
X172014833Y-85415484D01*
X157128902Y-72792993D02*
X157098826Y-72820165D01*
X139957006Y-85621097D02*
X139982620Y-85589684D01*
X170345895Y-32580934D02*
X170348973Y-32540519D01*
X171951026Y-54840519D02*
X171954104Y-54880934D01*
X142469065Y-85895895D02*
X142509480Y-85898973D01*
X124290519Y-33298973D02*
X124330934Y-33295895D01*
X139511038Y-33283623D02*
X139550522Y-33274461D01*
X184730934Y-85895895D02*
X184771142Y-85890774D01*
X140006610Y-95242985D02*
X139982620Y-95210315D01*
X140113311Y-42860509D02*
X140100201Y-42822155D01*
X125040774Y-42978857D02*
X125033623Y-42938961D01*
X126870165Y-85651173D02*
X126898826Y-85679834D01*
X111860315Y-85732620D02*
X111892985Y-85756610D01*
X111566376Y-54961038D02*
X111575538Y-55000522D01*
X156866376Y-20638961D02*
X156859225Y-20678857D01*
X185038241Y-20100522D02*
X185002315Y-20081756D01*
X154727844Y-55550201D02*
X154765484Y-55535166D01*
X124906610Y-95242985D02*
X124882620Y-95210315D01*
X141759225Y-54921142D02*
X141766376Y-54961038D01*
X139807014Y-33156610D02*
X139839684Y-33132620D01*
X157488961Y-20016376D02*
X157449477Y-20025538D01*
X112350000Y-85900000D02*
X116300000Y-85900000D01*
X142234515Y-108135166D02*
X142272155Y-108150201D01*
X159100000Y-74650000D02*
X159100000Y-72600000D01*
X157192985Y-95043389D02*
X157160315Y-95067379D01*
X111599798Y-55077844D02*
X111614833Y-55115484D01*
X169938241Y-20100522D02*
X169902315Y-20081756D01*
X170039684Y-20167379D02*
X170007014Y-20143389D01*
X170350000Y-81250000D02*
X171150000Y-81250000D01*
X154490519Y-108198973D02*
X154530934Y-108195895D01*
X127210509Y-94936688D02*
X127172155Y-94949798D01*
X155248973Y-32540519D02*
X155250000Y-32500000D01*
X172071084Y-42676828D02*
X172050522Y-42711758D01*
X124411038Y-94916376D02*
X124371142Y-94909225D01*
X137900000Y-106150000D02*
X137900000Y-108200000D01*
X120300000Y-33300000D02*
X124250000Y-33300000D01*
X170333623Y-20638961D02*
X170324461Y-20599477D01*
X172549477Y-33274461D02*
X172588961Y-33283623D01*
X185201173Y-55379834D02*
X185229834Y-55351173D01*
X185107014Y-95043389D02*
X185073171Y-95021084D01*
X169671142Y-20009225D02*
X169630934Y-20004104D01*
X185171097Y-108007006D02*
X185201173Y-107979834D01*
X185368243Y-95347684D02*
X185349477Y-95311758D01*
X126750522Y-107788241D02*
X126771084Y-107823171D01*
X155128915Y-107823171D02*
X155149477Y-107788241D01*
X139390519Y-94901026D02*
X139350000Y-94900000D01*
X142234515Y-94964833D02*
X142197684Y-94981756D01*
X127369065Y-108195895D02*
X127409480Y-108198973D01*
X154838241Y-108099477D02*
X154873171Y-108078915D01*
X169750522Y-42325538D02*
X169711038Y-42316376D01*
X171951026Y-20759480D02*
X171950000Y-20800000D01*
X140145895Y-54880934D02*
X140148973Y-54840519D01*
X154611038Y-72616376D02*
X154571142Y-72609225D01*
X155250000Y-103550000D02*
X156050000Y-103550000D01*
X170340774Y-85221142D02*
X170345895Y-85180934D01*
X172014833Y-73084515D02*
X171999798Y-73122155D01*
X124565484Y-85835166D02*
X124602315Y-85818243D01*
X111566376Y-85261038D02*
X111575538Y-85300522D01*
X169827844Y-108150201D02*
X169865484Y-108135166D01*
X157098826Y-107979834D02*
X157128902Y-108007006D01*
X156850000Y-77250000D02*
X156050000Y-77250000D01*
X141871084Y-42676828D02*
X141850522Y-42711758D01*
X124450522Y-85874461D02*
X124489490Y-85863311D01*
X124527844Y-20049798D02*
X124489490Y-20036688D01*
X172709480Y-94901026D02*
X172669065Y-94904104D01*
X159100000Y-72600000D02*
X157650000Y-72600000D01*
X155200201Y-95422155D02*
X155185166Y-95384515D01*
X157128902Y-95092993D02*
X157098826Y-95120165D01*
X154571142Y-20009225D02*
X154530934Y-20004104D01*
X185171097Y-33107006D02*
X185201173Y-33079834D01*
X141850522Y-55188241D02*
X141871084Y-55223171D01*
X141754104Y-43019065D02*
X141751026Y-43059480D01*
X185201173Y-107979834D02*
X185229834Y-107951173D01*
X126714833Y-107715484D02*
X126731756Y-107752315D01*
X169590519Y-72601026D02*
X169550000Y-72600000D01*
X142234515Y-55535166D02*
X142272155Y-55550201D01*
X139901173Y-42520165D02*
X139871097Y-42492993D01*
X127450000Y-94900000D02*
X127409480Y-94901026D01*
X156950522Y-42711758D02*
X156931756Y-42747684D01*
X169590519Y-55598973D02*
X169630934Y-55595895D01*
X157372155Y-108150201D02*
X157410509Y-108163311D01*
X141750000Y-81250000D02*
X141750000Y-85100000D01*
X124489490Y-42336688D02*
X124450522Y-42325538D01*
X139839684Y-72767379D02*
X139807014Y-72743389D01*
X126659225Y-32621142D02*
X126666376Y-32661038D01*
X125033623Y-95538961D02*
X125024461Y-95499477D01*
X141799798Y-42822155D02*
X141786688Y-42860509D01*
X124250000Y-85900000D02*
X124290519Y-85898973D01*
X154838241Y-20100522D02*
X154802315Y-20081756D01*
X142234515Y-33235166D02*
X142272155Y-33250201D01*
X124489490Y-72636688D02*
X124450522Y-72625538D01*
X112350000Y-108200000D02*
X113750000Y-108200000D01*
X127288961Y-55583623D02*
X127328857Y-55590774D01*
X174200000Y-22050000D02*
X174200000Y-20000000D01*
X155082620Y-42610315D02*
X155057006Y-42578902D01*
X142509480Y-33298973D02*
X142550000Y-33300000D01*
X126714833Y-95384515D02*
X126699798Y-95422155D01*
X141942993Y-55321097D02*
X141970165Y-55351173D01*
X124906610Y-72942985D02*
X124882620Y-72910315D01*
X154939684Y-108032620D02*
X154971097Y-108007006D01*
X154650522Y-42325538D02*
X154611038Y-42316376D01*
X127026828Y-72721084D02*
X126992985Y-72743389D01*
X141751026Y-95659480D02*
X141750000Y-95700000D01*
X184889490Y-94936688D02*
X184850522Y-94925538D01*
X140145895Y-95619065D02*
X140145895Y-95619065D01*
X155250000Y-85100000D02*
X155250000Y-81250000D01*
X172050522Y-73011758D02*
X172031756Y-73047684D01*
X170129834Y-72848826D02*
X170101173Y-72820165D01*
X111559225Y-95578857D02*
X111554104Y-95619065D01*
X125000201Y-107677844D02*
X125013311Y-107639490D01*
X140068243Y-95347684D02*
X140049477Y-95311758D01*
X157410509Y-72636688D02*
X157372155Y-72649798D01*
X169973171Y-95021084D02*
X169938241Y-95000522D01*
X169789490Y-72636688D02*
X169750522Y-72625538D01*
X141814833Y-85415484D02*
X141831756Y-85452315D01*
X170129834Y-55351173D02*
X170157006Y-55321097D01*
X139511038Y-85883623D02*
X139550522Y-85874461D01*
X184730934Y-108195895D02*
X184771142Y-108190774D01*
X156050000Y-28650000D02*
X156850000Y-28650000D01*
X126793389Y-85557014D02*
X126817379Y-85589684D01*
X111693389Y-85557014D02*
X111717379Y-85589684D01*
X169902315Y-42381756D02*
X169865484Y-42364833D01*
X185450000Y-99550000D02*
X185450000Y-99550000D01*
X124928915Y-32923171D02*
X124949477Y-32888241D01*
X127061758Y-42400522D02*
X127026828Y-42421084D01*
X139871097Y-42492993D02*
X139839684Y-42467379D01*
X157297684Y-20081756D02*
X157261758Y-20100522D01*
X111566376Y-95538961D02*
X111559225Y-95578857D01*
X156866376Y-95538961D02*
X156859225Y-95578857D01*
X185440774Y-73278857D02*
X185433623Y-73238961D01*
X172071084Y-20376828D02*
X172050522Y-20411758D01*
X141766376Y-20638961D02*
X141759225Y-20678857D01*
X171954104Y-95619065D02*
X171951026Y-95659480D01*
X169630934Y-20004104D02*
X169590519Y-20001026D01*
X125013311Y-32739490D02*
X125024461Y-32700522D01*
X161600000Y-85900000D02*
X161600000Y-90400000D01*
X170182620Y-32989684D02*
X170206610Y-32957014D01*
X111770165Y-20248826D02*
X111742993Y-20278902D01*
X139471142Y-33290774D02*
X139511038Y-33283623D01*
X127288961Y-85883623D02*
X127328857Y-85890774D01*
X124450522Y-94925538D02*
X124411038Y-94916376D01*
X154873171Y-33178915D02*
X154907014Y-33156610D01*
X185306610Y-107857014D02*
X185328915Y-107823171D01*
X184811038Y-20016376D02*
X184771142Y-20009225D01*
X126651026Y-73359480D02*
X126650000Y-73400000D01*
X184850522Y-55574461D02*
X184889490Y-55563311D01*
X185171097Y-55407006D02*
X185201173Y-55379834D01*
X139627844Y-33250201D02*
X139665484Y-33235166D01*
X142161758Y-85799477D02*
X142197684Y-85818243D01*
X139390519Y-55598973D02*
X139430934Y-55595895D01*
X139901173Y-95120165D02*
X139871097Y-95092993D01*
X125045895Y-20719065D02*
X125040774Y-20678857D01*
X126750522Y-20411758D02*
X126731756Y-20447684D01*
X185306610Y-95242985D02*
X185282620Y-95210315D01*
X111614833Y-42784515D02*
X111599798Y-42822155D01*
X172093389Y-107857014D02*
X172117379Y-107889684D01*
X127097684Y-33218243D02*
X127134515Y-33235166D01*
X165600000Y-42300000D02*
X165600000Y-37800000D01*
X185328915Y-32923171D02*
X185349477Y-32888241D01*
X124985166Y-42784515D02*
X124968243Y-42747684D01*
X126686688Y-107639490D02*
X126699798Y-107677844D01*
X124707014Y-85756610D02*
X124739684Y-85732620D01*
X156950522Y-55188241D02*
X156971084Y-55223171D01*
X185433623Y-107561038D02*
X185440774Y-107521142D01*
X142060315Y-72767379D02*
X142028902Y-72792993D01*
X170350000Y-28650000D02*
X171150000Y-28650000D01*
X125045895Y-95619065D02*
X125040774Y-95578857D01*
X171951026Y-32540519D02*
X171954104Y-32580934D01*
X126817379Y-20310315D02*
X126793389Y-20342985D01*
X111828902Y-72792993D02*
X111798826Y-72820165D01*
X139957006Y-20278902D02*
X139929834Y-20248826D01*
X124829834Y-20248826D02*
X124801173Y-20220165D01*
X185450000Y-24650000D02*
X185450000Y-20800000D01*
X142161758Y-42400522D02*
X142126828Y-42421084D01*
X156971084Y-20376828D02*
X156950522Y-20411758D01*
X185413311Y-55039490D02*
X185424461Y-55000522D01*
X185440774Y-42978857D02*
X185433623Y-42938961D01*
X157261758Y-72700522D02*
X157226828Y-72721084D01*
X125000201Y-73122155D02*
X124985166Y-73084515D01*
X157226828Y-55478915D02*
X157261758Y-55499477D01*
X156931756Y-95347684D02*
X156914833Y-95384515D01*
X185400201Y-20522155D02*
X185385166Y-20484515D01*
X156886688Y-55039490D02*
X156899798Y-55077844D01*
X168100000Y-53550000D02*
X168100000Y-55600000D01*
X141786688Y-32739490D02*
X141799798Y-32777844D01*
X112350000Y-72600000D02*
X112309480Y-72601026D01*
X142126828Y-108078915D02*
X142161758Y-108099477D01*
X125050000Y-85100000D02*
X125050000Y-81250000D01*
X141766376Y-85261038D02*
X141775538Y-85300522D01*
X154907014Y-85756610D02*
X154939684Y-85732620D01*
X111631756Y-85452315D02*
X111650522Y-85488241D01*
X124371142Y-55590774D02*
X124411038Y-55583623D01*
X171950000Y-77250000D02*
X171150000Y-77250000D01*
X113750000Y-108200000D02*
X113750000Y-106150000D01*
X150500000Y-53550000D02*
X153000000Y-53550000D01*
X170039684Y-85732620D02*
X170071097Y-85707006D01*
X154689490Y-33263311D02*
X154727844Y-33250201D01*
X141750000Y-99550000D02*
X140950000Y-99550000D01*
X172050522Y-95311758D02*
X172031756Y-95347684D01*
X154530934Y-42304104D02*
X154490519Y-42301026D01*
X155128915Y-32923171D02*
X155149477Y-32888241D01*
X140124461Y-42899477D02*
X140113311Y-42860509D01*
X124638241Y-95000522D02*
X124602315Y-94981756D01*
X157098826Y-55379834D02*
X157128902Y-55407006D01*
X155233623Y-73238961D02*
X155224461Y-73199477D01*
X142234515Y-20064833D02*
X142197684Y-20081756D01*
X111551026Y-85140519D02*
X111554104Y-85180934D01*
X140140774Y-32621142D02*
X140145895Y-32580934D01*
X171150000Y-77250000D02*
X170350000Y-77250000D01*
X154971097Y-55407006D02*
X155001173Y-55379834D01*
X157098826Y-33079834D02*
X157128902Y-33107006D01*
X185257006Y-55321097D02*
X185282620Y-55289684D01*
X124411038Y-85883623D02*
X124450522Y-85874461D01*
X155250000Y-77250000D02*
X155250000Y-73400000D01*
X124906610Y-85557014D02*
X124928915Y-85523171D01*
X111742993Y-42578902D02*
X111717379Y-42610315D01*
X156850000Y-32500000D02*
X156851026Y-32540519D01*
X170313311Y-85339490D02*
X170324461Y-85300522D01*
X157070165Y-20248826D02*
X157042993Y-20278902D01*
X154971097Y-33107006D02*
X155001173Y-33079834D01*
X171966376Y-95538961D02*
X171959225Y-95578857D01*
X185385166Y-85415484D02*
X185400201Y-85377844D01*
X126714833Y-20484515D02*
X126699798Y-20522155D01*
X157609480Y-55598973D02*
X157650000Y-55600000D01*
X139350000Y-20000000D02*
X137950000Y-20000000D01*
X126960315Y-55432620D02*
X126992985Y-55456610D01*
X157192985Y-72743389D02*
X157160315Y-72767379D01*
X125048973Y-95659480D02*
X125045895Y-95619065D01*
X124985166Y-32815484D02*
X125000201Y-32777844D01*
X141917379Y-20310315D02*
X141893389Y-20342985D01*
X155233623Y-85261038D02*
X155240774Y-85221142D01*
X170249477Y-107788241D02*
X170268243Y-107752315D01*
X172750000Y-20000000D02*
X172709480Y-20001026D01*
X126699798Y-42822155D02*
X126686688Y-42860509D01*
X112034515Y-20064833D02*
X111997684Y-20081756D01*
X141917379Y-72910315D02*
X141893389Y-72942985D01*
X112072155Y-33250201D02*
X112110509Y-33263311D01*
X127061758Y-72700522D02*
X127026828Y-72721084D01*
X172588961Y-42316376D02*
X172549477Y-42325538D01*
X124928915Y-42676828D02*
X124906610Y-42642985D01*
X144000000Y-74650000D02*
X144000000Y-72600000D01*
X157017379Y-55289684D02*
X157042993Y-55321097D01*
X154939684Y-95067379D02*
X154907014Y-95043389D01*
X109550000Y-81250000D02*
X111550000Y-81250000D01*
X140068243Y-32852315D02*
X140085166Y-32815484D01*
X124801173Y-55379834D02*
X124829834Y-55351173D01*
X184650000Y-72600000D02*
X183250000Y-72600000D01*
X124330934Y-85895895D02*
X124371142Y-85890774D01*
X126666376Y-85261038D02*
X126675538Y-85300522D01*
X142272155Y-94949798D02*
X142234515Y-94964833D01*
X172361758Y-55499477D02*
X172397684Y-55518243D01*
X187450000Y-81250000D02*
X187450000Y-99550000D01*
X126750522Y-42711758D02*
X126731756Y-42747684D01*
X111860315Y-33132620D02*
X111892985Y-33156610D01*
X171975538Y-85300522D02*
X171986688Y-85339490D01*
X127409480Y-72601026D02*
X127409480Y-72601026D01*
X170007014Y-20143389D02*
X169973171Y-20121084D01*
X185328915Y-20376828D02*
X185306610Y-20342985D01*
X172031756Y-20447684D02*
X172014833Y-20484515D01*
X141754104Y-107480934D02*
X141759225Y-107521142D01*
X155057006Y-42578902D02*
X155029834Y-42548826D01*
X185450000Y-99550000D02*
X185450000Y-95700000D01*
X185450000Y-32500000D02*
X185450000Y-28650000D01*
X169671142Y-108190774D02*
X169711038Y-108183623D01*
X154490519Y-85898973D02*
X154530934Y-85895895D01*
X172361758Y-72700522D02*
X172326828Y-72721084D01*
X111550000Y-20800000D02*
X111550000Y-24650000D01*
X127134515Y-33235166D02*
X127172155Y-33250201D01*
X156899798Y-20522155D02*
X156886688Y-20560509D01*
X142060315Y-42467379D02*
X142028902Y-42492993D01*
X172050522Y-85488241D02*
X172071084Y-85523171D01*
X172628857Y-94909225D02*
X172588961Y-94916376D01*
X141775538Y-32700522D02*
X141786688Y-32739490D01*
X139929834Y-72848826D02*
X139901173Y-72820165D01*
X142349477Y-33274461D02*
X142388961Y-33283623D01*
X139511038Y-55583623D02*
X139550522Y-55574461D01*
X111551026Y-73359480D02*
X111550000Y-73400000D01*
X111693389Y-72942985D02*
X111671084Y-72976828D01*
X111550000Y-81250000D02*
X111550000Y-85100000D01*
X139627844Y-20049798D02*
X139589490Y-20036688D01*
X124829834Y-42548826D02*
X124801173Y-42520165D01*
X154939684Y-72767379D02*
X154907014Y-72743389D01*
X156950522Y-85488241D02*
X156971084Y-85523171D01*
X154727844Y-72649798D02*
X154689490Y-72636688D01*
X185448973Y-85140519D02*
X185450000Y-85100000D01*
X139430934Y-20004104D02*
X139390519Y-20001026D01*
X172050522Y-55188241D02*
X172071084Y-55223171D01*
X169789490Y-20036688D02*
X169750522Y-20025538D01*
X154907014Y-33156610D02*
X154939684Y-33132620D01*
X185073171Y-108078915D02*
X185107014Y-108056610D01*
X172228902Y-85707006D02*
X172260315Y-85732620D01*
X170340774Y-42978857D02*
X170333623Y-42938961D01*
X141942993Y-33021097D02*
X141970165Y-33051173D01*
X176700000Y-33300000D02*
X176700000Y-37800000D01*
X126666376Y-32661038D02*
X126675538Y-32700522D01*
X185073171Y-33178915D02*
X185107014Y-33156610D01*
X141754104Y-73319065D02*
X141751026Y-73359480D01*
X170206610Y-85557014D02*
X170228915Y-85523171D01*
X157569065Y-42304104D02*
X157528857Y-42309225D01*
X172071084Y-32923171D02*
X172093389Y-32957014D01*
X156993389Y-32957014D02*
X157017379Y-32989684D01*
X141786688Y-42860509D02*
X141775538Y-42899477D01*
X156851026Y-73359480D02*
X156850000Y-73400000D01*
X170249477Y-85488241D02*
X170268243Y-85452315D01*
X185282620Y-42610315D02*
X185257006Y-42578902D01*
X124949477Y-107788241D02*
X124968243Y-107752315D01*
X126699798Y-85377844D02*
X126714833Y-85415484D01*
X156050000Y-24650000D02*
X155250000Y-24650000D01*
X139929834Y-42548826D02*
X139901173Y-42520165D01*
X111742993Y-72878902D02*
X111717379Y-72910315D01*
X169902315Y-55518243D02*
X169938241Y-55499477D01*
X172588961Y-94916376D02*
X172549477Y-94925538D01*
X140133623Y-95538961D02*
X140124461Y-95499477D01*
X172117379Y-32989684D02*
X172142993Y-33021097D01*
X140140774Y-73278857D02*
X140133623Y-73238961D01*
X111599798Y-95422155D02*
X111586688Y-95460509D01*
X170129834Y-33051173D02*
X170157006Y-33021097D01*
X126650000Y-20800000D02*
X126650000Y-24650000D01*
X139957006Y-72878902D02*
X139929834Y-72848826D01*
X170300201Y-85377844D02*
X170313311Y-85339490D01*
X168100000Y-55600000D02*
X169550000Y-55600000D01*
X120300000Y-74650000D02*
X113800000Y-74650000D01*
X112110509Y-108163311D02*
X112149477Y-108174461D01*
X170345895Y-20719065D02*
X170340774Y-20678857D01*
X171950000Y-50950000D02*
X171950000Y-54800000D01*
X142310509Y-42336688D02*
X142272155Y-42349798D01*
X127450000Y-42300000D02*
X127409480Y-42301026D01*
X142428857Y-94909225D02*
X142388961Y-94916376D01*
X125048973Y-73359480D02*
X125045895Y-73319065D01*
X185368243Y-85452315D02*
X185385166Y-85415484D01*
X183250000Y-22050000D02*
X174200000Y-22050000D01*
X126650000Y-73400000D02*
X126650000Y-77250000D01*
X111742993Y-33021097D02*
X111770165Y-33051173D01*
X124771097Y-72792993D02*
X124739684Y-72767379D01*
X185257006Y-85621097D02*
X185282620Y-85589684D01*
X180700000Y-33300000D02*
X184650000Y-33300000D01*
X124771097Y-20192993D02*
X124739684Y-20167379D01*
X172709480Y-20001026D02*
X172669065Y-20004104D01*
X154571142Y-85890774D02*
X154611038Y-85883623D01*
X172142993Y-95178902D02*
X172117379Y-95210315D01*
X142161758Y-95000522D02*
X142126828Y-95021084D01*
X172198826Y-72820165D02*
X172170165Y-72848826D01*
X125045895Y-73319065D02*
X125040774Y-73278857D01*
X126771084Y-72976828D02*
X126750522Y-73011758D01*
X169938241Y-55499477D02*
X169973171Y-55478915D01*
X125024461Y-95499477D02*
X125013311Y-95460509D01*
X141754104Y-85180934D02*
X141759225Y-85221142D01*
X125048973Y-107440519D02*
X125050000Y-107400000D01*
X139350000Y-72600000D02*
X137950000Y-72600000D01*
X124371142Y-42309225D02*
X124330934Y-42304104D01*
X124602315Y-33218243D02*
X124638241Y-33199477D01*
X124928915Y-85523171D02*
X124949477Y-85488241D01*
X157297684Y-42381756D02*
X157261758Y-42400522D01*
X142092985Y-42443389D02*
X142060315Y-42467379D01*
X125024461Y-42899477D02*
X125013311Y-42860509D01*
X126650000Y-103550000D02*
X126650000Y-107400000D01*
X139471142Y-85890774D02*
X139511038Y-85883623D01*
X141970165Y-107951173D02*
X141998826Y-107979834D01*
X124673171Y-20121084D02*
X124638241Y-20100522D01*
X141970165Y-42548826D02*
X141942993Y-42578902D01*
X156875538Y-32700522D02*
X156886688Y-32739490D01*
X185400201Y-107677844D02*
X185413311Y-107639490D01*
X141786688Y-20560509D02*
X141775538Y-20599477D01*
X141998826Y-33079834D02*
X142028902Y-33107006D01*
X156875538Y-85300522D02*
X156886688Y-85339490D01*
X172549477Y-108174461D02*
X172588961Y-108183623D01*
X111742993Y-20278902D02*
X111717379Y-20310315D01*
X140150000Y-107400000D02*
X140150000Y-103550000D01*
X187450000Y-50950000D02*
X187450000Y-77250000D01*
X127026828Y-85778915D02*
X127061758Y-85799477D01*
X156931756Y-42747684D02*
X156914833Y-42784515D01*
X154873171Y-20121084D02*
X154838241Y-20100522D01*
X172228902Y-55407006D02*
X172260315Y-55432620D01*
X155082620Y-85589684D02*
X155106610Y-85557014D01*
X170345895Y-54880934D02*
X170348973Y-54840519D01*
X141759225Y-95578857D02*
X141754104Y-95619065D01*
X141754104Y-54880934D02*
X141759225Y-54921142D01*
X139839684Y-95067379D02*
X139807014Y-95043389D01*
X156866376Y-73238961D02*
X156859225Y-73278857D01*
X170157006Y-55321097D02*
X170182620Y-55289684D01*
X124330934Y-108195895D02*
X124371142Y-108190774D01*
X111599798Y-32777844D02*
X111614833Y-32815484D01*
X185448973Y-107440519D02*
X185450000Y-107400000D01*
X124250000Y-108200000D02*
X124290519Y-108198973D01*
X169827844Y-20049798D02*
X169789490Y-20036688D01*
X169750522Y-20025538D02*
X169711038Y-20016376D01*
X172397684Y-55518243D02*
X172434515Y-55535166D01*
X155149477Y-55188241D02*
X155168243Y-55152315D01*
X172326828Y-42421084D02*
X172292985Y-42443389D01*
X171150000Y-81250000D02*
X171950000Y-81250000D01*
X150500000Y-94900000D02*
X150500000Y-90400000D01*
X155082620Y-32989684D02*
X155106610Y-32957014D01*
X184690519Y-55598973D02*
X184730934Y-55595895D01*
X172750000Y-42300000D02*
X172709480Y-42301026D01*
X185368243Y-55152315D02*
X185385166Y-55115484D01*
X126771084Y-42676828D02*
X126750522Y-42711758D01*
X172669065Y-33295895D02*
X172709480Y-33298973D01*
X126731756Y-95347684D02*
X126714833Y-95384515D01*
X185171097Y-72792993D02*
X185139684Y-72767379D01*
X125050000Y-95700000D02*
X125048973Y-95659480D01*
X126650000Y-99550000D02*
X125850000Y-99550000D01*
X140148973Y-73359480D02*
X140145895Y-73319065D01*
X170228915Y-20376828D02*
X170206610Y-20342985D01*
X124968243Y-95347684D02*
X124949477Y-95311758D01*
X126650000Y-46950000D02*
X125850000Y-46950000D01*
X142349477Y-108174461D02*
X142388961Y-108183623D01*
X142388961Y-94916376D02*
X142349477Y-94925538D01*
X185413311Y-73160509D02*
X185400201Y-73122155D01*
X170350000Y-54800000D02*
X170350000Y-50950000D01*
X142310509Y-108163311D02*
X142349477Y-108174461D01*
X126793389Y-107857014D02*
X126817379Y-107889684D01*
X141850522Y-73011758D02*
X141831756Y-73047684D01*
X127026828Y-20121084D02*
X126992985Y-20143389D01*
X171986688Y-42860509D02*
X171975538Y-42899477D01*
X155057006Y-107921097D02*
X155082620Y-107889684D01*
X127409480Y-55598973D02*
X127450000Y-55600000D01*
X139773171Y-72721084D02*
X139738241Y-72700522D01*
X111586688Y-85339490D02*
X111599798Y-85377844D01*
X116300000Y-94900000D02*
X112350000Y-94900000D01*
X111892985Y-20143389D02*
X111860315Y-20167379D01*
X170268243Y-95347684D02*
X170249477Y-95311758D01*
X170007014Y-85756610D02*
X170039684Y-85732620D01*
X139511038Y-20016376D02*
X139471142Y-20009225D01*
X141831756Y-95347684D02*
X141814833Y-95384515D01*
X171986688Y-95460509D02*
X171975538Y-95499477D01*
X154971097Y-95092993D02*
X154939684Y-95067379D01*
X113800000Y-74650000D02*
X113800000Y-72600000D01*
X142197684Y-94981756D02*
X142161758Y-95000522D01*
X156971084Y-72976828D02*
X156950522Y-73011758D01*
X125050000Y-103550000D02*
X125850000Y-103550000D01*
X170285166Y-55115484D02*
X170300201Y-55077844D01*
X154838241Y-42400522D02*
X154802315Y-42381756D01*
X185385166Y-55115484D02*
X185400201Y-55077844D01*
X111742993Y-85621097D02*
X111770165Y-85651173D01*
X125024461Y-20599477D02*
X125013311Y-20560509D01*
X184771142Y-33290774D02*
X184811038Y-33283623D01*
X112309480Y-20001026D02*
X112269065Y-20004104D01*
X126714833Y-73084515D02*
X126699798Y-73122155D01*
X127369065Y-55595895D02*
X127409480Y-55598973D01*
X157017379Y-42610315D02*
X156993389Y-42642985D01*
X154530934Y-20004104D02*
X154490519Y-20001026D01*
X157609480Y-85898973D02*
X157650000Y-85900000D01*
X135400000Y-37800000D02*
X135400000Y-33300000D01*
X140028915Y-20376828D02*
X140006610Y-20342985D01*
X124330934Y-42304104D02*
X124290519Y-42301026D01*
X146500000Y-37800000D02*
X146500000Y-42300000D01*
X172014833Y-95384515D02*
X171999798Y-95422155D01*
X124290519Y-94901026D02*
X124250000Y-94900000D01*
X170345895Y-43019065D02*
X170340774Y-42978857D01*
X141893389Y-95242985D02*
X141871084Y-95276828D01*
X154611038Y-42316376D02*
X154571142Y-42309225D01*
X171951026Y-95659480D02*
X171950000Y-95700000D01*
X141759225Y-32621142D02*
X141766376Y-32661038D01*
X172117379Y-95210315D02*
X172093389Y-95242985D01*
X172588961Y-55583623D02*
X172628857Y-55590774D01*
X139738241Y-20100522D02*
X139702315Y-20081756D01*
X171150000Y-24650000D02*
X170350000Y-24650000D01*
X155001173Y-42520165D02*
X154971097Y-42492993D01*
X169630934Y-85895895D02*
X169671142Y-85890774D01*
X170007014Y-42443389D02*
X169973171Y-42421084D01*
X139430934Y-33295895D02*
X139471142Y-33290774D01*
X170268243Y-42747684D02*
X170249477Y-42711758D01*
X157070165Y-55351173D02*
X157098826Y-55379834D01*
X157609480Y-108198973D02*
X157650000Y-108200000D01*
X156850000Y-85100000D02*
X156851026Y-85140519D01*
X116300000Y-37800000D02*
X116300000Y-42300000D01*
X157128902Y-20192993D02*
X157098826Y-20220165D01*
X154838241Y-95000522D02*
X154802315Y-94981756D01*
X155168243Y-42747684D02*
X155149477Y-42711758D01*
X141893389Y-42642985D02*
X141871084Y-42676828D01*
X111997684Y-108118243D02*
X112034515Y-108135166D01*
X170300201Y-73122155D02*
X170285166Y-73084515D01*
X141942993Y-20278902D02*
X141917379Y-20310315D01*
X169865484Y-42364833D02*
X169827844Y-42349798D01*
X185038241Y-95000522D02*
X185002315Y-94981756D01*
X169865484Y-72664833D02*
X169827844Y-72649798D01*
X125850000Y-99550000D02*
X125050000Y-99550000D01*
X185349477Y-20411758D02*
X185328915Y-20376828D01*
X126650000Y-81250000D02*
X126650000Y-85100000D01*
X111828902Y-85707006D02*
X111860315Y-85732620D01*
X140006610Y-20342985D02*
X139982620Y-20310315D01*
X142028902Y-42492993D02*
X141998826Y-42520165D01*
X154873171Y-42421084D02*
X154838241Y-42400522D01*
X111566376Y-107561038D02*
X111575538Y-107600522D01*
X172050522Y-42711758D02*
X172031756Y-42747684D01*
X139350000Y-55600000D02*
X139390519Y-55598973D01*
X120300000Y-94900000D02*
X120300000Y-90400000D01*
X139871097Y-108007006D02*
X139901173Y-107979834D01*
X111961758Y-95000522D02*
X111926828Y-95021084D01*
X169590519Y-85898973D02*
X169630934Y-85895895D01*
X169750522Y-85874461D02*
X169789490Y-85863311D01*
X126666376Y-95538961D02*
X126659225Y-95578857D01*
X127288961Y-72616376D02*
X127249477Y-72625538D01*
X140085166Y-95384515D02*
X140068243Y-95347684D01*
X127097684Y-85818243D02*
X127134515Y-85835166D01*
X111926828Y-20121084D02*
X111892985Y-20143389D01*
X172050522Y-107788241D02*
X172071084Y-107823171D01*
X124949477Y-73011758D02*
X124928915Y-72976828D01*
X139627844Y-94949798D02*
X139589490Y-94936688D01*
X155224461Y-55000522D02*
X155233623Y-54961038D01*
X170182620Y-95210315D02*
X170157006Y-95178902D01*
X171966376Y-73238961D02*
X171959225Y-73278857D01*
X156854104Y-20719065D02*
X156851026Y-20759480D01*
X156993389Y-85557014D02*
X157017379Y-85589684D01*
X170340774Y-32621142D02*
X170345895Y-32580934D01*
X111650522Y-55188241D02*
X111671084Y-55223171D01*
X127249477Y-85874461D02*
X127288961Y-85883623D01*
X172434515Y-85835166D02*
X172472155Y-85850201D01*
X140113311Y-73160509D02*
X140100201Y-73122155D01*
X139589490Y-42336688D02*
X139550522Y-42325538D01*
X172326828Y-33178915D02*
X172361758Y-33199477D01*
X140145895Y-43019065D02*
X140140774Y-42978857D01*
X154571142Y-42309225D02*
X154530934Y-42304104D01*
X124250000Y-94900000D02*
X120300000Y-94900000D01*
X140124461Y-85300522D02*
X140133623Y-85261038D01*
X124739684Y-72767379D02*
X124707014Y-72743389D01*
X170206610Y-107857014D02*
X170228915Y-107823171D01*
X139627844Y-42349798D02*
X139589490Y-42336688D01*
X156950522Y-32888241D02*
X156971084Y-32923171D01*
X170350000Y-95700000D02*
X170348973Y-95659480D01*
X139589490Y-108163311D02*
X139627844Y-108150201D01*
X139350000Y-33300000D02*
X139390519Y-33298973D01*
X124673171Y-108078915D02*
X124707014Y-108056610D01*
X111599798Y-42822155D02*
X111586688Y-42860509D01*
X139982620Y-85589684D02*
X140006610Y-85557014D01*
X124985166Y-55115484D02*
X125000201Y-55077844D01*
X139871097Y-85707006D02*
X139901173Y-85679834D01*
X172228902Y-108007006D02*
X172260315Y-108032620D01*
X155233623Y-54961038D02*
X155240774Y-54921142D01*
X185038241Y-42400522D02*
X185002315Y-42381756D01*
X111926828Y-33178915D02*
X111961758Y-33199477D01*
X172510509Y-55563311D02*
X172549477Y-55574461D01*
X111551026Y-95659480D02*
X111550000Y-95700000D01*
X185107014Y-108056610D02*
X185139684Y-108032620D01*
X112072155Y-108150201D02*
X112110509Y-108163311D01*
X112034515Y-42364833D02*
X111997684Y-42381756D01*
X172228902Y-33107006D02*
X172260315Y-33132620D01*
X139430934Y-108195895D02*
X139471142Y-108190774D01*
X170300201Y-107677844D02*
X170313311Y-107639490D01*
X185440774Y-95578857D02*
X185433623Y-95538961D01*
X156050000Y-99550000D02*
X155250000Y-99550000D01*
X185229834Y-55351173D02*
X185257006Y-55321097D01*
X142028902Y-55407006D02*
X142060315Y-55432620D01*
X169711038Y-20016376D02*
X169671142Y-20009225D01*
X172071084Y-55223171D02*
X172093389Y-55257014D01*
X124602315Y-94981756D02*
X124565484Y-94964833D01*
X184927844Y-55550201D02*
X184965484Y-55535166D01*
X185038241Y-108099477D02*
X185073171Y-108078915D01*
X127328857Y-33290774D02*
X127369065Y-33295895D01*
X172198826Y-55379834D02*
X172228902Y-55407006D01*
X139773171Y-85778915D02*
X139807014Y-85756610D01*
X154689490Y-55563311D02*
X154727844Y-55550201D01*
X139511038Y-42316376D02*
X139471142Y-42309225D01*
X126699798Y-95422155D02*
X126686688Y-95460509D01*
X141766376Y-42938961D02*
X141759225Y-42978857D01*
X154765484Y-108135166D02*
X154802315Y-108118243D01*
X172117379Y-107889684D02*
X172142993Y-107921097D01*
X172361758Y-33199477D02*
X172397684Y-33218243D01*
X155245895Y-54880934D02*
X155248973Y-54840519D01*
X140100201Y-73122155D02*
X140085166Y-73084515D01*
X156993389Y-107857014D02*
X157017379Y-107889684D01*
X124906610Y-107857014D02*
X124928915Y-107823171D01*
X127328857Y-85890774D02*
X127369065Y-85895895D01*
X112269065Y-72604104D02*
X112228857Y-72609225D01*
X184650000Y-85900000D02*
X184690519Y-85898973D01*
X112149477Y-55574461D02*
X112188961Y-55583623D01*
X124638241Y-72700522D02*
X124602315Y-72681756D01*
X155245895Y-95619065D02*
X155240774Y-95578857D01*
X155185166Y-32815484D02*
X155200201Y-32777844D01*
X185282620Y-72910315D02*
X185257006Y-72878902D01*
X139839684Y-108032620D02*
X139871097Y-108007006D01*
X185448973Y-95659480D02*
X185445895Y-95619065D01*
X111586688Y-55039490D02*
X111599798Y-55077844D01*
X141786688Y-95460509D02*
X141775538Y-95499477D01*
X126650000Y-50950000D02*
X126650000Y-54800000D01*
X171959225Y-42978857D02*
X171954104Y-43019065D01*
X157160315Y-33132620D02*
X157192985Y-33156610D01*
X124450522Y-72625538D02*
X124411038Y-72616376D01*
X157528857Y-94909225D02*
X157488961Y-94916376D01*
X112072155Y-20049798D02*
X112034515Y-20064833D01*
X185448973Y-32540519D02*
X185450000Y-32500000D01*
X111860315Y-72767379D02*
X111828902Y-72792993D01*
X141786688Y-55039490D02*
X141799798Y-55077844D01*
X172361758Y-42400522D02*
X172326828Y-42421084D01*
X127026828Y-95021084D02*
X126992985Y-95043389D01*
X155213311Y-85339490D02*
X155224461Y-85300522D01*
X126675538Y-32700522D02*
X126686688Y-32739490D01*
X169789490Y-94936688D02*
X169750522Y-94925538D01*
X172709480Y-85898973D02*
X172750000Y-85900000D01*
X125040774Y-32621142D02*
X125045895Y-32580934D01*
X169711038Y-94916376D02*
X169671142Y-94909225D01*
X156859225Y-73278857D02*
X156854104Y-73319065D01*
X141814833Y-73084515D02*
X141799798Y-73122155D01*
X169827844Y-42349798D02*
X169789490Y-42336688D01*
X104550000Y-20000000D02*
X104550000Y-20000000D01*
X172014833Y-85415484D02*
X172031756Y-85452315D01*
X172093389Y-20342985D02*
X172071084Y-20376828D01*
X172142993Y-107921097D02*
X172170165Y-107951173D01*
X171950000Y-54800000D02*
X171951026Y-54840519D01*
X155168243Y-55152315D02*
X155185166Y-55115484D01*
X172397684Y-20081756D02*
X172361758Y-20100522D01*
X124565484Y-72664833D02*
X124527844Y-72649798D01*
X142310509Y-94936688D02*
X142272155Y-94949798D01*
X170071097Y-33107006D02*
X170101173Y-33079834D01*
X154530934Y-55595895D02*
X154571142Y-55590774D01*
X139929834Y-20248826D02*
X139901173Y-20220165D01*
X140124461Y-73199477D02*
X140113311Y-73160509D01*
X140068243Y-20447684D02*
X140049477Y-20411758D01*
X141850522Y-32888241D02*
X141871084Y-32923171D01*
X111770165Y-33051173D02*
X111798826Y-33079834D01*
X126651026Y-85140519D02*
X126654104Y-85180934D01*
X155240774Y-42978857D02*
X155233623Y-42938961D01*
X126675538Y-73199477D02*
X126666376Y-73238961D01*
X155106610Y-72942985D02*
X155082620Y-72910315D01*
X154450000Y-94900000D02*
X150500000Y-94900000D01*
X111671084Y-42676828D02*
X111650522Y-42711758D01*
X140085166Y-20484515D02*
X140068243Y-20447684D01*
X126699798Y-107677844D02*
X126714833Y-107715484D01*
X157070165Y-72848826D02*
X157042993Y-72878902D01*
X140148973Y-20759480D02*
X140145895Y-20719065D01*
X141831756Y-55152315D02*
X141850522Y-55188241D01*
X185385166Y-95384515D02*
X185368243Y-95347684D01*
X157449477Y-42325538D02*
X157410509Y-42336688D01*
X157098826Y-95120165D02*
X157070165Y-95148826D01*
X127172155Y-33250201D02*
X127210509Y-33263311D01*
X185201173Y-42520165D02*
X185171097Y-42492993D01*
X172198826Y-95120165D02*
X172170165Y-95148826D01*
X169711038Y-85883623D02*
X169750522Y-85874461D01*
X171975538Y-32700522D02*
X171986688Y-32739490D01*
X127026828Y-33178915D02*
X127061758Y-33199477D01*
X140068243Y-42747684D02*
X140049477Y-42711758D01*
X111575538Y-85300522D02*
X111586688Y-85339490D01*
X126675538Y-55000522D02*
X126686688Y-55039490D01*
X124928915Y-95276828D02*
X124906610Y-95242985D01*
X170249477Y-95311758D02*
X170228915Y-95276828D01*
X157650000Y-94900000D02*
X157609480Y-94901026D01*
X141766376Y-107561038D02*
X141775538Y-107600522D01*
X169550000Y-85900000D02*
X169590519Y-85898973D01*
X172170165Y-42548826D02*
X172142993Y-42578902D01*
X155250000Y-43100000D02*
X155250000Y-43100000D01*
X141998826Y-85679834D02*
X142028902Y-85707006D01*
X111742993Y-55321097D02*
X111770165Y-55351173D01*
X127249477Y-55574461D02*
X127288961Y-55583623D01*
X156850000Y-95700000D02*
X156850000Y-99550000D01*
X157372155Y-55550201D02*
X157410509Y-55563311D01*
X156914833Y-85415484D02*
X156931756Y-85452315D01*
X154802315Y-94981756D02*
X154765484Y-94964833D01*
X157042993Y-20278902D02*
X157017379Y-20310315D01*
X170228915Y-55223171D02*
X170249477Y-55188241D01*
X170285166Y-85415484D02*
X170300201Y-85377844D01*
X125050000Y-32500000D02*
X125050000Y-28650000D01*
X111614833Y-107715484D02*
X111631756Y-107752315D01*
X142028902Y-72792993D02*
X141998826Y-72820165D01*
X156950522Y-95311758D02*
X156931756Y-95347684D01*
X142550000Y-20000000D02*
X142509480Y-20001026D01*
X124771097Y-108007006D02*
X124801173Y-107979834D01*
X154650522Y-55574461D02*
X154689490Y-55563311D01*
X185257006Y-95178902D02*
X185229834Y-95148826D01*
X171954104Y-107480934D02*
X171959225Y-107521142D01*
X111770165Y-95148826D02*
X111742993Y-95178902D01*
X172750000Y-85900000D02*
X176700000Y-85900000D01*
X126699798Y-55077844D02*
X126714833Y-55115484D01*
X126992985Y-85756610D02*
X127026828Y-85778915D01*
X111559225Y-54921142D02*
X111566376Y-54961038D01*
X172472155Y-108150201D02*
X172510509Y-108163311D01*
X184650000Y-20000000D02*
X183250000Y-20000000D01*
X154727844Y-85850201D02*
X154765484Y-85835166D01*
X112309480Y-72601026D02*
X112269065Y-72604104D01*
X184965484Y-42364833D02*
X184927844Y-42349798D01*
X170300201Y-32777844D02*
X170313311Y-32739490D01*
X170182620Y-55289684D02*
X170206610Y-55257014D01*
X140006610Y-32957014D02*
X140028915Y-32923171D01*
X142388961Y-20016376D02*
X142349477Y-20025538D01*
X111671084Y-72976828D02*
X111650522Y-73011758D01*
X127061758Y-108099477D02*
X127097684Y-108118243D01*
X141814833Y-107715484D02*
X141831756Y-107752315D01*
X139627844Y-85850201D02*
X139665484Y-85835166D01*
X112034515Y-72664833D02*
X111997684Y-72681756D01*
X185171097Y-20192993D02*
X185139684Y-20167379D01*
X124371142Y-85890774D02*
X124411038Y-85883623D01*
X140085166Y-85415484D02*
X140100201Y-85377844D01*
X124707014Y-72743389D02*
X124673171Y-72721084D01*
X120300000Y-37800000D02*
X120300000Y-33300000D01*
X111631756Y-107752315D02*
X111650522Y-107788241D01*
X185450000Y-77250000D02*
X185450000Y-77250000D01*
X142028902Y-108007006D02*
X142060315Y-108032620D01*
X172228902Y-72792993D02*
X172198826Y-72820165D01*
X185306610Y-72942985D02*
X185282620Y-72910315D01*
X185257006Y-33021097D02*
X185282620Y-32989684D01*
X140133623Y-42938961D02*
X140124461Y-42899477D01*
X141917379Y-107889684D02*
X141942993Y-107921097D01*
X156050000Y-77250000D02*
X155250000Y-77250000D01*
X154939684Y-85732620D02*
X154971097Y-85707006D01*
X140006610Y-85557014D02*
X140028915Y-85523171D01*
X112149477Y-94925538D02*
X112110509Y-94936688D01*
X155240774Y-32621142D02*
X155245895Y-32580934D01*
X140150000Y-103550000D02*
X140950000Y-103550000D01*
X126960315Y-108032620D02*
X126992985Y-108056610D01*
X170350000Y-43100000D02*
X170348973Y-43059480D01*
X170313311Y-55039490D02*
X170324461Y-55000522D01*
X157449477Y-108174461D02*
X157488961Y-108183623D01*
X155106610Y-42642985D02*
X155082620Y-42610315D01*
X111961758Y-42400522D02*
X111926828Y-42421084D01*
X157528857Y-20009225D02*
X157488961Y-20016376D01*
X111961758Y-55499477D02*
X111997684Y-55518243D01*
X184850522Y-42325538D02*
X184811038Y-42316376D01*
X142092985Y-72743389D02*
X142060315Y-72767379D01*
X170182620Y-72910315D02*
X170157006Y-72878902D01*
X172588961Y-108183623D02*
X172628857Y-108190774D01*
X171954104Y-32580934D02*
X171959225Y-32621142D01*
X157372155Y-85850201D02*
X157410509Y-85863311D01*
X140124461Y-20599477D02*
X140113311Y-20560509D01*
X174200000Y-72600000D02*
X172750000Y-72600000D01*
X126842993Y-85621097D02*
X126870165Y-85651173D01*
X116300000Y-42300000D02*
X112350000Y-42300000D01*
X126960315Y-95067379D02*
X126928902Y-95092993D01*
X112034515Y-33235166D02*
X112072155Y-33250201D01*
X184927844Y-108150201D02*
X184965484Y-108135166D01*
X185229834Y-95148826D02*
X185201173Y-95120165D01*
X111566376Y-73238961D02*
X111559225Y-73278857D01*
X185424461Y-73199477D02*
X185413311Y-73160509D01*
X111671084Y-85523171D02*
X111693389Y-85557014D01*
X170157006Y-72878902D02*
X170129834Y-72848826D01*
X156854104Y-54880934D02*
X156859225Y-54921142D01*
X155240774Y-20678857D02*
X155233623Y-20638961D01*
X171950000Y-24650000D02*
X171150000Y-24650000D01*
X139390519Y-108198973D02*
X139430934Y-108195895D01*
X184811038Y-33283623D02*
X184850522Y-33274461D01*
X127328857Y-94909225D02*
X127288961Y-94916376D01*
X169671142Y-85890774D02*
X169711038Y-85883623D01*
X124371142Y-33290774D02*
X124411038Y-33283623D01*
X112110509Y-85863311D02*
X112149477Y-85874461D01*
X174200000Y-20000000D02*
X172750000Y-20000000D01*
X112110509Y-94936688D02*
X112072155Y-94949798D01*
X180700000Y-85900000D02*
X184650000Y-85900000D01*
X184690519Y-72601026D02*
X184650000Y-72600000D01*
X184850522Y-72625538D02*
X184811038Y-72616376D01*
X139350000Y-85900000D02*
X139390519Y-85898973D01*
X172397684Y-33218243D02*
X172434515Y-33235166D01*
X142092985Y-55456610D02*
X142126828Y-55478915D01*
X127134515Y-94964833D02*
X127097684Y-94981756D01*
X168150000Y-72600000D02*
X168150000Y-74650000D01*
X141750000Y-20800000D02*
X141750000Y-24650000D01*
X126651026Y-54840519D02*
X126654104Y-54880934D01*
X111559225Y-107521142D02*
X111566376Y-107561038D01*
X169590519Y-85898973D02*
X169590519Y-85898973D01*
X185413311Y-85339490D02*
X185424461Y-85300522D01*
X142272155Y-20049798D02*
X142234515Y-20064833D01*
X111671084Y-55223171D02*
X111693389Y-55257014D01*
X111650522Y-32888241D02*
X111671084Y-32923171D01*
X170285166Y-73084515D02*
X170268243Y-73047684D01*
X171986688Y-32739490D02*
X171999798Y-32777844D01*
M02*
