M48
INCH,TZ
T1C0.0394
T2C0.0945
%
G90
G05
T1
X45719Y-17480
X45719Y-18169
X45719Y-38189
X45719Y-38878
X45758Y-11594
X45758Y-12283
X45758Y-32303
X45758Y-32992
X46555Y-17480
X46555Y-18169
X46555Y-38189
X46555Y-38878
X46594Y-11594
X46594Y-12283
X46594Y-32303
X46594Y-32992
X47392Y-17480
X47392Y-18169
X47392Y-38189
X47392Y-38878
X47431Y-11594
X47431Y-12283
X47431Y-32303
X47431Y-32992
X51663Y-17480
X51663Y-18169
X51663Y-38189
X51663Y-38878
X51703Y-11594
X51703Y-12283
X51703Y-32303
X51703Y-32992
X52500Y-17480
X52500Y-18169
X52500Y-38189
X52500Y-38878
X52539Y-11594
X52539Y-12283
X52539Y-32303
X52539Y-32992
X53337Y-17480
X53337Y-18169
X53337Y-38189
X53337Y-38878
X53376Y-11594
X53376Y-12283
X53376Y-32303
X53376Y-32992
X57608Y-17480
X57608Y-18169
X57608Y-38189
X57608Y-38878
X57648Y-11594
X57648Y-12283
X57648Y-32303
X57648Y-32992
X58445Y-17480
X58445Y-18169
X58445Y-38189
X58445Y-38878
X58484Y-11594
X58484Y-12283
X58484Y-32303
X58484Y-32992
X59281Y-17480
X59281Y-18169
X59281Y-38189
X59281Y-38878
X59321Y-11594
X59321Y-12283
X59321Y-32303
X59321Y-32992
X63553Y-17480
X63553Y-18169
X63553Y-38189
X63553Y-38878
X63593Y-11594
X63593Y-12283
X63593Y-32303
X63593Y-32992
X64390Y-17480
X64390Y-18169
X64390Y-38189
X64390Y-38878
X64429Y-11594
X64429Y-12283
X64429Y-32303
X64429Y-32992
X65226Y-17480
X65226Y-18169
X65226Y-38189
X65226Y-38878
X65266Y-11594
X65266Y-12283
X65266Y-32303
X65266Y-32992
X69498Y-17480
X69498Y-18169
X69498Y-38189
X69498Y-38878
X69537Y-11594
X69537Y-12283
X69537Y-32303
X69537Y-32992
X70335Y-17480
X70335Y-18169
X70335Y-38189
X70335Y-38878
X70374Y-11594
X70374Y-12283
X70374Y-32303
X70374Y-32992
X71171Y-17480
X71171Y-18169
X71171Y-38189
X71171Y-38878
X71211Y-11594
X71211Y-12283
X71211Y-32303
X71211Y-32992
T2
X44776Y-10378
X44776Y-31087
X44799Y-19386
X44799Y-40094
X48350Y-10378
X48350Y-31087
X48374Y-19386
X48374Y-40094
X50720Y-10378
X50720Y-31087
X50744Y-19386
X50744Y-40094
X54295Y-10378
X54295Y-31087
X54319Y-19386
X54319Y-40094
X56665Y-10378
X56665Y-31087
X56689Y-19386
X56689Y-40094
X60240Y-10378
X60240Y-31087
X60264Y-19386
X60264Y-40094
X62610Y-10378
X62610Y-31087
X62634Y-19386
X62634Y-40094
X66185Y-10378
X66185Y-31087
X66209Y-19386
X66209Y-40094
X68555Y-10378
X68555Y-31087
X68579Y-19386
X68579Y-40094
X72130Y-10378
X72130Y-31087
X72154Y-19386
X72154Y-40094
T1
G00X44587Y-17480
M15
G01X44587Y-17087
M16
G05
G00X44587Y-38189
M15
G01X44587Y-37795
M16
G05
G00X44626Y-12283
M15
G01X44626Y-12677
M16
G05
G00X44626Y-32992
M15
G01X44626Y-33386
M16
G05
G00X48524Y-17480
M15
G01X48524Y-17087
M16
G05
G00X48524Y-38189
M15
G01X48524Y-37795
M16
G05
G00X48563Y-12283
M15
G01X48563Y-12677
M16
G05
G00X48563Y-32992
M15
G01X48563Y-33386
M16
G05
G00X50531Y-17480
M15
G01X50531Y-17087
M16
G05
G00X50531Y-38189
M15
G01X50531Y-37795
M16
G05
G00X50571Y-12283
M15
G01X50571Y-12677
M16
G05
G00X50571Y-32992
M15
G01X50571Y-33386
M16
G05
G00X54469Y-17480
M15
G01X54469Y-17087
M16
G05
G00X54469Y-38189
M15
G01X54469Y-37795
M16
G05
G00X54508Y-12283
M15
G01X54508Y-12677
M16
G05
G00X54508Y-32992
M15
G01X54508Y-33386
M16
G05
G00X56476Y-17480
M15
G01X56476Y-17087
M16
G05
G00X56476Y-38189
M15
G01X56476Y-37795
M16
G05
G00X56516Y-12283
M15
G01X56516Y-12677
M16
G05
G00X56516Y-32992
M15
G01X56516Y-33386
M16
G05
G00X60413Y-17480
M15
G01X60413Y-17087
M16
G05
G00X60413Y-38189
M15
G01X60413Y-37795
M16
G05
G00X60453Y-12283
M15
G01X60453Y-12677
M16
G05
G00X60453Y-32992
M15
G01X60453Y-33386
M16
G05
G00X62421Y-17480
M15
G01X62421Y-17087
M16
G05
G00X62421Y-38189
M15
G01X62421Y-37795
M16
G05
G00X62461Y-12283
M15
G01X62461Y-12677
M16
G05
G00X62461Y-32992
M15
G01X62461Y-33386
M16
G05
G00X66358Y-17480
M15
G01X66358Y-17087
M16
G05
G00X66358Y-38189
M15
G01X66358Y-37795
M16
G05
G00X66398Y-12283
M15
G01X66398Y-12677
M16
G05
G00X66398Y-32992
M15
G01X66398Y-33386
M16
G05
G00X68366Y-17480
M15
G01X68366Y-17087
M16
G05
G00X68366Y-38189
M15
G01X68366Y-37795
M16
G05
G00X68406Y-12283
M15
G01X68406Y-12677
M16
G05
G00X68406Y-32992
M15
G01X68406Y-33386
M16
G05
G00X72303Y-17480
M15
G01X72303Y-17087
M16
G05
G00X72303Y-38189
M15
G01X72303Y-37795
M16
G05
G00X72343Y-12283
M15
G01X72343Y-12677
M16
G05
G00X72343Y-32992
M15
G01X72343Y-33386
M16
G05
T0
M30
