M48
INCH,TZ
T1C0.0177
T2C0.0787
%
G90
G05
T1
X43917Y-9705
X43917Y-9967
X43917Y-10230
X43917Y-10492
X43917Y-10755
X43917Y-11017
X43917Y-11280
X43917Y-18484
X43917Y-18747
X43917Y-19009
X43917Y-19272
X43917Y-19534
X43917Y-19797
X43917Y-20059
X43917Y-30413
X43917Y-30676
X43917Y-30938
X43917Y-31201
X43917Y-31463
X43917Y-31726
X43917Y-31988
X43917Y-39193
X43917Y-39455
X43917Y-39718
X43917Y-39980
X43917Y-40243
X43917Y-40505
X43917Y-40768
X45787Y-13110
X45787Y-16654
X45787Y-33819
X45787Y-37362
X46050Y-13110
X46050Y-16654
X46050Y-33819
X46050Y-37362
X46312Y-13110
X46312Y-16654
X46312Y-33819
X46312Y-37362
X46575Y-13110
X46575Y-16654
X46575Y-33819
X46575Y-37362
X46837Y-13110
X46837Y-16654
X46837Y-33819
X46837Y-37362
X47100Y-13110
X47100Y-16654
X47100Y-33819
X47100Y-37362
X47362Y-13110
X47362Y-16654
X47362Y-33819
X47362Y-37362
X49232Y-9705
X49232Y-9967
X49232Y-10230
X49232Y-10492
X49232Y-10755
X49232Y-11017
X49232Y-11280
X49232Y-18484
X49232Y-18747
X49232Y-19009
X49232Y-19272
X49232Y-19534
X49232Y-19797
X49232Y-20059
X49232Y-30413
X49232Y-30676
X49232Y-30938
X49232Y-31201
X49232Y-31463
X49232Y-31726
X49232Y-31988
X49232Y-39193
X49232Y-39455
X49232Y-39718
X49232Y-39980
X49232Y-40243
X49232Y-40505
X49232Y-40768
X49862Y-9705
X49862Y-9967
X49862Y-10230
X49862Y-10492
X49862Y-10755
X49862Y-11017
X49862Y-11280
X49862Y-18484
X49862Y-18747
X49862Y-19009
X49862Y-19272
X49862Y-19534
X49862Y-19797
X49862Y-20059
X49862Y-30413
X49862Y-30676
X49862Y-30938
X49862Y-31201
X49862Y-31463
X49862Y-31726
X49862Y-31988
X49862Y-39193
X49862Y-39455
X49862Y-39718
X49862Y-39980
X49862Y-40243
X49862Y-40505
X49862Y-40768
X51732Y-13110
X51732Y-16654
X51732Y-33819
X51732Y-37362
X51995Y-13110
X51995Y-16654
X51995Y-33819
X51995Y-37362
X52257Y-13110
X52257Y-16654
X52257Y-33819
X52257Y-37362
X52520Y-13110
X52520Y-16654
X52520Y-33819
X52520Y-37362
X52782Y-13110
X52782Y-16654
X52782Y-33819
X52782Y-37362
X53045Y-13110
X53045Y-16654
X53045Y-33819
X53045Y-37362
X53307Y-13110
X53307Y-16654
X53307Y-33819
X53307Y-37362
X55177Y-9705
X55177Y-9967
X55177Y-10230
X55177Y-10492
X55177Y-10755
X55177Y-11017
X55177Y-11280
X55177Y-18484
X55177Y-18747
X55177Y-19009
X55177Y-19272
X55177Y-19534
X55177Y-19797
X55177Y-20059
X55177Y-30413
X55177Y-30676
X55177Y-30938
X55177Y-31201
X55177Y-31463
X55177Y-31726
X55177Y-31988
X55177Y-39193
X55177Y-39455
X55177Y-39718
X55177Y-39980
X55177Y-40243
X55177Y-40505
X55177Y-40768
X55807Y-9705
X55807Y-9967
X55807Y-10230
X55807Y-10492
X55807Y-10755
X55807Y-11017
X55807Y-11280
X55807Y-18484
X55807Y-18747
X55807Y-19009
X55807Y-19272
X55807Y-19534
X55807Y-19797
X55807Y-20059
X55807Y-30413
X55807Y-30676
X55807Y-30938
X55807Y-31201
X55807Y-31463
X55807Y-31726
X55807Y-31988
X55807Y-39193
X55807Y-39455
X55807Y-39718
X55807Y-39980
X55807Y-40243
X55807Y-40505
X55807Y-40768
X57677Y-13110
X57677Y-16654
X57677Y-33819
X57677Y-37362
X57940Y-13110
X57940Y-16654
X57940Y-33819
X57940Y-37362
X58202Y-13110
X58202Y-16654
X58202Y-33819
X58202Y-37362
X58465Y-13110
X58465Y-16654
X58465Y-33819
X58465Y-37362
X58727Y-13110
X58727Y-16654
X58727Y-33819
X58727Y-37362
X58990Y-13110
X58990Y-16654
X58990Y-33819
X58990Y-37362
X59252Y-13110
X59252Y-16654
X59252Y-33819
X59252Y-37362
X61122Y-9705
X61122Y-9967
X61122Y-10230
X61122Y-10492
X61122Y-10755
X61122Y-11017
X61122Y-11280
X61122Y-18484
X61122Y-18747
X61122Y-19009
X61122Y-19272
X61122Y-19534
X61122Y-19797
X61122Y-20059
X61122Y-30413
X61122Y-30676
X61122Y-30938
X61122Y-31201
X61122Y-31463
X61122Y-31726
X61122Y-31988
X61122Y-39193
X61122Y-39455
X61122Y-39718
X61122Y-39980
X61122Y-40243
X61122Y-40505
X61122Y-40768
X61752Y-9705
X61752Y-9967
X61752Y-10230
X61752Y-10492
X61752Y-10755
X61752Y-11017
X61752Y-11280
X61752Y-18484
X61752Y-18747
X61752Y-19009
X61752Y-19272
X61752Y-19534
X61752Y-19797
X61752Y-20059
X61752Y-30413
X61752Y-30676
X61752Y-30938
X61752Y-31201
X61752Y-31463
X61752Y-31726
X61752Y-31988
X61752Y-39193
X61752Y-39455
X61752Y-39718
X61752Y-39980
X61752Y-40243
X61752Y-40505
X61752Y-40768
X63622Y-13110
X63622Y-16654
X63622Y-33819
X63622Y-37362
X63885Y-13110
X63885Y-16654
X63885Y-33819
X63885Y-37362
X64147Y-13110
X64147Y-16654
X64147Y-33819
X64147Y-37362
X64409Y-13110
X64409Y-16654
X64409Y-33819
X64409Y-37362
X64672Y-13110
X64672Y-16654
X64672Y-33819
X64672Y-37362
X64934Y-13110
X64934Y-16654
X64934Y-33819
X64934Y-37362
X65197Y-13110
X65197Y-16654
X65197Y-33819
X65197Y-37362
X67067Y-9705
X67067Y-9967
X67067Y-10230
X67067Y-10492
X67067Y-10755
X67067Y-11017
X67067Y-11280
X67067Y-18484
X67067Y-18747
X67067Y-19009
X67067Y-19272
X67067Y-19534
X67067Y-19797
X67067Y-20059
X67067Y-30413
X67067Y-30676
X67067Y-30938
X67067Y-31201
X67067Y-31463
X67067Y-31726
X67067Y-31988
X67067Y-39193
X67067Y-39455
X67067Y-39718
X67067Y-39980
X67067Y-40243
X67067Y-40505
X67067Y-40768
X67697Y-9705
X67697Y-9967
X67697Y-10230
X67697Y-10492
X67697Y-10755
X67697Y-11017
X67697Y-11280
X67697Y-18484
X67697Y-18747
X67697Y-19009
X67697Y-19272
X67697Y-19534
X67697Y-19797
X67697Y-20059
X67697Y-30413
X67697Y-30676
X67697Y-30938
X67697Y-31201
X67697Y-31463
X67697Y-31726
X67697Y-31988
X67697Y-39193
X67697Y-39455
X67697Y-39718
X67697Y-39980
X67697Y-40243
X67697Y-40505
X67697Y-40768
X69567Y-13110
X69567Y-16654
X69567Y-33819
X69567Y-37362
X69829Y-13110
X69829Y-16654
X69829Y-33819
X69829Y-37362
X70092Y-13110
X70092Y-16654
X70092Y-33819
X70092Y-37362
X70354Y-13110
X70354Y-16654
X70354Y-33819
X70354Y-37362
X70617Y-13110
X70617Y-16654
X70617Y-33819
X70617Y-37362
X70879Y-13110
X70879Y-16654
X70879Y-33819
X70879Y-37362
X71142Y-13110
X71142Y-16654
X71142Y-33819
X71142Y-37362
X73012Y-9705
X73012Y-9967
X73012Y-10230
X73012Y-10492
X73012Y-10755
X73012Y-11017
X73012Y-11280
X73012Y-18484
X73012Y-18747
X73012Y-19009
X73012Y-19272
X73012Y-19534
X73012Y-19797
X73012Y-20059
X73012Y-30413
X73012Y-30676
X73012Y-30938
X73012Y-31201
X73012Y-31463
X73012Y-31726
X73012Y-31988
X73012Y-39193
X73012Y-39455
X73012Y-39718
X73012Y-39980
X73012Y-40243
X73012Y-40505
X73012Y-40768
T2
X42146Y-8858
X42146Y-41614
X74783Y-8858
X74783Y-41614
T0
M30
