G04 #@! TF.GenerationSoftware,KiCad,Pcbnew,7.0.7*
G04 #@! TF.CreationDate,2023-12-22T11:29:53-08:00*
G04 #@! TF.ProjectId,Micro_AGB_Dongle,4d696372-6f5f-4414-9742-5f446f6e676c,rev?*
G04 #@! TF.SameCoordinates,Original*
G04 #@! TF.FileFunction,Soldermask,Bot*
G04 #@! TF.FilePolarity,Negative*
%FSLAX46Y46*%
G04 Gerber Fmt 4.6, Leading zero omitted, Abs format (unit mm)*
G04 Created by KiCad (PCBNEW 7.0.7) date 2023-12-22 11:29:53*
%MOMM*%
%LPD*%
G01*
G04 APERTURE LIST*
G04 APERTURE END LIST*
G36*
X227345372Y-128979073D02*
G01*
X227396793Y-128979073D01*
X227441198Y-128988511D01*
X227480533Y-128992386D01*
X227529948Y-129007375D01*
X227586150Y-129019322D01*
X227622115Y-129035334D01*
X227654136Y-129045048D01*
X227705024Y-129072247D01*
X227763000Y-129098060D01*
X227789950Y-129117641D01*
X227814121Y-129130560D01*
X227863429Y-129171026D01*
X227919615Y-129211848D01*
X227937857Y-129232108D01*
X227954353Y-129245646D01*
X227998681Y-129299659D01*
X228049150Y-129355711D01*
X228059752Y-129374074D01*
X228069439Y-129385878D01*
X228105266Y-129452908D01*
X228145943Y-129523362D01*
X228150623Y-129537766D01*
X228154951Y-129545863D01*
X228178810Y-129624517D01*
X228205765Y-129707474D01*
X228206713Y-129716501D01*
X228207613Y-129719466D01*
X228216376Y-129808440D01*
X228226000Y-129900000D01*
X228226000Y-130900000D01*
X228216375Y-130991574D01*
X228207613Y-131080533D01*
X228206714Y-131083496D01*
X228205765Y-131092526D01*
X228178806Y-131175496D01*
X228154951Y-131254136D01*
X228150624Y-131262231D01*
X228145943Y-131276638D01*
X228105259Y-131347103D01*
X228069439Y-131414121D01*
X228059754Y-131425921D01*
X228049150Y-131444289D01*
X227998671Y-131500350D01*
X227954353Y-131554353D01*
X227937861Y-131567887D01*
X227919615Y-131588152D01*
X227863418Y-131628980D01*
X227814121Y-131669439D01*
X227789956Y-131682355D01*
X227763000Y-131701940D01*
X227705012Y-131727757D01*
X227654136Y-131754951D01*
X227622122Y-131764662D01*
X227586150Y-131780678D01*
X227529937Y-131792626D01*
X227480533Y-131807613D01*
X227441207Y-131811486D01*
X227396793Y-131820927D01*
X227345361Y-131820927D01*
X227299999Y-131825395D01*
X227254637Y-131820927D01*
X227203207Y-131820927D01*
X227158793Y-131811486D01*
X227119466Y-131807613D01*
X227070059Y-131792625D01*
X227013850Y-131780678D01*
X226977880Y-131764663D01*
X226945863Y-131754951D01*
X226894981Y-131727754D01*
X226837000Y-131701940D01*
X226810046Y-131682357D01*
X226785878Y-131669439D01*
X226736572Y-131628974D01*
X226680385Y-131588152D01*
X226662141Y-131567890D01*
X226645646Y-131554353D01*
X226601316Y-131500338D01*
X226550850Y-131444289D01*
X226540248Y-131425925D01*
X226530560Y-131414121D01*
X226494726Y-131347080D01*
X226454057Y-131276638D01*
X226449377Y-131262236D01*
X226445048Y-131254136D01*
X226421178Y-131175450D01*
X226394235Y-131092526D01*
X226393286Y-131083501D01*
X226392386Y-131080533D01*
X226383616Y-130991495D01*
X226374000Y-130900000D01*
X226374000Y-129900000D01*
X226383614Y-129808519D01*
X226392386Y-129719466D01*
X226393286Y-129716496D01*
X226394235Y-129707474D01*
X226421174Y-129624564D01*
X226445048Y-129545863D01*
X226449378Y-129537761D01*
X226454057Y-129523362D01*
X226494719Y-129452932D01*
X226530560Y-129385878D01*
X226540250Y-129374070D01*
X226550850Y-129355711D01*
X226601307Y-129299672D01*
X226645646Y-129245646D01*
X226662144Y-129232105D01*
X226680385Y-129211848D01*
X226736561Y-129171033D01*
X226785878Y-129130560D01*
X226810051Y-129117639D01*
X226837000Y-129098060D01*
X226894969Y-129072250D01*
X226945863Y-129045048D01*
X226977887Y-129035333D01*
X227013850Y-129019322D01*
X227070048Y-129007376D01*
X227119466Y-128992386D01*
X227158802Y-128988511D01*
X227203207Y-128979073D01*
X227254628Y-128979073D01*
X227300000Y-128974604D01*
X227345372Y-128979073D01*
G37*
G36*
X237345372Y-128979073D02*
G01*
X237396793Y-128979073D01*
X237441198Y-128988511D01*
X237480533Y-128992386D01*
X237529948Y-129007375D01*
X237586150Y-129019322D01*
X237622115Y-129035334D01*
X237654136Y-129045048D01*
X237705024Y-129072247D01*
X237763000Y-129098060D01*
X237789950Y-129117641D01*
X237814121Y-129130560D01*
X237863429Y-129171026D01*
X237919615Y-129211848D01*
X237937857Y-129232108D01*
X237954353Y-129245646D01*
X237998681Y-129299659D01*
X238049150Y-129355711D01*
X238059752Y-129374074D01*
X238069439Y-129385878D01*
X238105266Y-129452908D01*
X238145943Y-129523362D01*
X238150623Y-129537766D01*
X238154951Y-129545863D01*
X238178810Y-129624517D01*
X238205765Y-129707474D01*
X238206713Y-129716501D01*
X238207613Y-129719466D01*
X238216376Y-129808440D01*
X238226000Y-129900000D01*
X238226000Y-130900000D01*
X238216375Y-130991574D01*
X238207613Y-131080533D01*
X238206714Y-131083496D01*
X238205765Y-131092526D01*
X238178806Y-131175496D01*
X238154951Y-131254136D01*
X238150624Y-131262231D01*
X238145943Y-131276638D01*
X238105259Y-131347103D01*
X238069439Y-131414121D01*
X238059754Y-131425921D01*
X238049150Y-131444289D01*
X237998671Y-131500350D01*
X237954353Y-131554353D01*
X237937861Y-131567887D01*
X237919615Y-131588152D01*
X237863418Y-131628980D01*
X237814121Y-131669439D01*
X237789956Y-131682355D01*
X237763000Y-131701940D01*
X237705012Y-131727757D01*
X237654136Y-131754951D01*
X237622122Y-131764662D01*
X237586150Y-131780678D01*
X237529937Y-131792626D01*
X237480533Y-131807613D01*
X237441207Y-131811486D01*
X237396793Y-131820927D01*
X237345361Y-131820927D01*
X237299999Y-131825395D01*
X237254637Y-131820927D01*
X237203207Y-131820927D01*
X237158793Y-131811486D01*
X237119466Y-131807613D01*
X237070059Y-131792625D01*
X237013850Y-131780678D01*
X236977880Y-131764663D01*
X236945863Y-131754951D01*
X236894981Y-131727754D01*
X236837000Y-131701940D01*
X236810046Y-131682357D01*
X236785878Y-131669439D01*
X236736572Y-131628974D01*
X236680385Y-131588152D01*
X236662141Y-131567890D01*
X236645646Y-131554353D01*
X236601316Y-131500338D01*
X236550850Y-131444289D01*
X236540248Y-131425925D01*
X236530560Y-131414121D01*
X236494726Y-131347080D01*
X236454057Y-131276638D01*
X236449377Y-131262236D01*
X236445048Y-131254136D01*
X236421178Y-131175450D01*
X236394235Y-131092526D01*
X236393286Y-131083501D01*
X236392386Y-131080533D01*
X236383616Y-130991495D01*
X236374000Y-130900000D01*
X236374000Y-129900000D01*
X236383614Y-129808519D01*
X236392386Y-129719466D01*
X236393286Y-129716496D01*
X236394235Y-129707474D01*
X236421174Y-129624564D01*
X236445048Y-129545863D01*
X236449378Y-129537761D01*
X236454057Y-129523362D01*
X236494719Y-129452932D01*
X236530560Y-129385878D01*
X236540250Y-129374070D01*
X236550850Y-129355711D01*
X236601307Y-129299672D01*
X236645646Y-129245646D01*
X236662144Y-129232105D01*
X236680385Y-129211848D01*
X236736561Y-129171033D01*
X236785878Y-129130560D01*
X236810051Y-129117639D01*
X236837000Y-129098060D01*
X236894969Y-129072250D01*
X236945863Y-129045048D01*
X236977887Y-129035333D01*
X237013850Y-129019322D01*
X237070048Y-129007376D01*
X237119466Y-128992386D01*
X237158802Y-128988511D01*
X237203207Y-128979073D01*
X237254628Y-128979073D01*
X237300000Y-128974604D01*
X237345372Y-128979073D01*
G37*
G36*
X230215362Y-129480392D02*
G01*
X230284979Y-129489558D01*
X230292253Y-129492571D01*
X230306641Y-129494850D01*
X230345256Y-129514525D01*
X230387461Y-129532007D01*
X230403064Y-129543980D01*
X230425397Y-129555359D01*
X230450142Y-129580104D01*
X230475466Y-129599536D01*
X230494896Y-129624858D01*
X230519641Y-129649603D01*
X230531020Y-129671936D01*
X230542991Y-129687537D01*
X230560469Y-129729733D01*
X230580150Y-129768359D01*
X230582429Y-129782748D01*
X230585441Y-129790020D01*
X230594602Y-129859605D01*
X230601000Y-129900000D01*
X230594600Y-129940402D01*
X230585441Y-130009979D01*
X230582429Y-130017249D01*
X230580150Y-130031641D01*
X230560469Y-130070266D01*
X230542992Y-130112461D01*
X230531022Y-130128060D01*
X230519641Y-130150397D01*
X230494889Y-130175148D01*
X230475464Y-130200464D01*
X230450148Y-130219889D01*
X230425397Y-130244641D01*
X230403060Y-130256022D01*
X230387461Y-130267992D01*
X230345266Y-130285469D01*
X230306641Y-130305150D01*
X230292249Y-130307429D01*
X230284979Y-130310441D01*
X230215399Y-130319601D01*
X230175000Y-130326000D01*
X230134602Y-130319601D01*
X230065020Y-130310441D01*
X230057748Y-130307429D01*
X230043359Y-130305150D01*
X230004737Y-130285471D01*
X229962538Y-130267992D01*
X229946936Y-130256020D01*
X229924603Y-130244641D01*
X229899854Y-130219892D01*
X229874535Y-130200464D01*
X229855106Y-130175144D01*
X229830359Y-130150397D01*
X229818979Y-130128064D01*
X229807007Y-130112461D01*
X229789525Y-130070256D01*
X229769850Y-130031641D01*
X229767571Y-130017253D01*
X229764558Y-130009979D01*
X229755393Y-129940365D01*
X229749000Y-129900000D01*
X229755392Y-129859642D01*
X229764558Y-129790020D01*
X229767571Y-129782744D01*
X229769850Y-129768359D01*
X229789525Y-129729744D01*
X229807008Y-129687537D01*
X229818981Y-129671932D01*
X229830359Y-129649603D01*
X229855097Y-129624864D01*
X229874534Y-129599534D01*
X229899864Y-129580097D01*
X229924603Y-129555359D01*
X229946932Y-129543981D01*
X229962537Y-129532008D01*
X230004744Y-129514525D01*
X230043359Y-129494850D01*
X230057744Y-129492571D01*
X230065020Y-129489558D01*
X230134639Y-129480392D01*
X230175000Y-129474000D01*
X230215362Y-129480392D01*
G37*
G36*
X232340362Y-129480392D02*
G01*
X232409979Y-129489558D01*
X232417253Y-129492571D01*
X232431641Y-129494850D01*
X232470256Y-129514525D01*
X232512461Y-129532007D01*
X232528064Y-129543980D01*
X232550397Y-129555359D01*
X232575142Y-129580104D01*
X232600466Y-129599536D01*
X232619896Y-129624858D01*
X232644641Y-129649603D01*
X232656020Y-129671936D01*
X232667991Y-129687537D01*
X232685469Y-129729733D01*
X232705150Y-129768359D01*
X232707429Y-129782748D01*
X232710441Y-129790020D01*
X232719601Y-129859602D01*
X232726000Y-129900000D01*
X232719601Y-129940399D01*
X232710441Y-130009979D01*
X232707429Y-130017249D01*
X232705150Y-130031641D01*
X232685469Y-130070266D01*
X232667992Y-130112461D01*
X232656022Y-130128060D01*
X232644641Y-130150397D01*
X232619889Y-130175148D01*
X232600464Y-130200464D01*
X232575148Y-130219889D01*
X232550397Y-130244641D01*
X232528060Y-130256022D01*
X232512461Y-130267992D01*
X232470266Y-130285469D01*
X232431641Y-130305150D01*
X232417249Y-130307429D01*
X232409979Y-130310441D01*
X232340399Y-130319601D01*
X232300000Y-130326000D01*
X232259602Y-130319601D01*
X232190020Y-130310441D01*
X232182748Y-130307429D01*
X232168359Y-130305150D01*
X232129737Y-130285471D01*
X232087538Y-130267992D01*
X232071936Y-130256020D01*
X232049603Y-130244641D01*
X232024854Y-130219892D01*
X231999535Y-130200464D01*
X231980106Y-130175144D01*
X231955359Y-130150397D01*
X231943979Y-130128064D01*
X231932007Y-130112461D01*
X231914525Y-130070256D01*
X231894850Y-130031641D01*
X231892571Y-130017253D01*
X231889558Y-130009979D01*
X231880393Y-129940365D01*
X231874000Y-129900000D01*
X231880392Y-129859642D01*
X231889558Y-129790020D01*
X231892571Y-129782744D01*
X231894850Y-129768359D01*
X231914525Y-129729744D01*
X231932008Y-129687537D01*
X231943981Y-129671932D01*
X231955359Y-129649603D01*
X231980097Y-129624864D01*
X231999534Y-129599534D01*
X232024864Y-129580097D01*
X232049603Y-129555359D01*
X232071932Y-129543981D01*
X232087537Y-129532008D01*
X232129744Y-129514525D01*
X232168359Y-129494850D01*
X232182744Y-129492571D01*
X232190020Y-129489558D01*
X232259639Y-129480392D01*
X232300000Y-129474000D01*
X232340362Y-129480392D01*
G37*
G36*
X234465365Y-129480393D02*
G01*
X234534979Y-129489558D01*
X234542253Y-129492571D01*
X234556641Y-129494850D01*
X234595256Y-129514525D01*
X234637461Y-129532007D01*
X234653064Y-129543980D01*
X234675397Y-129555359D01*
X234700142Y-129580104D01*
X234725466Y-129599536D01*
X234744896Y-129624858D01*
X234769641Y-129649603D01*
X234781020Y-129671936D01*
X234792991Y-129687537D01*
X234810469Y-129729733D01*
X234830150Y-129768359D01*
X234832429Y-129782748D01*
X234835441Y-129790020D01*
X234844602Y-129859605D01*
X234851000Y-129900000D01*
X234844600Y-129940402D01*
X234835441Y-130009979D01*
X234832429Y-130017249D01*
X234830150Y-130031641D01*
X234810469Y-130070266D01*
X234792992Y-130112461D01*
X234781022Y-130128060D01*
X234769641Y-130150397D01*
X234744889Y-130175148D01*
X234725464Y-130200464D01*
X234700148Y-130219889D01*
X234675397Y-130244641D01*
X234653060Y-130256022D01*
X234637461Y-130267992D01*
X234595266Y-130285469D01*
X234556641Y-130305150D01*
X234542249Y-130307429D01*
X234534979Y-130310441D01*
X234465399Y-130319601D01*
X234425000Y-130326000D01*
X234384602Y-130319601D01*
X234315020Y-130310441D01*
X234307748Y-130307429D01*
X234293359Y-130305150D01*
X234254737Y-130285471D01*
X234212538Y-130267992D01*
X234196936Y-130256020D01*
X234174603Y-130244641D01*
X234149854Y-130219892D01*
X234124535Y-130200464D01*
X234105106Y-130175144D01*
X234080359Y-130150397D01*
X234068979Y-130128064D01*
X234057007Y-130112461D01*
X234039525Y-130070256D01*
X234019850Y-130031641D01*
X234017571Y-130017253D01*
X234014558Y-130009979D01*
X234005393Y-129940365D01*
X233999000Y-129900000D01*
X234005392Y-129859642D01*
X234014558Y-129790020D01*
X234017571Y-129782744D01*
X234019850Y-129768359D01*
X234039525Y-129729744D01*
X234057008Y-129687537D01*
X234068981Y-129671932D01*
X234080359Y-129649603D01*
X234105097Y-129624864D01*
X234124534Y-129599534D01*
X234149864Y-129580097D01*
X234174603Y-129555359D01*
X234196932Y-129543981D01*
X234212537Y-129532008D01*
X234254744Y-129514525D01*
X234293359Y-129494850D01*
X234307744Y-129492571D01*
X234315020Y-129489558D01*
X234384642Y-129480392D01*
X234425000Y-129474000D01*
X234465365Y-129480393D01*
G37*
G36*
X230215365Y-127730393D02*
G01*
X230284979Y-127739558D01*
X230292253Y-127742571D01*
X230306641Y-127744850D01*
X230345256Y-127764525D01*
X230387461Y-127782007D01*
X230403064Y-127793980D01*
X230425397Y-127805359D01*
X230450142Y-127830104D01*
X230475466Y-127849536D01*
X230494896Y-127874858D01*
X230519641Y-127899603D01*
X230531020Y-127921936D01*
X230542991Y-127937537D01*
X230560469Y-127979733D01*
X230580150Y-128018359D01*
X230582429Y-128032748D01*
X230585441Y-128040020D01*
X230594602Y-128109605D01*
X230601000Y-128150000D01*
X230594600Y-128190402D01*
X230585441Y-128259979D01*
X230582429Y-128267249D01*
X230580150Y-128281641D01*
X230560469Y-128320266D01*
X230542992Y-128362461D01*
X230531022Y-128378060D01*
X230519641Y-128400397D01*
X230494889Y-128425148D01*
X230475464Y-128450464D01*
X230450148Y-128469889D01*
X230425397Y-128494641D01*
X230403060Y-128506022D01*
X230387461Y-128517992D01*
X230345266Y-128535469D01*
X230306641Y-128555150D01*
X230292249Y-128557429D01*
X230284979Y-128560441D01*
X230215399Y-128569601D01*
X230175000Y-128576000D01*
X230134602Y-128569601D01*
X230065020Y-128560441D01*
X230057748Y-128557429D01*
X230043359Y-128555150D01*
X230004737Y-128535471D01*
X229962538Y-128517992D01*
X229946936Y-128506020D01*
X229924603Y-128494641D01*
X229899854Y-128469892D01*
X229874535Y-128450464D01*
X229855106Y-128425144D01*
X229830359Y-128400397D01*
X229818979Y-128378064D01*
X229807007Y-128362461D01*
X229789525Y-128320256D01*
X229769850Y-128281641D01*
X229767571Y-128267253D01*
X229764558Y-128259979D01*
X229755393Y-128190365D01*
X229749000Y-128150000D01*
X229755392Y-128109642D01*
X229764558Y-128040020D01*
X229767571Y-128032744D01*
X229769850Y-128018359D01*
X229789525Y-127979744D01*
X229807008Y-127937537D01*
X229818981Y-127921932D01*
X229830359Y-127899603D01*
X229855097Y-127874864D01*
X229874534Y-127849534D01*
X229899864Y-127830097D01*
X229924603Y-127805359D01*
X229946932Y-127793981D01*
X229962537Y-127782008D01*
X230004744Y-127764525D01*
X230043359Y-127744850D01*
X230057744Y-127742571D01*
X230065020Y-127739558D01*
X230134642Y-127730392D01*
X230175000Y-127724000D01*
X230215365Y-127730393D01*
G37*
G36*
X232340362Y-127730392D02*
G01*
X232409979Y-127739558D01*
X232417253Y-127742571D01*
X232431641Y-127744850D01*
X232470256Y-127764525D01*
X232512461Y-127782007D01*
X232528064Y-127793980D01*
X232550397Y-127805359D01*
X232575142Y-127830104D01*
X232600466Y-127849536D01*
X232619896Y-127874858D01*
X232644641Y-127899603D01*
X232656020Y-127921936D01*
X232667991Y-127937537D01*
X232685469Y-127979733D01*
X232705150Y-128018359D01*
X232707429Y-128032748D01*
X232710441Y-128040020D01*
X232719601Y-128109602D01*
X232726000Y-128150000D01*
X232719601Y-128190399D01*
X232710441Y-128259979D01*
X232707429Y-128267249D01*
X232705150Y-128281641D01*
X232685469Y-128320266D01*
X232667992Y-128362461D01*
X232656022Y-128378060D01*
X232644641Y-128400397D01*
X232619889Y-128425148D01*
X232600464Y-128450464D01*
X232575148Y-128469889D01*
X232550397Y-128494641D01*
X232528060Y-128506022D01*
X232512461Y-128517992D01*
X232470266Y-128535469D01*
X232431641Y-128555150D01*
X232417249Y-128557429D01*
X232409979Y-128560441D01*
X232340402Y-128569600D01*
X232300000Y-128576000D01*
X232259605Y-128569602D01*
X232190020Y-128560441D01*
X232182748Y-128557429D01*
X232168359Y-128555150D01*
X232129737Y-128535471D01*
X232087538Y-128517992D01*
X232071936Y-128506020D01*
X232049603Y-128494641D01*
X232024854Y-128469892D01*
X231999535Y-128450464D01*
X231980106Y-128425144D01*
X231955359Y-128400397D01*
X231943979Y-128378064D01*
X231932007Y-128362461D01*
X231914525Y-128320256D01*
X231894850Y-128281641D01*
X231892571Y-128267253D01*
X231889558Y-128259979D01*
X231880392Y-128190362D01*
X231874000Y-128150000D01*
X231880392Y-128109639D01*
X231889558Y-128040020D01*
X231892571Y-128032744D01*
X231894850Y-128018359D01*
X231914525Y-127979744D01*
X231932008Y-127937537D01*
X231943981Y-127921932D01*
X231955359Y-127899603D01*
X231980097Y-127874864D01*
X231999534Y-127849534D01*
X232024864Y-127830097D01*
X232049603Y-127805359D01*
X232071932Y-127793981D01*
X232087537Y-127782008D01*
X232129744Y-127764525D01*
X232168359Y-127744850D01*
X232182744Y-127742571D01*
X232190020Y-127739558D01*
X232259639Y-127730392D01*
X232300000Y-127724000D01*
X232340362Y-127730392D01*
G37*
G36*
X234465365Y-127730393D02*
G01*
X234534979Y-127739558D01*
X234542253Y-127742571D01*
X234556641Y-127744850D01*
X234595256Y-127764525D01*
X234637461Y-127782007D01*
X234653064Y-127793980D01*
X234675397Y-127805359D01*
X234700142Y-127830104D01*
X234725466Y-127849536D01*
X234744896Y-127874858D01*
X234769641Y-127899603D01*
X234781020Y-127921936D01*
X234792991Y-127937537D01*
X234810469Y-127979733D01*
X234830150Y-128018359D01*
X234832429Y-128032748D01*
X234835441Y-128040020D01*
X234844602Y-128109605D01*
X234851000Y-128150000D01*
X234844600Y-128190402D01*
X234835441Y-128259979D01*
X234832429Y-128267249D01*
X234830150Y-128281641D01*
X234810469Y-128320266D01*
X234792992Y-128362461D01*
X234781022Y-128378060D01*
X234769641Y-128400397D01*
X234744889Y-128425148D01*
X234725464Y-128450464D01*
X234700148Y-128469889D01*
X234675397Y-128494641D01*
X234653060Y-128506022D01*
X234637461Y-128517992D01*
X234595266Y-128535469D01*
X234556641Y-128555150D01*
X234542249Y-128557429D01*
X234534979Y-128560441D01*
X234465399Y-128569601D01*
X234425000Y-128576000D01*
X234384602Y-128569601D01*
X234315020Y-128560441D01*
X234307748Y-128557429D01*
X234293359Y-128555150D01*
X234254737Y-128535471D01*
X234212538Y-128517992D01*
X234196936Y-128506020D01*
X234174603Y-128494641D01*
X234149854Y-128469892D01*
X234124535Y-128450464D01*
X234105106Y-128425144D01*
X234080359Y-128400397D01*
X234068979Y-128378064D01*
X234057007Y-128362461D01*
X234039525Y-128320256D01*
X234019850Y-128281641D01*
X234017571Y-128267253D01*
X234014558Y-128259979D01*
X234005393Y-128190365D01*
X233999000Y-128150000D01*
X234005392Y-128109642D01*
X234014558Y-128040020D01*
X234017571Y-128032744D01*
X234019850Y-128018359D01*
X234039525Y-127979744D01*
X234057008Y-127937537D01*
X234068981Y-127921932D01*
X234080359Y-127899603D01*
X234105097Y-127874864D01*
X234124534Y-127849534D01*
X234149864Y-127830097D01*
X234174603Y-127805359D01*
X234196932Y-127793981D01*
X234212537Y-127782008D01*
X234254744Y-127764525D01*
X234293359Y-127744850D01*
X234307744Y-127742571D01*
X234315020Y-127739558D01*
X234384642Y-127730392D01*
X234425000Y-127724000D01*
X234465365Y-127730393D01*
G37*
M02*
