G04 #@! TF.GenerationSoftware,KiCad,Pcbnew,7.0.7*
G04 #@! TF.CreationDate,2023-12-22T11:29:53-08:00*
G04 #@! TF.ProjectId,Micro_AGB_Dongle,4d696372-6f5f-4414-9742-5f446f6e676c,rev?*
G04 #@! TF.SameCoordinates,Original*
G04 #@! TF.FileFunction,Copper,L2,Bot*
G04 #@! TF.FilePolarity,Positive*
%FSLAX46Y46*%
G04 Gerber Fmt 4.6, Leading zero omitted, Abs format (unit mm)*
G04 Created by KiCad (PCBNEW 7.0.7) date 2023-12-22 11:29:53*
%MOMM*%
%LPD*%
G01*
G04 APERTURE LIST*
%ADD10C,0.150000*%
G04 #@! TA.AperFunction,NonConductor*
%ADD11C,0.150000*%
G04 #@! TD*
G04 #@! TA.AperFunction,ComponentPad*
%ADD12C,0.750000*%
G04 #@! TD*
G04 #@! TA.AperFunction,ComponentPad*
%ADD13O,1.750000X2.750000*%
G04 #@! TD*
G04 #@! TA.AperFunction,ViaPad*
%ADD14C,3.400000*%
G04 #@! TD*
G04 APERTURE END LIST*
D10*
D11*
X233614284Y-131569771D02*
X233614284Y-131169771D01*
X233614284Y-131226914D02*
X233585713Y-131198342D01*
X233585713Y-131198342D02*
X233528570Y-131169771D01*
X233528570Y-131169771D02*
X233442856Y-131169771D01*
X233442856Y-131169771D02*
X233385713Y-131198342D01*
X233385713Y-131198342D02*
X233357142Y-131255485D01*
X233357142Y-131255485D02*
X233357142Y-131569771D01*
X233357142Y-131255485D02*
X233328570Y-131198342D01*
X233328570Y-131198342D02*
X233271427Y-131169771D01*
X233271427Y-131169771D02*
X233185713Y-131169771D01*
X233185713Y-131169771D02*
X233128570Y-131198342D01*
X233128570Y-131198342D02*
X233099999Y-131255485D01*
X233099999Y-131255485D02*
X233099999Y-131569771D01*
X232557142Y-131569771D02*
X232557142Y-131255485D01*
X232557142Y-131255485D02*
X232585713Y-131198342D01*
X232585713Y-131198342D02*
X232642856Y-131169771D01*
X232642856Y-131169771D02*
X232757142Y-131169771D01*
X232757142Y-131169771D02*
X232814284Y-131198342D01*
X232557142Y-131541200D02*
X232614284Y-131569771D01*
X232614284Y-131569771D02*
X232757142Y-131569771D01*
X232757142Y-131569771D02*
X232814284Y-131541200D01*
X232814284Y-131541200D02*
X232842856Y-131484057D01*
X232842856Y-131484057D02*
X232842856Y-131426914D01*
X232842856Y-131426914D02*
X232814284Y-131369771D01*
X232814284Y-131369771D02*
X232757142Y-131341200D01*
X232757142Y-131341200D02*
X232614284Y-131341200D01*
X232614284Y-131341200D02*
X232557142Y-131312628D01*
X232271427Y-131569771D02*
X232271427Y-130969771D01*
X232214285Y-131341200D02*
X232042856Y-131569771D01*
X232042856Y-131169771D02*
X232271427Y-131398342D01*
X231785713Y-131569771D02*
X231785713Y-130969771D01*
X231528571Y-131569771D02*
X231528571Y-131255485D01*
X231528571Y-131255485D02*
X231557142Y-131198342D01*
X231557142Y-131198342D02*
X231614285Y-131169771D01*
X231614285Y-131169771D02*
X231699999Y-131169771D01*
X231699999Y-131169771D02*
X231757142Y-131198342D01*
X231757142Y-131198342D02*
X231785713Y-131226914D01*
X231157142Y-131569771D02*
X231214285Y-131541200D01*
X231214285Y-131541200D02*
X231242856Y-131512628D01*
X231242856Y-131512628D02*
X231271428Y-131455485D01*
X231271428Y-131455485D02*
X231271428Y-131284057D01*
X231271428Y-131284057D02*
X231242856Y-131226914D01*
X231242856Y-131226914D02*
X231214285Y-131198342D01*
X231214285Y-131198342D02*
X231157142Y-131169771D01*
X231157142Y-131169771D02*
X231071428Y-131169771D01*
X231071428Y-131169771D02*
X231014285Y-131198342D01*
X231014285Y-131198342D02*
X230985714Y-131226914D01*
X230985714Y-131226914D02*
X230957142Y-131284057D01*
X230957142Y-131284057D02*
X230957142Y-131455485D01*
X230957142Y-131455485D02*
X230985714Y-131512628D01*
X230985714Y-131512628D02*
X231014285Y-131541200D01*
X231014285Y-131541200D02*
X231071428Y-131569771D01*
X231071428Y-131569771D02*
X231157142Y-131569771D01*
D12*
X234425000Y-128150000D03*
X234425000Y-129900000D03*
X232300000Y-128150000D03*
X232300000Y-129900000D03*
X230175000Y-128150000D03*
D13*
X227300000Y-130400000D03*
D12*
X230175000Y-129900000D03*
D13*
X237300000Y-130400000D03*
D14*
X236860000Y-125060000D03*
X227680000Y-124940000D03*
G04 #@! TA.AperFunction,Conductor*
G36*
X227666621Y-118745502D02*
G01*
X227713114Y-118799158D01*
X227724500Y-118851500D01*
X227724500Y-120719867D01*
X227722398Y-120730435D01*
X227722399Y-120750000D01*
X227724500Y-120755073D01*
X227730482Y-120769517D01*
X227750000Y-120777601D01*
X227769575Y-120777601D01*
X227780137Y-120775500D01*
X236769863Y-120775500D01*
X236780425Y-120777601D01*
X236800000Y-120777601D01*
X236819517Y-120769517D01*
X236825500Y-120755072D01*
X236826851Y-120751810D01*
X236831926Y-120739561D01*
X236825519Y-120719097D01*
X236825499Y-120716848D01*
X236825500Y-118851500D01*
X236845502Y-118783379D01*
X236899158Y-118736886D01*
X236951500Y-118725500D01*
X238191715Y-118725500D01*
X238196906Y-118725500D01*
X238203085Y-118725804D01*
X238246587Y-118730088D01*
X238338747Y-118739165D01*
X238362966Y-118743982D01*
X238484520Y-118780854D01*
X238507323Y-118790300D01*
X238619349Y-118850179D01*
X238639880Y-118863899D01*
X238738060Y-118944473D01*
X238755526Y-118961939D01*
X238836100Y-119060119D01*
X238849821Y-119080652D01*
X238909696Y-119192671D01*
X238919147Y-119215486D01*
X238956016Y-119337030D01*
X238960834Y-119361254D01*
X238974196Y-119496914D01*
X238974500Y-119503094D01*
X238974500Y-124667444D01*
X238954498Y-124735565D01*
X238900842Y-124782058D01*
X238830568Y-124792162D01*
X238765988Y-124762668D01*
X238727604Y-124702942D01*
X238725379Y-124694227D01*
X238688175Y-124523199D01*
X238593172Y-124268487D01*
X238462887Y-124029887D01*
X238299971Y-123812258D01*
X238107742Y-123620029D01*
X238107739Y-123620027D01*
X238107736Y-123620024D01*
X237890116Y-123457115D01*
X237890114Y-123457114D01*
X237890113Y-123457113D01*
X237651513Y-123326828D01*
X237651512Y-123326827D01*
X237396801Y-123231825D01*
X237131156Y-123174038D01*
X236860000Y-123154645D01*
X236588843Y-123174038D01*
X236323198Y-123231825D01*
X236068487Y-123326827D01*
X235829883Y-123457115D01*
X235612263Y-123620024D01*
X235612254Y-123620032D01*
X235420032Y-123812254D01*
X235420024Y-123812263D01*
X235257115Y-124029883D01*
X235126827Y-124268487D01*
X235031825Y-124523198D01*
X234974038Y-124788843D01*
X234954645Y-125059999D01*
X234974038Y-125331156D01*
X235031825Y-125596801D01*
X235126827Y-125851512D01*
X235257115Y-126090116D01*
X235420024Y-126307736D01*
X235420027Y-126307739D01*
X235420029Y-126307742D01*
X235612258Y-126499971D01*
X235612261Y-126499973D01*
X235612263Y-126499975D01*
X235825226Y-126659398D01*
X235829887Y-126662887D01*
X236068487Y-126793172D01*
X236323199Y-126888175D01*
X236588840Y-126945961D01*
X236860000Y-126965355D01*
X237131160Y-126945961D01*
X237396801Y-126888175D01*
X237651513Y-126793172D01*
X237890113Y-126662887D01*
X238107742Y-126499971D01*
X238299971Y-126307742D01*
X238462887Y-126090113D01*
X238593172Y-125851513D01*
X238688175Y-125596801D01*
X238725380Y-125425770D01*
X238759404Y-125363460D01*
X238821716Y-125329435D01*
X238892532Y-125334499D01*
X238949368Y-125377046D01*
X238974179Y-125443566D01*
X238974500Y-125452555D01*
X238974500Y-131196905D01*
X238974196Y-131203085D01*
X238960834Y-131338745D01*
X238956016Y-131362969D01*
X238919147Y-131484513D01*
X238909694Y-131507335D01*
X238849823Y-131619344D01*
X238836100Y-131639880D01*
X238755526Y-131738060D01*
X238738061Y-131755526D01*
X238639916Y-131836072D01*
X238574569Y-131863826D01*
X238504590Y-131851844D01*
X238452199Y-131803932D01*
X238434027Y-131735300D01*
X238449982Y-131677223D01*
X238564785Y-131471717D01*
X238643211Y-131249752D01*
X238683000Y-131017708D01*
X238683000Y-130654000D01*
X237926000Y-130654000D01*
X237857879Y-130633998D01*
X237811386Y-130580342D01*
X237800000Y-130528000D01*
X237800000Y-130272000D01*
X237820002Y-130203879D01*
X237873658Y-130157386D01*
X237926000Y-130146000D01*
X238683000Y-130146000D01*
X238683000Y-129841254D01*
X238668034Y-129665426D01*
X238668033Y-129665420D01*
X238608716Y-129437608D01*
X238608714Y-129437603D01*
X238511744Y-129223080D01*
X238511743Y-129223078D01*
X238379914Y-129028032D01*
X238379908Y-129028024D01*
X238217020Y-128858069D01*
X238217014Y-128858065D01*
X238027739Y-128718078D01*
X237817521Y-128612088D01*
X237817518Y-128612087D01*
X237592423Y-128543153D01*
X237554000Y-128538231D01*
X237554000Y-129285156D01*
X237533998Y-129353277D01*
X237480342Y-129399770D01*
X237410068Y-129409874D01*
X237392504Y-129406053D01*
X237388360Y-129404836D01*
X237371889Y-129400000D01*
X237228111Y-129400000D01*
X237207494Y-129406053D01*
X237136498Y-129406051D01*
X237076772Y-129367666D01*
X237047281Y-129303085D01*
X237045999Y-129285156D01*
X237045999Y-128539987D01*
X236893557Y-128572842D01*
X236675117Y-128660619D01*
X236474645Y-128784055D01*
X236297925Y-128939588D01*
X236150030Y-129122754D01*
X236035214Y-129328282D01*
X235956788Y-129550247D01*
X235917000Y-129782291D01*
X235917000Y-130146000D01*
X236674000Y-130146000D01*
X236742121Y-130166002D01*
X236788614Y-130219658D01*
X236800000Y-130272000D01*
X236800000Y-130528000D01*
X236779998Y-130596121D01*
X236726342Y-130642614D01*
X236674000Y-130654000D01*
X235917000Y-130654000D01*
X235917000Y-130958746D01*
X235931965Y-131134573D01*
X235931966Y-131134579D01*
X235991283Y-131362391D01*
X235991285Y-131362396D01*
X236088255Y-131576919D01*
X236088256Y-131576921D01*
X236223083Y-131776403D01*
X236221381Y-131777553D01*
X236245201Y-131834933D01*
X236232650Y-131904812D01*
X236184313Y-131956811D01*
X236119934Y-131974500D01*
X234017877Y-131974500D01*
X233949756Y-131954498D01*
X233903263Y-131900842D01*
X233891877Y-131848500D01*
X233891877Y-130690671D01*
X232528449Y-130690671D01*
X232460328Y-130670669D01*
X232413835Y-130617013D01*
X232403731Y-130546739D01*
X232433225Y-130482159D01*
X232480229Y-130448263D01*
X232590233Y-130402698D01*
X232710451Y-130310451D01*
X232802698Y-130190233D01*
X232860687Y-130050236D01*
X232880466Y-129900000D01*
X233844533Y-129900000D01*
X233864312Y-130050234D01*
X233922301Y-130190231D01*
X233922306Y-130190239D01*
X234014548Y-130310451D01*
X234134760Y-130402693D01*
X234134767Y-130402698D01*
X234274764Y-130460687D01*
X234425000Y-130480466D01*
X234575236Y-130460687D01*
X234715233Y-130402698D01*
X234835451Y-130310451D01*
X234927698Y-130190233D01*
X234985687Y-130050236D01*
X235005466Y-129900000D01*
X234985687Y-129749764D01*
X234927698Y-129609767D01*
X234925345Y-129606700D01*
X234835451Y-129489548D01*
X234715239Y-129397306D01*
X234715231Y-129397301D01*
X234575234Y-129339312D01*
X234425000Y-129319534D01*
X234274765Y-129339312D01*
X234134768Y-129397301D01*
X234134760Y-129397306D01*
X234014548Y-129489548D01*
X233922306Y-129609760D01*
X233922301Y-129609768D01*
X233864312Y-129749765D01*
X233844533Y-129899999D01*
X233844533Y-129900000D01*
X232880466Y-129900000D01*
X232860687Y-129749764D01*
X232802698Y-129609767D01*
X232800345Y-129606700D01*
X232710451Y-129489548D01*
X232590239Y-129397306D01*
X232590231Y-129397301D01*
X232450234Y-129339312D01*
X232300000Y-129319534D01*
X232149765Y-129339312D01*
X232009768Y-129397301D01*
X232009760Y-129397306D01*
X231889548Y-129489548D01*
X231797306Y-129609760D01*
X231797301Y-129609768D01*
X231739312Y-129749765D01*
X231719533Y-129899999D01*
X231719533Y-129900000D01*
X231739312Y-130050234D01*
X231797301Y-130190231D01*
X231797306Y-130190239D01*
X231889548Y-130310451D01*
X232009760Y-130402693D01*
X232009767Y-130402698D01*
X232119770Y-130448263D01*
X232175050Y-130492811D01*
X232197471Y-130560174D01*
X232179913Y-130628965D01*
X232127951Y-130677343D01*
X232071551Y-130690671D01*
X230658651Y-130690671D01*
X230590530Y-130670669D01*
X230569556Y-130653766D01*
X230248472Y-130332682D01*
X230214446Y-130270370D01*
X230219511Y-130199555D01*
X230262058Y-130142719D01*
X230267566Y-130138821D01*
X230272543Y-130135495D01*
X230272545Y-130135495D01*
X230355240Y-130080240D01*
X230410495Y-129997545D01*
X230410495Y-129997543D01*
X230413821Y-129992566D01*
X230468298Y-129947038D01*
X230538741Y-129938189D01*
X230602785Y-129968830D01*
X230607682Y-129973472D01*
X230952880Y-130318670D01*
X230952881Y-130318669D01*
X230986101Y-130261132D01*
X230986106Y-130261123D01*
X231043462Y-130084597D01*
X231062863Y-129899999D01*
X231043462Y-129715402D01*
X230986106Y-129538878D01*
X230986103Y-129538871D01*
X230952881Y-129481329D01*
X230607682Y-129826528D01*
X230545370Y-129860553D01*
X230474554Y-129855488D01*
X230417719Y-129812941D01*
X230413822Y-129807434D01*
X230355240Y-129719759D01*
X230267565Y-129661177D01*
X230222037Y-129606700D01*
X230213189Y-129536257D01*
X230243831Y-129472213D01*
X230248472Y-129467317D01*
X230595247Y-129120541D01*
X230595246Y-129120540D01*
X230449367Y-129055591D01*
X230267807Y-129017000D01*
X230082193Y-129017000D01*
X229900632Y-129055591D01*
X229754752Y-129120540D01*
X229754751Y-129120541D01*
X230101527Y-129467317D01*
X230135553Y-129529629D01*
X230130488Y-129600444D01*
X230087941Y-129657280D01*
X230082434Y-129661177D01*
X229994759Y-129719759D01*
X229936177Y-129807434D01*
X229881700Y-129852962D01*
X229811256Y-129861809D01*
X229747212Y-129831168D01*
X229742317Y-129826527D01*
X229397118Y-129481328D01*
X229363895Y-129538873D01*
X229363893Y-129538878D01*
X229306537Y-129715402D01*
X229287136Y-129899999D01*
X229306537Y-130084597D01*
X229363893Y-130261121D01*
X229363895Y-130261126D01*
X229397118Y-130318670D01*
X229742317Y-129973472D01*
X229804629Y-129939446D01*
X229875444Y-129944511D01*
X229932280Y-129987058D01*
X229936177Y-129992565D01*
X229974712Y-130050236D01*
X229994760Y-130080240D01*
X230077455Y-130135495D01*
X230077457Y-130135495D01*
X230082433Y-130138820D01*
X230127961Y-130193297D01*
X230136810Y-130263740D01*
X230106169Y-130327784D01*
X230101528Y-130332681D01*
X229754751Y-130679457D01*
X229900634Y-130744408D01*
X230082193Y-130783000D01*
X230267807Y-130783000D01*
X230449367Y-130744408D01*
X230500102Y-130721819D01*
X230570468Y-130712384D01*
X230634766Y-130742489D01*
X230672580Y-130802578D01*
X230677352Y-130836925D01*
X230677352Y-131848500D01*
X230657350Y-131916621D01*
X230603694Y-131963114D01*
X230551352Y-131974500D01*
X228473638Y-131974500D01*
X228405517Y-131954498D01*
X228359024Y-131900842D01*
X228348920Y-131830568D01*
X228375606Y-131769344D01*
X228449967Y-131677249D01*
X228564785Y-131471717D01*
X228643211Y-131249752D01*
X228683000Y-131017708D01*
X228683000Y-130654000D01*
X227926000Y-130654000D01*
X227857879Y-130633998D01*
X227811386Y-130580342D01*
X227800000Y-130528000D01*
X227800000Y-130272000D01*
X227820002Y-130203879D01*
X227873658Y-130157386D01*
X227926000Y-130146000D01*
X228683000Y-130146000D01*
X228683000Y-129841254D01*
X228668034Y-129665426D01*
X228668033Y-129665420D01*
X228608716Y-129437608D01*
X228608714Y-129437603D01*
X228511744Y-129223080D01*
X228511743Y-129223078D01*
X228379914Y-129028032D01*
X228379908Y-129028024D01*
X228217020Y-128858069D01*
X228217014Y-128858065D01*
X228027739Y-128718078D01*
X227817521Y-128612088D01*
X227817518Y-128612087D01*
X227592423Y-128543153D01*
X227554000Y-128538231D01*
X227554000Y-129285156D01*
X227533998Y-129353277D01*
X227480342Y-129399770D01*
X227410068Y-129409874D01*
X227392504Y-129406053D01*
X227388360Y-129404836D01*
X227371889Y-129400000D01*
X227228111Y-129400000D01*
X227211639Y-129404836D01*
X227207500Y-129406052D01*
X227207496Y-129406053D01*
X227136500Y-129406052D01*
X227076774Y-129367667D01*
X227047282Y-129303086D01*
X227046000Y-129285156D01*
X227046000Y-128539987D01*
X226893556Y-128572842D01*
X226675117Y-128660619D01*
X226474645Y-128784055D01*
X226297925Y-128939588D01*
X226150030Y-129122754D01*
X226035214Y-129328282D01*
X225956788Y-129550247D01*
X225917000Y-129782291D01*
X225917000Y-130146000D01*
X226674000Y-130146000D01*
X226742121Y-130166002D01*
X226788614Y-130219658D01*
X226800000Y-130272000D01*
X226800000Y-130528000D01*
X226779998Y-130596121D01*
X226726342Y-130642614D01*
X226674000Y-130654000D01*
X225917000Y-130654000D01*
X225917000Y-130958746D01*
X225931965Y-131134573D01*
X225931966Y-131134579D01*
X225991283Y-131362391D01*
X225991285Y-131362396D01*
X226088255Y-131576919D01*
X226088256Y-131576921D01*
X226199127Y-131740959D01*
X226220701Y-131808598D01*
X226202282Y-131877164D01*
X226149717Y-131924887D01*
X226079696Y-131936615D01*
X226058162Y-131932091D01*
X226015488Y-131919147D01*
X225992671Y-131909696D01*
X225880652Y-131849821D01*
X225860119Y-131836100D01*
X225761939Y-131755526D01*
X225744473Y-131738060D01*
X225663899Y-131639880D01*
X225650179Y-131619349D01*
X225590300Y-131507323D01*
X225580854Y-131484520D01*
X225543982Y-131362966D01*
X225539165Y-131338744D01*
X225525804Y-131203084D01*
X225525500Y-131196905D01*
X225525500Y-128150000D01*
X229594533Y-128150000D01*
X229614312Y-128300234D01*
X229672301Y-128440231D01*
X229672306Y-128440239D01*
X229764548Y-128560451D01*
X229831843Y-128612088D01*
X229884767Y-128652698D01*
X230024764Y-128710687D01*
X230175000Y-128730466D01*
X230325236Y-128710687D01*
X230465233Y-128652698D01*
X230585451Y-128560451D01*
X230677698Y-128440233D01*
X230735687Y-128300236D01*
X230755466Y-128150000D01*
X231719533Y-128150000D01*
X231739312Y-128300234D01*
X231797301Y-128440231D01*
X231797306Y-128440239D01*
X231889548Y-128560451D01*
X231956843Y-128612088D01*
X232009767Y-128652698D01*
X232149764Y-128710687D01*
X232300000Y-128730466D01*
X232450236Y-128710687D01*
X232590233Y-128652698D01*
X232710451Y-128560451D01*
X232802698Y-128440233D01*
X232860687Y-128300236D01*
X232880466Y-128150000D01*
X233844533Y-128150000D01*
X233864312Y-128300234D01*
X233922301Y-128440231D01*
X233922306Y-128440239D01*
X234014548Y-128560451D01*
X234081843Y-128612088D01*
X234134767Y-128652698D01*
X234274764Y-128710687D01*
X234425000Y-128730466D01*
X234575236Y-128710687D01*
X234715233Y-128652698D01*
X234835451Y-128560451D01*
X234927698Y-128440233D01*
X234985687Y-128300236D01*
X235005466Y-128150000D01*
X234985687Y-127999764D01*
X234927698Y-127859767D01*
X234927693Y-127859760D01*
X234835451Y-127739548D01*
X234715239Y-127647306D01*
X234715231Y-127647301D01*
X234575234Y-127589312D01*
X234425000Y-127569534D01*
X234274765Y-127589312D01*
X234134768Y-127647301D01*
X234134760Y-127647306D01*
X234014548Y-127739548D01*
X233922306Y-127859760D01*
X233922301Y-127859768D01*
X233864312Y-127999765D01*
X233844533Y-128149999D01*
X233844533Y-128150000D01*
X232880466Y-128150000D01*
X232860687Y-127999764D01*
X232802698Y-127859767D01*
X232802693Y-127859760D01*
X232710451Y-127739548D01*
X232590239Y-127647306D01*
X232590231Y-127647301D01*
X232450234Y-127589312D01*
X232300000Y-127569534D01*
X232149765Y-127589312D01*
X232009768Y-127647301D01*
X232009760Y-127647306D01*
X231889548Y-127739548D01*
X231797306Y-127859760D01*
X231797301Y-127859768D01*
X231739312Y-127999765D01*
X231719533Y-128149999D01*
X231719533Y-128150000D01*
X230755466Y-128150000D01*
X230735687Y-127999764D01*
X230677698Y-127859767D01*
X230677693Y-127859760D01*
X230585451Y-127739548D01*
X230465239Y-127647306D01*
X230465231Y-127647301D01*
X230325234Y-127589312D01*
X230175000Y-127569534D01*
X230024765Y-127589312D01*
X229884768Y-127647301D01*
X229884760Y-127647306D01*
X229764548Y-127739548D01*
X229672306Y-127859760D01*
X229672301Y-127859768D01*
X229614312Y-127999765D01*
X229594533Y-128149999D01*
X229594533Y-128150000D01*
X225525500Y-128150000D01*
X225525500Y-124984417D01*
X225538355Y-124940635D01*
X225536557Y-124937342D01*
X225764955Y-124937342D01*
X225772396Y-124948919D01*
X225777179Y-124975428D01*
X225794038Y-125211156D01*
X225851825Y-125476801D01*
X225946827Y-125731512D01*
X226077115Y-125970116D01*
X226240024Y-126187736D01*
X226240027Y-126187739D01*
X226240029Y-126187742D01*
X226432258Y-126379971D01*
X226649887Y-126542887D01*
X226888487Y-126673172D01*
X227143199Y-126768175D01*
X227408840Y-126825961D01*
X227680000Y-126845355D01*
X227951160Y-126825961D01*
X228216801Y-126768175D01*
X228471513Y-126673172D01*
X228710113Y-126542887D01*
X228927742Y-126379971D01*
X229119971Y-126187742D01*
X229282887Y-125970113D01*
X229413172Y-125731513D01*
X229508175Y-125476801D01*
X229565961Y-125211160D01*
X229585355Y-124940000D01*
X229565961Y-124668840D01*
X229508175Y-124403199D01*
X229413172Y-124148487D01*
X229282887Y-123909887D01*
X229209806Y-123812263D01*
X229119975Y-123692263D01*
X229119967Y-123692254D01*
X228927745Y-123500032D01*
X228927736Y-123500024D01*
X228710116Y-123337115D01*
X228710114Y-123337114D01*
X228710113Y-123337113D01*
X228471513Y-123206828D01*
X228471512Y-123206827D01*
X228216801Y-123111825D01*
X227951156Y-123054038D01*
X227680000Y-123034645D01*
X227408843Y-123054038D01*
X227143198Y-123111825D01*
X226888487Y-123206827D01*
X226649883Y-123337115D01*
X226432263Y-123500024D01*
X226432254Y-123500032D01*
X226240032Y-123692254D01*
X226240024Y-123692263D01*
X226077115Y-123909883D01*
X225946827Y-124148487D01*
X225851825Y-124403198D01*
X225794038Y-124668843D01*
X225777179Y-124904571D01*
X225764955Y-124937342D01*
X225536557Y-124937342D01*
X225528379Y-124922365D01*
X225525500Y-124895582D01*
X225525500Y-119503093D01*
X225525804Y-119496914D01*
X225539165Y-119361255D01*
X225539166Y-119361254D01*
X225539165Y-119361250D01*
X225543981Y-119337035D01*
X225580856Y-119215476D01*
X225590298Y-119192679D01*
X225650182Y-119080645D01*
X225663899Y-119060119D01*
X225677615Y-119043405D01*
X225744474Y-118961937D01*
X225761939Y-118944473D01*
X225860119Y-118863899D01*
X225880645Y-118850182D01*
X225992679Y-118790298D01*
X226015476Y-118780856D01*
X226137035Y-118743981D01*
X226161250Y-118739165D01*
X226261019Y-118729339D01*
X226296915Y-118725804D01*
X226303094Y-118725500D01*
X226308285Y-118725500D01*
X227598500Y-118725500D01*
X227666621Y-118745502D01*
G37*
G04 #@! TD.AperFunction*
M02*
